<?xml version="1.0" standalone="no"?>
<!DOCTYPE svg PUBLIC "-//W3C//DTD SVG 1.1//EN" "http://www.w3.org/Graphics/SVG/1.1/DTD/svg11.dtd" >
<svg>
<metadata>
Created by FontForge 20090914 at Tue Jul  5 12:12:48 2022
 By www-data
Copyright (c) 2006 by Department of Intellectual Property (DIP), Ministry of Commerce and Software Industry Promotion Agency (Public Organization) (SIPA). All rights reserved.
</metadata>
<defs>
<font id="THFahkwang" horiz-adv-x="0" >
  <font-face 
    font-family="TH Fah kwang"
    font-weight="400"
    font-stretch="normal"
    units-per-em="1000"
    panose-1="2 0 5 6 0 0 0 2 0 4"
    ascent="800"
    descent="-200"
    x-height="348"
    cap-height="467"
    bbox="-530 -396 1404 795.001"
    underline-thickness="30"
    underline-position="-20"
    unicode-range="U+0020-U+FEFF"
  />
<missing-glyph horiz-adv-x="357" 
d="M0 0v511h357v-511h-357zM310 482h-265l133 -201zM160 254l-131 201v-400zM46 29h264l-132 199zM195 254l133 -201v404z" />
    <glyph glyph-name="Agrave" unicode="A&#x300;" horiz-adv-x="534" 
d="M466 0l-126 239h-176l-127 -239h-32l264 482h11l249 -482h-63zM256 409l-78 -146h151zM220 506l-106.001 72.001c-9.33301 6.66699 -16.166 12.167 -20.499 16.5s-6.5 9.16602 -6.5 14.499c0 6 1.83301 11.167 5.5 15.5s8.5 6.5 14.5 6.5c10 0 18.333 -3.66699 25 -11
l109 -113z" />
    <glyph glyph-name="Aacute" unicode="A&#x301;" horiz-adv-x="534" 
d="M466 0l-126 239h-176l-127 -239h-32l264 482h11l249 -482h-63zM256 409l-78 -146h151zM138 504l108.998 112.999c6.66699 7.33301 15 11 25 11c6.66699 0 11.834 -2.16699 15.501 -6.5s5.5 -9.5 5.5 -15.5c0 -5.33301 -2.16699 -10.166 -6.5 -14.499
s-11.166 -9.83301 -20.499 -16.5l-107 -72z" />
    <glyph glyph-name="Atilde" unicode="A&#x303;" horiz-adv-x="534" 
d="M466 0l-126 239h-176l-127 -239h-32l264 482h11l249 -482h-63zM256 409l-78 -146h151zM160 507c2.66699 13.333 7.33691 25.335 14.0039 36.002c5.33301 9.33301 12.666 17.666 21.999 24.999s21.666 11 36.999 11c10.667 0 20.667 -1.83301 30 -5.5
s18.166 -7.83398 26.499 -12.501s16.333 -8.83398 24 -12.501s15.167 -5.5 22.5 -5.5c8 0 14.667 2 20 6s9.66602 8.66699 12.999 14c4 6 7.33301 12.667 10 20h16c-2.66699 -14.667 -7 -27.667 -13 -39c-5.33301 -9.33301 -12.833 -18 -22.5 -26s-22.834 -12 -39.501 -12
c-11.333 0 -21.333 1.83301 -30 5.5s-16.667 7.83398 -24 12.501s-14.666 8.83398 -21.999 12.501s-15.333 5.5 -24 5.5c-8 0 -14.833 -1.83301 -20.5 -5.5s-10.167 -7.83398 -13.5 -12.501c-4 -5.33301 -7 -11 -9 -17h-17z" />
    <glyph glyph-name="Egrave" unicode="E&#x300;" horiz-adv-x="451" 
d="M50 0v467h391v-25h-337v-179h265v-24h-265v-215h337v-24h-391zM303 501l-106.001 72.001c-9.33301 6.66699 -16.166 12.167 -20.499 16.5s-6.5 9.16602 -6.5 14.499c0 6 1.83301 11.167 5.5 15.5s8.5 6.5 14.5 6.5c10 0 18.333 -3.66699 25 -11l109 -113z" />
    <glyph glyph-name="Eacute" unicode="E&#x301;" horiz-adv-x="451" 
d="M50 0v467h391v-25h-337v-179h265v-24h-265v-215h337v-24h-391zM169 507l108.998 112.999c6.66699 7.33301 15 11 25 11c6.66699 0 11.834 -2.16699 15.501 -6.5s5.5 -9.5 5.5 -15.5c0 -5.33301 -2.16699 -10.166 -6.5 -14.499s-11.166 -9.83301 -20.499 -16.5l-107 -72z
" />
    <glyph glyph-name="Igrave" unicode="I&#x300;" horiz-adv-x="162" 
d="M53 0v467h54v-467h-54zM136 503l-106.001 72.001c-9.33301 6.66699 -16.166 12.167 -20.499 16.5s-6.5 9.16602 -6.5 14.499c0 6 1.83301 11.167 5.5 15.5s8.5 6.5 14.5 6.5c10 0 18.333 -3.66699 25 -11l109 -113z" />
    <glyph glyph-name="Iacute" unicode="I&#x301;" horiz-adv-x="162" 
d="M53 0v467h54v-467h-54zM0 504l108.998 112.999c6.66699 7.33301 15 11 25 11c6.66699 0 11.834 -2.16699 15.501 -6.5s5.5 -9.5 5.5 -15.5c0 -5.33301 -2.16699 -10.166 -6.5 -14.499s-11.166 -9.83301 -20.499 -16.5l-107 -72z" />
    <glyph glyph-name="Ograve" unicode="O&#x300;" horiz-adv-x="595" 
d="M570 233c0 -37.333 -7.66992 -71.334 -23.0029 -102.001s-35.666 -57 -60.999 -79s-54.333 -39 -87 -51s-66.667 -18 -102 -18s-69.333 6 -102 18s-61.667 29 -87 51s-45.5 48.333 -60.5 79s-22.5 64.334 -22.5 101.001s7.66699 70.334 23 101.001s35.833 57 61.5 79
s54.834 39.167 87.501 51.5s66.334 18.5 101.001 18.5s68.5 -6 101.5 -18s62 -29 87 -51s45.167 -48.333 60.5 -79s23 -64.334 23 -101.001zM502.997 232.999c0 30.667 -4.50195 60.001 -13.502 88.001s-22.333 52.5 -40 73.5s-39.167 37.667 -64.5 50
s-54.333 18.5 -87 18.5c-33.333 0 -62.833 -6.16699 -88.5 -18.5s-47.167 -29 -64.5 -50s-30.666 -45.5 -39.999 -73.5s-14 -57.667 -14 -89s4.5 -60.833 13.5 -88.5s22.333 -52 40 -73s39.167 -37.667 64.5 -50s54.666 -18.5 87.999 -18.5
c32.667 0 61.834 6.16699 87.501 18.5s47.334 29.166 65.001 50.499s31 45.833 40 73.5s13.5 57.167 13.5 88.5zM363.995 501l-106.001 72.001c-9.33301 6.66699 -16.166 12.167 -20.499 16.5s-6.5 9.16602 -6.5 14.499c0 6 1.83301 11.167 5.5 15.5s8.5 6.5 14.5 6.5
c10 0 18.333 -3.66699 25 -11l109 -113z" />
    <glyph glyph-name="Oacute" unicode="O&#x301;" horiz-adv-x="595" 
d="M570 233c0 -37.333 -7.66992 -71.334 -23.0029 -102.001s-35.666 -57 -60.999 -79s-54.333 -39 -87 -51s-66.667 -18 -102 -18s-69.333 6 -102 18s-61.667 29 -87 51s-45.5 48.333 -60.5 79s-22.5 64.334 -22.5 101.001s7.66699 70.334 23 101.001s35.833 57 61.5 79
s54.834 39.167 87.501 51.5s66.334 18.5 101.001 18.5s68.5 -6 101.5 -18s62 -29 87 -51s45.167 -48.333 60.5 -79s23 -64.334 23 -101.001zM502.997 232.999c0 30.667 -4.50195 60.001 -13.502 88.001s-22.333 52.5 -40 73.5s-39.167 37.667 -64.5 50
s-54.333 18.5 -87 18.5c-33.333 0 -62.833 -6.16699 -88.5 -18.5s-47.167 -29 -64.5 -50s-30.666 -45.5 -39.999 -73.5s-14 -57.667 -14 -89s4.5 -60.833 13.5 -88.5s22.333 -52 40 -73s39.167 -37.667 64.5 -50s54.666 -18.5 87.999 -18.5
c32.667 0 61.834 6.16699 87.501 18.5s47.334 29.166 65.001 50.499s31 45.833 40 73.5s13.5 57.167 13.5 88.5zM228.995 502l108.998 112.999c6.66699 7.33301 15 11 25 11c6.66699 0 11.834 -2.16699 15.501 -6.5s5.5 -9.5 5.5 -15.5
c0 -5.33301 -2.16699 -10.166 -6.5 -14.499s-11.166 -9.83301 -20.499 -16.5l-107 -72z" />
    <glyph glyph-name="Otilde" unicode="O&#x303;" horiz-adv-x="595" 
d="M570 233c0 -37.333 -7.66992 -71.334 -23.0029 -102.001s-35.666 -57 -60.999 -79s-54.333 -39 -87 -51s-66.667 -18 -102 -18s-69.333 6 -102 18s-61.667 29 -87 51s-45.5 48.333 -60.5 79s-22.5 64.334 -22.5 101.001s7.66699 70.334 23 101.001s35.833 57 61.5 79
s54.834 39.167 87.501 51.5s66.334 18.5 101.001 18.5s68.5 -6 101.5 -18s62 -29 87 -51s45.167 -48.333 60.5 -79s23 -64.334 23 -101.001zM502.997 232.999c0 30.667 -4.50195 60.001 -13.502 88.001s-22.333 52.5 -40 73.5s-39.167 37.667 -64.5 50
s-54.333 18.5 -87 18.5c-33.333 0 -62.833 -6.16699 -88.5 -18.5s-47.167 -29 -64.5 -50s-30.666 -45.5 -39.999 -73.5s-14 -57.667 -14 -89s4.5 -60.833 13.5 -88.5s22.333 -52 40 -73s39.167 -37.667 64.5 -50s54.666 -18.5 87.999 -18.5
c32.667 0 61.834 6.16699 87.501 18.5s47.334 29.166 65.001 50.499s31 45.833 40 73.5s13.5 57.167 13.5 88.5zM175.995 506c2.66699 13.333 7.33691 25.335 14.0039 36.002c5.33301 9.33301 12.666 17.666 21.999 24.999s21.666 11 36.999 11
c10.667 0 20.667 -1.83301 30 -5.5s18.166 -7.83398 26.499 -12.501s16.333 -8.83398 24 -12.501s15.167 -5.5 22.5 -5.5c8 0 14.667 2 20 6s9.66602 8.66699 12.999 14c4 6 7.33301 12.667 10 20h16c-2.66699 -14.667 -7 -27.667 -13 -39
c-5.33301 -9.33301 -12.833 -18 -22.5 -26s-22.834 -12 -39.501 -12c-11.333 0 -21.333 1.83301 -30 5.5s-16.667 7.83398 -24 12.501s-14.666 8.83398 -21.999 12.501s-15.333 5.5 -24 5.5c-8 0 -14.833 -1.83301 -20.5 -5.5s-10.167 -7.83398 -13.5 -12.501
c-4 -5.33301 -7 -11 -9 -17h-17z" />
    <glyph glyph-name="Ugrave" unicode="U&#x300;" horiz-adv-x="573" 
d="M523 190c0 -36 -6.16602 -66.833 -18.499 -92.5s-29.166 -47 -50.499 -64s-46.5 -29.5 -75.5 -37.5s-59.833 -12 -92.5 -12s-63.334 4 -92.001 12s-53.667 20.5 -75 37.5s-38.166 38.5 -50.499 64.5s-18.5 56.667 -18.5 92v277h54v-288c0 -26.667 4.66699 -50.667 14 -72
s22.166 -39.5 38.499 -54.5s35.5 -26.5 57.5 -34.5s46 -12 72 -12s50.167 4 72.5 12s41.666 19.5 57.999 34.5s29.333 33.167 39 54.5s14.5 45.333 14.5 72v288h53v-277v0zM348.001 496l-106.001 72.001c-9.33301 6.66699 -16.166 12.167 -20.499 16.5
s-6.5 9.16602 -6.5 14.499c0 6 1.83301 11.167 5.5 15.5s8.5 6.5 14.5 6.5c10 0 18.333 -3.66699 25 -11l109 -113z" />
    <glyph glyph-name="Uacute" unicode="U&#x301;" horiz-adv-x="573" 
d="M523 190c0 -36 -6.16602 -66.833 -18.499 -92.5s-29.166 -47 -50.499 -64s-46.5 -29.5 -75.5 -37.5s-59.833 -12 -92.5 -12s-63.334 4 -92.001 12s-53.667 20.5 -75 37.5s-38.166 38.5 -50.499 64.5s-18.5 56.667 -18.5 92v277h54v-288c0 -26.667 4.66699 -50.667 14 -72
s22.166 -39.5 38.499 -54.5s35.5 -26.5 57.5 -34.5s46 -12 72 -12s50.167 4 72.5 12s41.666 19.5 57.999 34.5s29.333 33.167 39 54.5s14.5 45.333 14.5 72v288h53v-277v0zM210.001 498l108.998 112.999c6.66699 7.33301 15 11 25 11c6.66699 0 11.834 -2.16699 15.501 -6.5
s5.5 -9.5 5.5 -15.5c0 -5.33301 -2.16699 -10.166 -6.5 -14.499s-11.166 -9.83301 -20.499 -16.5l-107 -72z" />
    <glyph glyph-name="Yacute" unicode="Y&#x301;" horiz-adv-x="481" 
d="M262 210v-210h-56v200l-201 267h59l183 -239l197 239h32zM170 499l108.998 112.999c6.66699 7.33301 15 11 25 11c6.66699 0 11.834 -2.16699 15.501 -6.5s5.5 -9.5 5.5 -15.5c0 -5.33301 -2.16699 -10.166 -6.5 -14.499s-11.166 -9.83301 -20.499 -16.5l-107 -72z" />
    <glyph glyph-name="agrave" unicode="a&#x300;" horiz-adv-x="402" 
d="M326 0c-3.33301 10.667 -6.00195 20.499 -8.00195 29.499s-3.33301 18.5 -4 28.5c-18 -26 -39.167 -43.833 -63.5 -53.5s-52.5 -14.5 -84.5 -14.5c-16.667 0 -33.667 2 -51 6s-33 10.333 -47 19s-25.5 20 -34.5 34s-13.5 30.667 -13.5 50
c0 20.667 5.16699 37.834 15.5 51.501s23.833 24.834 40.5 33.501s35.667 15.334 57 20.001s42.666 7.83398 63.999 9.50098s42 2.5 62 2.5h51v14c0 34.667 -10.167 60.667 -30.5 78s-47.5 26 -81.5 26c-11.333 0 -23.166 -1.83301 -35.499 -5.5s-23.666 -9 -33.999 -16
s-18.833 -15.667 -25.5 -26s-10 -21.833 -10 -34.5h-55c4.66699 20 12.167 36.833 22.5 50.5s22.5 24.667 36.5 33s29.667 14.333 47 18s35.333 5.5 54 5.5c31.333 0 57 -3.33301 77 -10s35.667 -15.834 47 -27.501s19.333 -25.5 24 -41.5s7.66699 -33 9 -51
c0.666992 -18.667 0.333984 -37.834 -0.999023 -57.501s-2 -39.334 -2 -59.001s1.16699 -39 3.5 -58s7.83301 -37.167 16.5 -54.5h-46zM241.998 190.999c-16 0 -33.5029 -1.16797 -52.5029 -3.50098s-36.833 -6.83301 -53.5 -13.5s-30.5 -16 -41.5 -28s-16.5 -28 -16.5 -48
c0 -14 3.16699 -26.167 9.5 -36.5s14.5 -19.166 24.5 -26.499s21.333 -12.833 34 -16.5s25.334 -5.5 38.001 -5.5c20.667 0 38.834 4 54.501 12s28.834 18.667 39.501 32s18.667 28.833 24 46.5s8 36.167 8 55.5v32h-68zM254.995 388.998l-106.001 72.001
c-9.33301 6.66699 -16.166 12.167 -20.499 16.5s-6.5 9.16602 -6.5 14.499c0 6 1.83301 11.167 5.5 15.5s8.5 6.5 14.5 6.5c10 0 18.333 -3.66699 25 -11l109 -113z" />
    <glyph glyph-name="aacute" unicode="a&#x301;" horiz-adv-x="402" 
d="M326 0c-3.33301 10.667 -6.00195 20.499 -8.00195 29.499s-3.33301 18.5 -4 28.5c-18 -26 -39.167 -43.833 -63.5 -53.5s-52.5 -14.5 -84.5 -14.5c-16.667 0 -33.667 2 -51 6s-33 10.333 -47 19s-25.5 20 -34.5 34s-13.5 30.667 -13.5 50
c0 20.667 5.16699 37.834 15.5 51.501s23.833 24.834 40.5 33.501s35.667 15.334 57 20.001s42.666 7.83398 63.999 9.50098s42 2.5 62 2.5h51v14c0 34.667 -10.167 60.667 -30.5 78s-47.5 26 -81.5 26c-11.333 0 -23.166 -1.83301 -35.499 -5.5s-23.666 -9 -33.999 -16
s-18.833 -15.667 -25.5 -26s-10 -21.833 -10 -34.5h-55c4.66699 20 12.167 36.833 22.5 50.5s22.5 24.667 36.5 33s29.667 14.333 47 18s35.333 5.5 54 5.5c31.333 0 57 -3.33301 77 -10s35.667 -15.834 47 -27.501s19.333 -25.5 24 -41.5s7.66699 -33 9 -51
c0.666992 -18.667 0.333984 -37.834 -0.999023 -57.501s-2 -39.334 -2 -59.001s1.16699 -39 3.5 -58s7.83301 -37.167 16.5 -54.5h-46zM241.998 190.999c-16 0 -33.5029 -1.16797 -52.5029 -3.50098s-36.833 -6.83301 -53.5 -13.5s-30.5 -16 -41.5 -28s-16.5 -28 -16.5 -48
c0 -14 3.16699 -26.167 9.5 -36.5s14.5 -19.166 24.5 -26.499s21.333 -12.833 34 -16.5s25.334 -5.5 38.001 -5.5c20.667 0 38.834 4 54.501 12s28.834 18.667 39.501 32s18.667 28.833 24 46.5s8 36.167 8 55.5v32h-68zM123.995 387.998l108.998 112.999
c6.66699 7.33301 15 11 25 11c6.66699 0 11.834 -2.16699 15.501 -6.5s5.5 -9.5 5.5 -15.5c0 -5.33301 -2.16699 -10.166 -6.5 -14.499s-11.166 -9.83301 -20.499 -16.5l-107 -72z" />
    <glyph glyph-name="atilde" unicode="a&#x303;" horiz-adv-x="402" 
d="M326 0c-3.33301 10.667 -6.00195 20.499 -8.00195 29.499s-3.33301 18.5 -4 28.5c-18 -26 -39.167 -43.833 -63.5 -53.5s-52.5 -14.5 -84.5 -14.5c-16.667 0 -33.667 2 -51 6s-33 10.333 -47 19s-25.5 20 -34.5 34s-13.5 30.667 -13.5 50
c0 20.667 5.16699 37.834 15.5 51.501s23.833 24.834 40.5 33.501s35.667 15.334 57 20.001s42.666 7.83398 63.999 9.50098s42 2.5 62 2.5h51v14c0 34.667 -10.167 60.667 -30.5 78s-47.5 26 -81.5 26c-11.333 0 -23.166 -1.83301 -35.499 -5.5s-23.666 -9 -33.999 -16
s-18.833 -15.667 -25.5 -26s-10 -21.833 -10 -34.5h-55c4.66699 20 12.167 36.833 22.5 50.5s22.5 24.667 36.5 33s29.667 14.333 47 18s35.333 5.5 54 5.5c31.333 0 57 -3.33301 77 -10s35.667 -15.834 47 -27.501s19.333 -25.5 24 -41.5s7.66699 -33 9 -51
c0.666992 -18.667 0.333984 -37.834 -0.999023 -57.501s-2 -39.334 -2 -59.001s1.16699 -39 3.5 -58s7.83301 -37.167 16.5 -54.5h-46zM241.998 190.999c-16 0 -33.5029 -1.16797 -52.5029 -3.50098s-36.833 -6.83301 -53.5 -13.5s-30.5 -16 -41.5 -28s-16.5 -28 -16.5 -48
c0 -14 3.16699 -26.167 9.5 -36.5s14.5 -19.166 24.5 -26.499s21.333 -12.833 34 -16.5s25.334 -5.5 38.001 -5.5c20.667 0 38.834 4 54.501 12s28.834 18.667 39.501 32s18.667 28.833 24 46.5s8 36.167 8 55.5v32h-68zM77.9951 387.998
c2.66699 13.333 7.33691 25.335 14.0039 36.002c5.33301 9.33301 12.666 17.666 21.999 24.999s21.666 11 36.999 11c10.667 0 20.667 -1.83301 30 -5.5s18.166 -7.83398 26.499 -12.501s16.333 -8.83398 24 -12.501s15.167 -5.5 22.5 -5.5c8 0 14.667 2 20 6
s9.66602 8.66699 12.999 14c4 6 7.33301 12.667 10 20h16c-2.66699 -14.667 -7 -27.667 -13 -39c-5.33301 -9.33301 -12.833 -18 -22.5 -26s-22.834 -12 -39.501 -12c-11.333 0 -21.333 1.83301 -30 5.5s-16.667 7.83398 -24 12.501s-14.666 8.83398 -21.999 12.501
s-15.333 5.5 -24 5.5c-8 0 -14.833 -1.83301 -20.5 -5.5s-10.167 -7.83398 -13.5 -12.501c-4 -5.33301 -7 -11 -9 -17h-17z" />
    <glyph glyph-name="egrave" unicode="e&#x300;" horiz-adv-x="429" 
d="M88 217c-2.66699 -7.33301 -3.8291 -14.999 -3.49609 -22.999s0.5 -15.667 0.5 -23c0 -21.333 3.16699 -41.5 9.5 -60.5s15.666 -35.667 27.999 -50s27.5 -25.666 45.5 -33.999s38.333 -12.5 61 -12.5c14.667 0 29.167 2.83301 43.5 8.5s27.166 13.5 38.499 23.5
s20.666 21.667 27.999 35s11.666 27.666 12.999 42.999h49c-1.33301 -22 -7.5 -41.5 -18.5 -58.5s-24.667 -31.167 -41 -42.5s-34.333 -19.833 -54 -25.5s-39.5 -8.5 -59.5 -8.5c-26 0 -51.167 4.33301 -75.5 13s-46 20.834 -65 36.501s-34.167 34.667 -45.5 57
s-17 47.166 -17 74.499c0 28 5 53.5 15 76.5s23.667 42.833 41 59.5s37.833 29.667 61.5 39s49.5 14 77.5 14c22 0 43.5 -2.83301 64.5 -8.5s40 -14.334 57 -26.001s31.167 -26.5 42.5 -44.5s18 -39 20 -63h-316zM344.005 242.001
c-9.33301 28 -25.499 50.499 -48.499 67.499s-49.5 25.5 -79.5 25.5c-28.667 0 -53.834 -8.66699 -75.501 -26s-36.167 -39.666 -43.5 -66.999h247zM276.006 389l-106.001 72.001c-9.33301 6.66699 -16.166 12.167 -20.499 16.5s-6.5 9.16602 -6.5 14.499
c0 6 1.83301 11.167 5.5 15.5s8.5 6.5 14.5 6.5c10 0 18.333 -3.66699 25 -11l109 -113z" />
    <glyph glyph-name="eacute" unicode="e&#x301;" horiz-adv-x="429" 
d="M88 217c-2.66699 -7.33301 -3.8291 -14.999 -3.49609 -22.999s0.5 -15.667 0.5 -23c0 -21.333 3.16699 -41.5 9.5 -60.5s15.666 -35.667 27.999 -50s27.5 -25.666 45.5 -33.999s38.333 -12.5 61 -12.5c14.667 0 29.167 2.83301 43.5 8.5s27.166 13.5 38.499 23.5
s20.666 21.667 27.999 35s11.666 27.666 12.999 42.999h49c-1.33301 -22 -7.5 -41.5 -18.5 -58.5s-24.667 -31.167 -41 -42.5s-34.333 -19.833 -54 -25.5s-39.5 -8.5 -59.5 -8.5c-26 0 -51.167 4.33301 -75.5 13s-46 20.834 -65 36.501s-34.167 34.667 -45.5 57
s-17 47.166 -17 74.499c0 28 5 53.5 15 76.5s23.667 42.833 41 59.5s37.833 29.667 61.5 39s49.5 14 77.5 14c22 0 43.5 -2.83301 64.5 -8.5s40 -14.334 57 -26.001s31.167 -26.5 42.5 -44.5s18 -39 20 -63h-316zM344.005 242.001
c-9.33301 28 -25.499 50.499 -48.499 67.499s-49.5 25.5 -79.5 25.5c-28.667 0 -53.834 -8.66699 -75.501 -26s-36.167 -39.666 -43.5 -66.999h247zM145.006 390l108.998 112.999c6.66699 7.33301 15 11 25 11c6.66699 0 11.834 -2.16699 15.501 -6.5s5.5 -9.5 5.5 -15.5
c0 -5.33301 -2.16699 -10.166 -6.5 -14.499s-11.166 -9.83301 -20.499 -16.5l-107 -72z" />
    <glyph glyph-name="igrave" unicode="i&#x300;" horiz-adv-x="163" 
d="M61 0v347h39v-347h-39zM138 387l-106.001 72.001c-9.33301 6.66699 -16.166 12.167 -20.499 16.5s-6.5 9.16602 -6.5 14.499c0 6 1.83301 11.167 5.5 15.5s8.5 6.5 14.5 6.5c10 0 18.333 -3.66699 25 -11l109 -113z" />
    <glyph glyph-name="iacute" unicode="i&#x301;" horiz-adv-x="162" 
d="M61 0v347h39v-347h-39zM3 389l108.998 112.999c6.66699 7.33301 15 11 25 11c6.66699 0 11.834 -2.16699 15.501 -6.5s5.5 -9.5 5.5 -15.5c0 -5.33301 -2.16699 -10.166 -6.5 -14.499s-11.166 -9.83301 -20.499 -16.5l-107 -72z" />
    <glyph glyph-name="ograve" unicode="o&#x300;" horiz-adv-x="445" 
d="M420 173c0 -28 -5.16699 -53.332 -15.5 -75.999s-24.5 -41.834 -42.5 -57.501s-39 -27.834 -63 -36.501s-49.667 -13 -77 -13s-53 4.33301 -77 13s-44.833 20.834 -62.5 36.501s-31.667 34.834 -42 57.501s-15.5 48 -15.5 76s5.16699 53.333 15.5 76s24.5 42 42.5 58
s39 28.333 63 37s49.667 13 77 13c28 0 54 -4.16699 78 -12.5s44.833 -20.5 62.5 -36.5s31.5 -35.333 41.5 -58s15 -48.334 15 -77.001zM364 173.001c0 22.667 -2.66699 43.832 -8 63.499s-13.833 36.5 -25.5 50.5s-26.334 25 -44.001 33s-38.834 12 -63.501 12
c-25.333 0 -46.833 -4 -64.5 -12s-32.167 -19 -43.5 -33s-19.666 -30.667 -24.999 -50s-8 -40.333 -8 -63s2.66699 -43.667 8 -63s13.833 -36.166 25.5 -50.499s26.334 -25.5 44.001 -33.5s39.167 -12 64.5 -12c24.667 0 45.834 4 63.501 12s32.167 19 43.5 33
s19.666 30.667 24.999 50s8 40.333 8 63zM281 386.999l-106.001 72.001c-9.33301 6.66699 -16.166 12.167 -20.499 16.5s-6.5 9.16602 -6.5 14.499c0 6 1.83301 11.167 5.5 15.5s8.5 6.5 14.5 6.5c10 0 18.333 -3.66699 25 -11l109 -113z" />
    <glyph glyph-name="oacute" unicode="o&#x301;" horiz-adv-x="445" 
d="M420 173c0 -28 -5.16699 -53.332 -15.5 -75.999s-24.5 -41.834 -42.5 -57.501s-39 -27.834 -63 -36.501s-49.667 -13 -77 -13s-53 4.33301 -77 13s-44.833 20.834 -62.5 36.501s-31.667 34.834 -42 57.501s-15.5 48 -15.5 76s5.16699 53.333 15.5 76s24.5 42 42.5 58
s39 28.333 63 37s49.667 13 77 13c28 0 54 -4.16699 78 -12.5s44.833 -20.5 62.5 -36.5s31.5 -35.333 41.5 -58s15 -48.334 15 -77.001zM364 173.001c0 22.667 -2.66699 43.832 -8 63.499s-13.833 36.5 -25.5 50.5s-26.334 25 -44.001 33s-38.834 12 -63.501 12
c-25.333 0 -46.833 -4 -64.5 -12s-32.167 -19 -43.5 -33s-19.666 -30.667 -24.999 -50s-8 -40.333 -8 -63s2.66699 -43.667 8 -63s13.833 -36.166 25.5 -50.499s26.334 -25.5 44.001 -33.5s39.167 -12 64.5 -12c24.667 0 45.834 4 63.501 12s32.167 19 43.5 33
s19.666 30.667 24.999 50s8 40.333 8 63zM153 388.999l108.998 112.999c6.66699 7.33301 15 11 25 11c6.66699 0 11.834 -2.16699 15.501 -6.5s5.5 -9.5 5.5 -15.5c0 -5.33301 -2.16699 -10.166 -6.5 -14.499s-11.166 -9.83301 -20.499 -16.5l-107 -72z" />
    <glyph glyph-name="otilde" unicode="o&#x303;" horiz-adv-x="445" 
d="M420 173c0 -28 -5.16699 -53.332 -15.5 -75.999s-24.5 -41.834 -42.5 -57.501s-39 -27.834 -63 -36.501s-49.667 -13 -77 -13s-53 4.33301 -77 13s-44.833 20.834 -62.5 36.501s-31.667 34.834 -42 57.501s-15.5 48 -15.5 76s5.16699 53.333 15.5 76s24.5 42 42.5 58
s39 28.333 63 37s49.667 13 77 13c28 0 54 -4.16699 78 -12.5s44.833 -20.5 62.5 -36.5s31.5 -35.333 41.5 -58s15 -48.334 15 -77.001zM364 173.001c0 22.667 -2.66699 43.832 -8 63.499s-13.833 36.5 -25.5 50.5s-26.334 25 -44.001 33s-38.834 12 -63.501 12
c-25.333 0 -46.833 -4 -64.5 -12s-32.167 -19 -43.5 -33s-19.666 -30.667 -24.999 -50s-8 -40.333 -8 -63s2.66699 -43.667 8 -63s13.833 -36.166 25.5 -50.499s26.334 -25.5 44.001 -33.5s39.167 -12 64.5 -12c24.667 0 45.834 4 63.501 12s32.167 19 43.5 33
s19.666 30.667 24.999 50s8 40.333 8 63zM107 387.999c2.66699 13.333 7.33691 25.335 14.0039 36.002c5.33301 9.33301 12.666 17.666 21.999 24.999s21.666 11 36.999 11c10.667 0 20.667 -1.83301 30 -5.5s18.166 -7.83398 26.499 -12.501s16.333 -8.83398 24 -12.501
s15.167 -5.5 22.5 -5.5c8 0 14.667 2 20 6s9.66602 8.66699 12.999 14c4 6 7.33301 12.667 10 20h16c-2.66699 -14.667 -7 -27.667 -13 -39c-5.33301 -9.33301 -12.833 -18 -22.5 -26s-22.834 -12 -39.501 -12c-11.333 0 -21.333 1.83301 -30 5.5
s-16.667 7.83398 -24 12.501s-14.666 8.83398 -21.999 12.501s-15.333 5.5 -24 5.5c-8 0 -14.833 -1.83301 -20.5 -5.5s-10.167 -7.83398 -13.5 -12.501c-4 -5.33301 -7 -11 -9 -17h-17z" />
    <glyph glyph-name="ugrave" unicode="u&#x300;" horiz-adv-x="460" 
d="M328 0l-0.000976562 65c-11.333 -21.333 -28.666 -39.333 -51.999 -54s-47 -22 -71 -22c-19.333 0 -38.666 2.16699 -57.999 6.5s-36.5 11.333 -51.5 21s-27.167 22.334 -36.5 38.001s-14 34.834 -14 57.501v236h48v-242c0 -15.333 3.16699 -28.833 9.5 -40.5
s14.666 -21.334 24.999 -29.001s22.166 -13.334 35.499 -17.001s27.333 -5.5 42 -5.5c18.667 0 35.667 3.83301 51 11.5s28.333 18 39 31s18.834 27.833 24.501 44.5s8.5 33.667 8.5 51v196h46v-348h-46zM267.999 388l-106.001 72.001
c-9.33301 6.66699 -16.166 12.167 -20.499 16.5s-6.5 9.16602 -6.5 14.499c0 6 1.83301 11.167 5.5 15.5s8.5 6.5 14.5 6.5c10 0 18.333 -3.66699 25 -11l109 -113z" />
    <glyph glyph-name="uacute" unicode="u&#x301;" horiz-adv-x="419" 
d="M328 0l-0.000976562 65c-11.333 -21.333 -28.666 -39.333 -51.999 -54s-47 -22 -71 -22c-19.333 0 -38.666 2.16699 -57.999 6.5s-36.5 11.333 -51.5 21s-27.167 22.334 -36.5 38.001s-14 34.834 -14 57.501v236h48v-242c0 -15.333 3.16699 -28.833 9.5 -40.5
s14.666 -21.334 24.999 -29.001s22.166 -13.334 35.499 -17.001s27.333 -5.5 42 -5.5c18.667 0 35.667 3.83301 51 11.5s28.333 18 39 31s18.834 27.833 24.501 44.5s8.5 33.667 8.5 51v196h46v-348h-46zM134.999 388l108.998 112.999c6.66699 7.33301 15 11 25 11
c6.66699 0 11.834 -2.16699 15.501 -6.5s5.5 -9.5 5.5 -15.5c0 -5.33301 -2.16699 -10.166 -6.5 -14.499s-11.166 -9.83301 -20.499 -16.5l-107 -72z" />
    <glyph glyph-name="yacute" unicode="y&#x301;" horiz-adv-x="381" 
d="M69 -132c-9.33301 0 -19.6699 1.33301 -31.0029 4s-21.666 7.33398 -30.999 14.001l21 36c6.66699 -8.66699 13.5 -14.5 20.5 -17.5s14.833 -4.5 23.5 -4.5c11.333 0 22.833 3.33301 34.5 10s22.334 15.167 32.001 25.5s17.5 21.666 23.5 33.999s9 23.833 9 34.5
c0 7.33301 -1.16699 14.333 -3.5 21s-5.16602 13.667 -8.49902 21l-156 302h52l150 -289l145 289h28l-180 -358c-8 -15.333 -16.5 -30.333 -25.5 -45s-19 -27.667 -30 -39s-22.5 -20.5 -34.5 -27.5s-25 -10.5 -39 -10.5zM123.996 389l108.998 112.999
c6.66699 7.33301 15 11 25 11c6.66699 0 11.834 -2.16699 15.501 -6.5s5.5 -9.5 5.5 -15.5c0 -5.33301 -2.16699 -10.166 -6.5 -14.499s-11.166 -9.83301 -20.499 -16.5l-107 -72z" />
    <glyph glyph-name="Itilde" unicode="I&#x303;" horiz-adv-x="162" 
d="M53 0v467h54v-467h-54zM-41 498c2.66699 13.333 7.33691 25.333 14.0039 36c5.33301 9.33301 12.666 17.666 21.999 24.999s21.666 11 36.999 11c10.667 0 20.667 -1.83301 30 -5.5s18.166 -7.66699 26.499 -12l24 -12c7.66699 -3.66699 15.167 -5.5 22.5 -5.5
c8 0 14.667 2 20 6s9.66602 8.66699 12.999 14c4 6 7.33301 12.667 10 20h16c-2.66699 -14.667 -7 -27.667 -13 -39c-5.33301 -9.33301 -12.833 -18 -22.5 -26s-22.834 -12 -39.501 -12c-11.333 0 -21.333 1.83301 -30 5.5s-16.667 7.83398 -24 12.501
s-14.666 8.83398 -21.999 12.501s-15.333 5.5 -24 5.5c-8 0 -14.833 -1.83301 -20.5 -5.5s-10.167 -7.83398 -13.5 -12.501c-4 -5.33301 -7 -11.333 -9 -18h-17z" />
    <glyph glyph-name="itilde" unicode="i&#x303;" horiz-adv-x="184" 
d="M61 0v347h39v-347h-39zM-37 387c2.66699 13.333 7.33691 25.333 14.0039 36c5.33301 9.33301 12.666 17.666 21.999 24.999s21.666 11 36.999 11c10.667 0 20.667 -1.83301 30 -5.5s18.166 -7.66699 26.499 -12l24 -12c7.66699 -3.66699 15.167 -5.5 22.5 -5.5
c8 0 14.667 2 20 6s9.66602 8.66699 12.999 14c4 6 7.33301 12.667 10 20h16c-2.66699 -14.667 -7 -27.667 -13 -39c-5.33301 -9.33301 -12.833 -18 -22.5 -26s-22.834 -12 -39.501 -12c-11.333 0 -21.333 1.83301 -30 5.5s-16.667 7.83398 -24 12.501
s-14.666 8.83398 -21.999 12.501s-15.333 5.5 -24 5.5c-8 0 -14.833 -1.83301 -20.5 -5.5s-10.167 -7.83398 -13.5 -12.501c-4 -5.33301 -7 -11.333 -9 -18h-17z" />
    <glyph glyph-name="Utilde" unicode="U&#x303;" horiz-adv-x="593" 
d="M526 190c0 -36 -6.16602 -66.833 -18.499 -92.5s-29.166 -47 -50.499 -64s-46.5 -29.5 -75.5 -37.5s-59.833 -12 -92.5 -12s-63.334 4 -92.001 12s-53.667 20.5 -75 37.5s-38.166 38.5 -50.499 64.5s-18.5 56.667 -18.5 92v277h54v-288c0 -26.667 4.66699 -50.667 14 -72
s22.166 -39.5 38.499 -54.5s35.5 -26.5 57.5 -34.5s46 -12 72 -12s50.167 4 72.5 12s41.666 19.5 57.999 34.5s29.333 33.167 39 54.5s14.5 45.333 14.5 72v288h53v-277v0zM176.001 501c2.66699 13.333 7.33691 25.333 14.0039 36
c5.33301 9.33301 12.666 17.666 21.999 24.999s21.666 11 36.999 11c10.667 0 20.667 -1.83301 30 -5.5s18.166 -7.66699 26.499 -12l24 -12c7.66699 -3.66699 15.167 -5.5 22.5 -5.5c8 0 14.667 2 20 6s9.66602 8.66699 12.999 14c4 6 7.33301 12.667 10 20h16
c-2.66699 -14.667 -7 -27.667 -13 -39c-5.33301 -9.33301 -12.833 -18 -22.5 -26s-22.834 -12 -39.501 -12c-11.333 0 -21.333 1.83301 -30 5.5s-16.667 7.83398 -24 12.501s-14.666 8.83398 -21.999 12.501s-15.333 5.5 -24 5.5c-8 0 -14.833 -1.83301 -20.5 -5.5
s-10.167 -7.83398 -13.5 -12.501c-4 -5.33301 -7 -11.333 -9 -18h-17z" />
    <glyph glyph-name="utilde" unicode="u&#x303;" horiz-adv-x="457" 
d="M328 0l-0.000976562 65c-11.333 -21.333 -28.666 -39.333 -51.999 -54s-47 -22 -71 -22c-19.333 0 -38.666 2.16699 -57.999 6.5s-36.5 11.333 -51.5 21s-27.167 22.334 -36.5 38.001s-14 34.834 -14 57.501v236h48v-242c0 -15.333 3.16699 -28.833 9.5 -40.5
s14.666 -21.334 24.999 -29.001s22.166 -13.334 35.499 -17.001s27.333 -5.5 42 -5.5c18.667 0 35.667 3.83301 51 11.5s28.333 18 39 31s18.834 27.833 24.501 44.5s8.5 33.667 8.5 51v196h46v-348h-46zM97.999 388c2.66699 13.333 7.33691 25.333 14.0039 36
c5.33301 9.33301 12.666 17.666 21.999 24.999s21.666 11 36.999 11c10.667 0 20.667 -1.83301 30 -5.5s18.166 -7.66699 26.499 -12l24 -12c7.66699 -3.66699 15.167 -5.5 22.5 -5.5c8 0 14.667 2 20 6s9.66602 8.66699 12.999 14c4 6 7.33301 12.667 10 20h16
c-2.66699 -14.667 -7 -27.667 -13 -39c-5.33301 -9.33301 -12.833 -18 -22.5 -26s-22.834 -12 -39.501 -12c-11.333 0 -21.333 1.83301 -30 5.5s-16.667 7.83398 -24 12.501s-14.666 8.83398 -21.999 12.501s-15.333 5.5 -24 5.5c-8 0 -14.833 -1.83301 -20.5 -5.5
s-10.167 -7.83398 -13.5 -12.501c-4 -5.33301 -7 -11.333 -9 -18h-17z" />
    <glyph glyph-name="uni1EA0" unicode="A&#x323;" horiz-adv-x="524" 
d="M461 0l-126 239h-176l-127 -239h-32l264 482h11l249 -482h-63zM251 409l-78 -146h151zM219 -76c0 9.33301 3.16699 17.5 9.5 24.5s14.833 10.5 25.5 10.5c10 0 18.167 -3.5 24.5 -10.5s9.5 -15.167 9.5 -24.5s-3.16699 -17.333 -9.5 -24s-14.5 -10 -24.5 -10
c-10.667 0 -19.167 3.33301 -25.5 10s-9.5 14.667 -9.5 24z" />
    <glyph glyph-name="uni1EA1" unicode="a&#x323;" horiz-adv-x="397" 
d="M326 0c-3.33301 10.667 -6.00195 20.499 -8.00195 29.499s-3.33301 18.5 -4 28.5c-18 -26 -39.167 -43.833 -63.5 -53.5s-52.5 -14.5 -84.5 -14.5c-16.667 0 -33.667 2 -51 6s-33 10.333 -47 19s-25.5 20 -34.5 34s-13.5 30.667 -13.5 50
c0 20.667 5.16699 37.834 15.5 51.501s23.833 24.834 40.5 33.501s35.667 15.334 57 20.001s42.666 7.83398 63.999 9.50098s42 2.5 62 2.5h51v14c0 34.667 -10.167 60.667 -30.5 78s-47.5 26 -81.5 26c-11.333 0 -23.166 -1.83301 -35.499 -5.5s-23.666 -9 -33.999 -16
s-18.833 -15.667 -25.5 -26s-10 -21.833 -10 -34.5h-55c4.66699 20 12.167 36.833 22.5 50.5s22.5 24.667 36.5 33s29.667 14.333 47 18s35.333 5.5 54 5.5c31.333 0 57 -3.33301 77 -10s35.667 -15.834 47 -27.501s19.333 -25.5 24 -41.5s7.66699 -33 9 -51
c0.666992 -18.667 0.333984 -37.834 -0.999023 -57.501s-2 -39.334 -2 -59.001s1.16699 -39 3.5 -58s7.83301 -37.167 16.5 -54.5h-46zM241.998 190.999c-16 0 -33.5029 -1.16797 -52.5029 -3.50098s-36.833 -6.83301 -53.5 -13.5s-30.5 -16 -41.5 -28s-16.5 -28 -16.5 -48
c0 -14 3.16699 -26.167 9.5 -36.5s14.5 -19.166 24.5 -26.499s21.333 -12.833 34 -16.5s25.334 -5.5 38.001 -5.5c20.667 0 38.834 4 54.501 12s28.834 18.667 39.501 32s18.667 28.833 24 46.5s8 36.167 8 55.5v32h-68zM184.995 -76.002c0 9.33301 3.16699 17.5 9.5 24.5
s14.833 10.5 25.5 10.5c10 0 18.167 -3.5 24.5 -10.5s9.5 -15.167 9.5 -24.5s-3.16699 -17.333 -9.5 -24s-14.5 -10 -24.5 -10c-10.667 0 -19.167 3.33301 -25.5 10s-9.5 14.667 -9.5 24z" />
    <glyph glyph-name="uni1EA2" unicode="A&#x309;" horiz-adv-x="524" 
d="M461 0l-126 239h-176l-127 -239h-32l264 482h11l249 -482h-63zM251 409l-78 -146h151zM257 513c1.33301 17.333 5.66895 31.1689 13.002 41.502s14.666 19.166 21.999 26.499c6 6 11.833 12.167 17.5 18.5s8.5 14.166 8.5 23.499c0 16 -3.16699 29.333 -9.5 40
s-18.166 16 -35.499 16c-19.333 0 -32.333 -7.16699 -39 -21.5s-10 -30.166 -10 -47.499h-34c0 26.667 7.66699 47.5 23 62.5s35.666 22.5 60.999 22.5c22 0 41.833 -6 59.5 -18s26.5 -30.333 26.5 -55c0 -13.333 -4.33301 -24.5 -13 -33.5s-18.334 -17.5 -29.001 -25.5
c-8 -6.66699 -16 -13.834 -24 -21.501s-14 -17.167 -18 -28.5h-19z" />
    <glyph glyph-name="uni1EA3" unicode="a&#x309;" horiz-adv-x="402" 
d="M326 0c-3.33301 10.667 -6.00195 20.499 -8.00195 29.499s-3.33301 18.5 -4 28.5c-18 -26 -39.167 -43.833 -63.5 -53.5s-52.5 -14.5 -84.5 -14.5c-16.667 0 -33.667 2 -51 6s-33 10.333 -47 19s-25.5 20 -34.5 34s-13.5 30.667 -13.5 50
c0 20.667 5.16699 37.834 15.5 51.501s23.833 24.834 40.5 33.501s35.667 15.334 57 20.001s42.666 7.83398 63.999 9.50098s42 2.5 62 2.5h51v14c0 34.667 -10.167 60.667 -30.5 78s-47.5 26 -81.5 26c-11.333 0 -23.166 -1.83301 -35.499 -5.5s-23.666 -9 -33.999 -16
s-18.833 -15.667 -25.5 -26s-10 -21.833 -10 -34.5h-55c4.66699 20 12.167 36.833 22.5 50.5s22.5 24.667 36.5 33s29.667 14.333 47 18s35.333 5.5 54 5.5c31.333 0 57 -3.33301 77 -10s35.667 -15.834 47 -27.501s19.333 -25.5 24 -41.5s7.66699 -33 9 -51
c0.666992 -18.667 0.333984 -37.834 -0.999023 -57.501s-2 -39.334 -2 -59.001s1.16699 -39 3.5 -58s7.83301 -37.167 16.5 -54.5h-46zM241.998 190.999c-16 0 -33.5029 -1.16797 -52.5029 -3.50098s-36.833 -6.83301 -53.5 -13.5s-30.5 -16 -41.5 -28s-16.5 -28 -16.5 -48
c0 -14 3.16699 -26.167 9.5 -36.5s14.5 -19.166 24.5 -26.499s21.333 -12.833 34 -16.5s25.334 -5.5 38.001 -5.5c20.667 0 38.834 4 54.501 12s28.834 18.667 39.501 32s18.667 28.833 24 46.5s8 36.167 8 55.5v32h-68zM177.995 385.998
c1.33301 17.333 5.66895 31.1689 13.002 41.502s14.666 19.166 21.999 26.499c6 6 11.833 12.167 17.5 18.5s8.5 14.166 8.5 23.499c0 16 -3.16699 29.333 -9.5 40s-18.166 16 -35.499 16c-19.333 0 -32.333 -7.16699 -39 -21.5s-10 -30.166 -10 -47.499h-34
c0 26.667 7.66699 47.5 23 62.5s35.666 22.5 60.999 22.5c22 0 41.833 -6 59.5 -18s26.5 -30.333 26.5 -55c0 -13.333 -4.33301 -24.5 -13 -33.5s-18.334 -17.5 -29.001 -25.5c-8 -6.66699 -16 -13.834 -24 -21.501s-14 -17.167 -18 -28.5h-19z" />
    <glyph glyph-name="uni1EA4" unicode="&#xc2;&#x301;" horiz-adv-x="524" 
d="M461 0l-126 239h-176l-127 -239h-32l264 482h11l249 -482h-63zM251 409l-78 -146h151zM357 500l-89 79l-88 -79h-21l88 121h43l87 -121h-20zM349 576l108.998 112.999c6.66699 7.33301 15 11 25 11c6.66699 0 11.834 -2.16699 15.501 -6.5s5.5 -9.5 5.5 -15.5
c0 -5.33301 -2.16699 -10.166 -6.5 -14.499s-11.166 -9.83301 -20.499 -16.5l-107 -72z" />
    <glyph glyph-name="uni1EA5" unicode="&#xe2;&#x301;" horiz-adv-x="411" 
d="M326 0c-3.33301 10.667 -6.00195 20.499 -8.00195 29.499s-3.33301 18.5 -4 28.5c-18 -26 -39.167 -43.833 -63.5 -53.5s-52.5 -14.5 -84.5 -14.5c-16.667 0 -33.667 2 -51 6s-33 10.333 -47 19s-25.5 20 -34.5 34s-13.5 30.667 -13.5 50
c0 20.667 5.16699 37.834 15.5 51.501s23.833 24.834 40.5 33.501s35.667 15.334 57 20.001s42.666 7.83398 63.999 9.50098s42 2.5 62 2.5h51v14c0 34.667 -10.167 60.667 -30.5 78s-47.5 26 -81.5 26c-11.333 0 -23.166 -1.83301 -35.499 -5.5s-23.666 -9 -33.999 -16
s-18.833 -15.667 -25.5 -26s-10 -21.833 -10 -34.5h-55c4.66699 20 12.167 36.833 22.5 50.5s22.5 24.667 36.5 33s29.667 14.333 47 18s35.333 5.5 54 5.5c31.333 0 57 -3.33301 77 -10s35.667 -15.834 47 -27.501s19.333 -25.5 24 -41.5s7.66699 -33 9 -51
c0.666992 -18.667 0.333984 -37.834 -0.999023 -57.501s-2 -39.334 -2 -59.001s1.16699 -39 3.5 -58s7.83301 -37.167 16.5 -54.5h-46zM241.998 190.999c-16 0 -33.5029 -1.16797 -52.5029 -3.50098s-36.833 -6.83301 -53.5 -13.5s-30.5 -16 -41.5 -28s-16.5 -28 -16.5 -48
c0 -14 3.16699 -26.167 9.5 -36.5s14.5 -19.166 24.5 -26.499s21.333 -12.833 34 -16.5s25.334 -5.5 38.001 -5.5c20.667 0 38.834 4 54.501 12s28.834 18.667 39.501 32s18.667 28.833 24 46.5s8 36.167 8 55.5v32h-68zM282.995 385.998l-89 79l-88 -79h-21l88 121h43
l87 -121h-20zM272.995 468.998l108.998 112.999c6.66699 7.33301 15 11 25 11c6.66699 0 11.834 -2.16699 15.501 -6.5s5.5 -9.5 5.5 -15.5c0 -5.33301 -2.16699 -10.166 -6.5 -14.499s-11.166 -9.83301 -20.499 -16.5l-107 -72z" />
    <glyph glyph-name="uni1EA6" unicode="&#xc2;&#x300;" horiz-adv-x="524" 
d="M461 0l-126 239h-176l-127 -239h-32l264 482h11l249 -482h-63zM251 409l-78 -146h151zM351 497l-89 79l-88 -79h-21l88 121h43l87 -121h-20zM367 578l-106.001 72.001c-9.33301 6.66699 -16.166 12.167 -20.499 16.5s-6.5 9.16602 -6.5 14.499
c0 6 1.83301 11.167 5.5 15.5s8.5 6.5 14.5 6.5c10 0 18.333 -3.66699 25 -11l109 -113z" />
    <glyph glyph-name="uni1EA7" unicode="&#xe2;&#x300;" horiz-adv-x="445" 
d="M369 0c-3.33301 10.667 -6.00195 20.499 -8.00195 29.499s-3.33301 18.5 -4 28.5c-18 -26 -39.167 -43.833 -63.5 -53.5s-52.5 -14.5 -84.5 -14.5c-16.667 0 -33.667 2 -51 6s-33 10.333 -47 19s-25.5 20 -34.5 34s-13.5 30.667 -13.5 50
c0 20.667 5.16699 37.834 15.5 51.501s23.833 24.834 40.5 33.501s35.667 15.334 57 20.001s42.666 7.83398 63.999 9.50098s42 2.5 62 2.5h51v14c0 34.667 -10.167 60.667 -30.5 78s-47.5 26 -81.5 26c-11.333 0 -23.166 -1.83301 -35.499 -5.5s-23.666 -9 -33.999 -16
s-18.833 -15.667 -25.5 -26s-10 -21.833 -10 -34.5h-55c4.66699 20 12.167 36.833 22.5 50.5s22.5 24.667 36.5 33s29.667 14.333 47 18s35.333 5.5 54 5.5c31.333 0 57 -3.33301 77 -10s35.667 -15.834 47 -27.501s19.333 -25.5 24 -41.5s7.66699 -33 9 -51
c0.666992 -18.667 0.333984 -37.834 -0.999023 -57.501s-2 -39.334 -2 -59.001s1.16699 -39 3.5 -58s7.83301 -37.167 16.5 -54.5h-46zM284.998 190.999c-16 0 -33.5029 -1.16797 -52.5029 -3.50098s-36.833 -6.83301 -53.5 -13.5s-30.5 -16 -41.5 -28s-16.5 -28 -16.5 -48
c0 -14 3.16699 -26.167 9.5 -36.5s14.5 -19.166 24.5 -26.499s21.333 -12.833 34 -16.5s25.334 -5.5 38.001 -5.5c20.667 0 38.834 4 54.501 12s28.834 18.667 39.501 32s18.667 28.833 24 46.5s8 36.167 8 55.5v32h-68zM324.995 384.998l-89 79l-88 -79h-21l88 121h43
l87 -121h-20zM346.995 466.998l-106.001 72.001c-9.33301 6.66699 -16.166 12.167 -20.499 16.5s-6.5 9.16602 -6.5 14.499c0 6 1.83301 11.167 5.5 15.5s8.5 6.5 14.5 6.5c10 0 18.333 -3.66699 25 -11l109 -113z" />
    <glyph glyph-name="uni1EA8" unicode="&#xc2;&#x309;" horiz-adv-x="524" 
d="M461 0l-126 239h-176l-127 -239h-32l264 482h11l249 -482h-63zM251 409l-78 -146h151zM360 503l-89 79l-88 -79h-21l88 121h43l87 -121h-20zM365 578c1.33301 17.333 5.66895 31.1689 13.002 41.502s14.666 19.166 21.999 26.499c6 6 11.833 12.167 17.5 18.5
s8.5 14.166 8.5 23.499c0 16 -3.16699 29.333 -9.5 40s-18.166 16 -35.499 16c-19.333 0 -32.333 -7.16699 -39 -21.5s-10 -30.166 -10 -47.499h-34c0 26.667 7.66699 47.5 23 62.5s35.666 22.5 60.999 22.5c22 0 41.833 -6 59.5 -18s26.5 -30.333 26.5 -55
c0 -13.333 -4.33301 -24.5 -13 -33.5s-18.334 -17.5 -29.001 -25.5c-8 -6.66699 -16 -13.834 -24 -21.501s-14 -17.167 -18 -28.5h-19z" />
    <glyph glyph-name="uni1EA9" unicode="&#xe2;&#x309;" horiz-adv-x="416" 
d="M326 0c-3.33301 10.667 -6.00195 20.499 -8.00195 29.499s-3.33301 18.5 -4 28.5c-18 -26 -39.167 -43.833 -63.5 -53.5s-52.5 -14.5 -84.5 -14.5c-16.667 0 -33.667 2 -51 6s-33 10.333 -47 19s-25.5 20 -34.5 34s-13.5 30.667 -13.5 50
c0 20.667 5.16699 37.834 15.5 51.501s23.833 24.834 40.5 33.501s35.667 15.334 57 20.001s42.666 7.83398 63.999 9.50098s42 2.5 62 2.5h51v14c0 34.667 -10.167 60.667 -30.5 78s-47.5 26 -81.5 26c-11.333 0 -23.166 -1.83301 -35.499 -5.5s-23.666 -9 -33.999 -16
s-18.833 -15.667 -25.5 -26s-10 -21.833 -10 -34.5h-55c4.66699 20 12.167 36.833 22.5 50.5s22.5 24.667 36.5 33s29.667 14.333 47 18s35.333 5.5 54 5.5c31.333 0 57 -3.33301 77 -10s35.667 -15.834 47 -27.501s19.333 -25.5 24 -41.5s7.66699 -33 9 -51
c0.666992 -18.667 0.333984 -37.834 -0.999023 -57.501s-2 -39.334 -2 -59.001s1.16699 -39 3.5 -58s7.83301 -37.167 16.5 -54.5h-46zM241.998 190.999c-16 0 -33.5029 -1.16797 -52.5029 -3.50098s-36.833 -6.83301 -53.5 -13.5s-30.5 -16 -41.5 -28s-16.5 -28 -16.5 -48
c0 -14 3.16699 -26.167 9.5 -36.5s14.5 -19.166 24.5 -26.499s21.333 -12.833 34 -16.5s25.334 -5.5 38.001 -5.5c20.667 0 38.834 4 54.501 12s28.834 18.667 39.501 32s18.667 28.833 24 46.5s8 36.167 8 55.5v32h-68zM281.995 388.998l-89 79l-88 -79h-21l88 121h43
l87 -121h-20zM274.995 466.998c1.33301 17.333 5.66895 31.1689 13.002 41.502s14.666 19.166 21.999 26.499c6 6 11.833 12.167 17.5 18.5s8.5 14.166 8.5 23.499c0 16 -3.16699 29.333 -9.5 40s-18.166 16 -35.499 16c-19.333 0 -32.333 -7.16699 -39 -21.5
s-10 -30.166 -10 -47.499h-34c0 26.667 7.66699 47.5 23 62.5s35.666 22.5 60.999 22.5c22 0 41.833 -6 59.5 -18s26.5 -30.333 26.5 -55c0 -13.333 -4.33301 -24.5 -13 -33.5s-18.334 -17.5 -29.001 -25.5c-8 -6.66699 -16 -13.834 -24 -21.501s-14 -17.167 -18 -28.5h-19z
" />
    <glyph glyph-name="uni1EAA" unicode="&#xc2;&#x303;" horiz-adv-x="524" 
d="M461 0l-126 239h-176l-127 -239h-32l264 482h11l249 -482h-63zM251 409l-78 -146h151zM351 498l-89 79l-88 -79h-21l88 121h43l87 -121h-20zM156 641c2.66699 13.333 7.33691 25.335 14.0039 36.002c5.33301 9.33301 12.666 17.666 21.999 24.999s21.666 11 36.999 11
c10.667 0 20.667 -1.83301 30 -5.5s18.166 -7.83398 26.499 -12.501s16.333 -8.83398 24 -12.501s15.167 -5.5 22.5 -5.5c8 0 14.667 2 20 6s9.66602 8.66699 12.999 14c4 6 7.33301 12.667 10 20h16c-2.66699 -14.667 -7 -27.667 -13 -39
c-5.33301 -9.33301 -12.833 -18 -22.5 -26s-22.834 -12 -39.501 -12c-11.333 0 -21.333 1.83301 -30 5.5s-16.667 7.83398 -24 12.501s-14.666 8.83398 -21.999 12.501s-15.333 5.5 -24 5.5c-8 0 -14.833 -1.83301 -20.5 -5.5s-10.167 -7.83398 -13.5 -12.501
c-4 -5.33301 -7 -11 -9 -17h-17z" />
    <glyph glyph-name="uni1EAB" unicode="&#xe2;&#x303;" horiz-adv-x="402" 
d="M326 0c-3.33301 10.667 -6.00195 20.499 -8.00195 29.499s-3.33301 18.5 -4 28.5c-18 -26 -39.167 -43.833 -63.5 -53.5s-52.5 -14.5 -84.5 -14.5c-16.667 0 -33.667 2 -51 6s-33 10.333 -47 19s-25.5 20 -34.5 34s-13.5 30.667 -13.5 50
c0 20.667 5.16699 37.834 15.5 51.501s23.833 24.834 40.5 33.501s35.667 15.334 57 20.001s42.666 7.83398 63.999 9.50098s42 2.5 62 2.5h51v14c0 34.667 -10.167 60.667 -30.5 78s-47.5 26 -81.5 26c-11.333 0 -23.166 -1.83301 -35.499 -5.5s-23.666 -9 -33.999 -16
s-18.833 -15.667 -25.5 -26s-10 -21.833 -10 -34.5h-55c4.66699 20 12.167 36.833 22.5 50.5s22.5 24.667 36.5 33s29.667 14.333 47 18s35.333 5.5 54 5.5c31.333 0 57 -3.33301 77 -10s35.667 -15.834 47 -27.501s19.333 -25.5 24 -41.5s7.66699 -33 9 -51
c0.666992 -18.667 0.333984 -37.834 -0.999023 -57.501s-2 -39.334 -2 -59.001s1.16699 -39 3.5 -58s7.83301 -37.167 16.5 -54.5h-46zM241.998 190.999c-16 0 -33.5029 -1.16797 -52.5029 -3.50098s-36.833 -6.83301 -53.5 -13.5s-30.5 -16 -41.5 -28s-16.5 -28 -16.5 -48
c0 -14 3.16699 -26.167 9.5 -36.5s14.5 -19.166 24.5 -26.499s21.333 -12.833 34 -16.5s25.334 -5.5 38.001 -5.5c20.667 0 38.834 4 54.501 12s28.834 18.667 39.501 32s18.667 28.833 24 46.5s8 36.167 8 55.5v32h-68zM285.995 383.998l-89 79l-88 -79h-21l88 121h43
l87 -121h-20zM81.9951 529.998c2.66699 13.333 7.33691 25.335 14.0039 36.002c5.33301 9.33301 12.666 17.666 21.999 24.999s21.666 11 36.999 11c10.667 0 20.667 -1.83301 30 -5.5s18.166 -7.83398 26.499 -12.501s16.333 -8.83398 24 -12.501s15.167 -5.5 22.5 -5.5
c8 0 14.667 2 20 6s9.66602 8.66699 12.999 14c4 6 7.33301 12.667 10 20h16c-2.66699 -14.667 -7 -27.667 -13 -39c-5.33301 -9.33301 -12.833 -18 -22.5 -26s-22.834 -12 -39.501 -12c-11.333 0 -21.333 1.83301 -30 5.5s-16.667 7.83398 -24 12.501
s-14.666 8.83398 -21.999 12.501s-15.333 5.5 -24 5.5c-8 0 -14.833 -1.83301 -20.5 -5.5s-10.167 -7.83398 -13.5 -12.501c-4 -5.33301 -7 -11 -9 -17h-17z" />
    <glyph glyph-name="uni1EAC" unicode="&#xc2;&#x323;" horiz-adv-x="524" 
d="M461 0l-126 239h-176l-127 -239h-32l264 482h11l249 -482h-63zM251 409l-78 -146h151zM219 -76c0 9.33301 3.16699 17.5 9.5 24.5s14.833 10.5 25.5 10.5c10 0 18.167 -3.5 24.5 -10.5s9.5 -15.167 9.5 -24.5s-3.16699 -17.333 -9.5 -24s-14.5 -10 -24.5 -10
c-10.667 0 -19.167 3.33301 -25.5 10s-9.5 14.667 -9.5 24zM355 495l-89 79l-88 -79h-21l88 121h43l87 -121h-20z" />
    <glyph glyph-name="uni1EAD" unicode="&#xe2;&#x323;" horiz-adv-x="402" 
d="M326 0c-3.33301 10.667 -6.00195 20.499 -8.00195 29.499s-3.33301 18.5 -4 28.5c-18 -26 -39.167 -43.833 -63.5 -53.5s-52.5 -14.5 -84.5 -14.5c-16.667 0 -33.667 2 -51 6s-33 10.333 -47 19s-25.5 20 -34.5 34s-13.5 30.667 -13.5 50
c0 20.667 5.16699 37.834 15.5 51.501s23.833 24.834 40.5 33.501s35.667 15.334 57 20.001s42.666 7.83398 63.999 9.50098s42 2.5 62 2.5h51v14c0 34.667 -10.167 60.667 -30.5 78s-47.5 26 -81.5 26c-11.333 0 -23.166 -1.83301 -35.499 -5.5s-23.666 -9 -33.999 -16
s-18.833 -15.667 -25.5 -26s-10 -21.833 -10 -34.5h-55c4.66699 20 12.167 36.833 22.5 50.5s22.5 24.667 36.5 33s29.667 14.333 47 18s35.333 5.5 54 5.5c31.333 0 57 -3.33301 77 -10s35.667 -15.834 47 -27.501s19.333 -25.5 24 -41.5s7.66699 -33 9 -51
c0.666992 -18.667 0.333984 -37.834 -0.999023 -57.501s-2 -39.334 -2 -59.001s1.16699 -39 3.5 -58s7.83301 -37.167 16.5 -54.5h-46zM241.998 190.999c-16 0 -33.5029 -1.16797 -52.5029 -3.50098s-36.833 -6.83301 -53.5 -13.5s-30.5 -16 -41.5 -28s-16.5 -28 -16.5 -48
c0 -14 3.16699 -26.167 9.5 -36.5s14.5 -19.166 24.5 -26.499s21.333 -12.833 34 -16.5s25.334 -5.5 38.001 -5.5c20.667 0 38.834 4 54.501 12s28.834 18.667 39.501 32s18.667 28.833 24 46.5s8 36.167 8 55.5v32h-68zM164.995 -76.002c0 9.33301 3.16699 17.5 9.5 24.5
s14.833 10.5 25.5 10.5c10 0 18.167 -3.5 24.5 -10.5s9.5 -15.167 9.5 -24.5s-3.16699 -17.333 -9.5 -24s-14.5 -10 -24.5 -10c-10.667 0 -19.167 3.33301 -25.5 10s-9.5 14.667 -9.5 24zM287.995 388.998l-89 79l-88 -79h-21l88 121h43l87 -121h-20z" />
    <glyph glyph-name="uni1EAE" unicode="&#x102;&#x301;" horiz-adv-x="524" 
d="M461 0l-126 239h-176l-127 -239h-32l264 482h11l249 -482h-63zM251 409l-78 -146h151zM373 622c-1.33301 -32 -10.834 -59.167 -28.501 -81.5s-42.167 -33.5 -73.5 -33.5c-32 0 -56.667 11.167 -74 33.5s-26.666 49.5 -27.999 81.5h16
c4.66699 -21.333 13.167 -39 25.5 -53s32.5 -21 60.5 -21s48 7 60 21s20 31.667 24 53h18zM226.999 617l108.998 112.999c6.66699 7.33301 15 11 25 11c6.66699 0 11.834 -2.16699 15.501 -6.5s5.5 -9.5 5.5 -15.5c0 -5.33301 -2.16699 -10.166 -6.5 -14.499
s-11.166 -9.83301 -20.499 -16.5l-107 -72z" />
    <glyph glyph-name="uni1EAF" unicode="&#x103;&#x301;" horiz-adv-x="402" 
d="M326 0c-3.33301 10.667 -6.00195 20.499 -8.00195 29.499s-3.33301 18.5 -4 28.5c-18 -26 -39.167 -43.833 -63.5 -53.5s-52.5 -14.5 -84.5 -14.5c-16.667 0 -33.667 2 -51 6s-33 10.333 -47 19s-25.5 20 -34.5 34s-13.5 30.667 -13.5 50
c0 20.667 5.16699 37.834 15.5 51.501s23.833 24.834 40.5 33.501s35.667 15.334 57 20.001s42.666 7.83398 63.999 9.50098s42 2.5 62 2.5h51v14c0 34.667 -10.167 60.667 -30.5 78s-47.5 26 -81.5 26c-11.333 0 -23.166 -1.83301 -35.499 -5.5s-23.666 -9 -33.999 -16
s-18.833 -15.667 -25.5 -26s-10 -21.833 -10 -34.5h-55c4.66699 20 12.167 36.833 22.5 50.5s22.5 24.667 36.5 33s29.667 14.333 47 18s35.333 5.5 54 5.5c31.333 0 57 -3.33301 77 -10s35.667 -15.834 47 -27.501s19.333 -25.5 24 -41.5s7.66699 -33 9 -51
c0.666992 -18.667 0.333984 -37.834 -0.999023 -57.501s-2 -39.334 -2 -59.001s1.16699 -39 3.5 -58s7.83301 -37.167 16.5 -54.5h-46zM241.998 190.999c-16 0 -33.5029 -1.16797 -52.5029 -3.50098s-36.833 -6.83301 -53.5 -13.5s-30.5 -16 -41.5 -28s-16.5 -28 -16.5 -48
c0 -14 3.16699 -26.167 9.5 -36.5s14.5 -19.166 24.5 -26.499s21.333 -12.833 34 -16.5s25.334 -5.5 38.001 -5.5c20.667 0 38.834 4 54.501 12s28.834 18.667 39.501 32s18.667 28.833 24 46.5s8 36.167 8 55.5v32h-68zM297.995 502.998
c-1.33301 -32 -10.834 -59.167 -28.501 -81.5s-42.167 -33.5 -73.5 -33.5c-32 0 -56.667 11.167 -74 33.5s-26.666 49.5 -27.999 81.5h16c4.66699 -21.333 13.167 -39 25.5 -53s32.5 -21 60.5 -21s48 7 60 21s20 31.667 24 53h18zM137.994 493.998l108.998 112.999
c6.66699 7.33301 15 11 25 11c6.66699 0 11.834 -2.16699 15.501 -6.5s5.5 -9.5 5.5 -15.5c0 -5.33301 -2.16699 -10.166 -6.5 -14.499s-11.166 -9.83301 -20.499 -16.5l-107 -72z" />
    <glyph glyph-name="uni1EB0" unicode="&#x102;&#x300;" horiz-adv-x="524" 
d="M461 0l-126 239h-176l-127 -239h-32l264 482h11l249 -482h-63zM251 409l-78 -146h151zM369 626c-1.33301 -32 -10.834 -59.167 -28.501 -81.5s-42.167 -33.5 -73.5 -33.5c-32 0 -56.667 11.167 -74 33.5s-26.666 49.5 -27.999 81.5h16
c4.66699 -21.333 13.167 -39 25.5 -53s32.5 -21 60.5 -21s48 7 60 21s20 31.667 24 53h18zM298.999 621l-106.001 72.001c-9.33301 6.66699 -16.166 12.167 -20.499 16.5s-6.5 9.16602 -6.5 14.499c0 6 1.83301 11.167 5.5 15.5s8.5 6.5 14.5 6.5
c10 0 18.333 -3.66699 25 -11l109 -113z" />
    <glyph glyph-name="uni1EB1" unicode="&#x103;&#x300;" horiz-adv-x="402" 
d="M326 0c-3.33301 10.667 -6.00195 20.499 -8.00195 29.499s-3.33301 18.5 -4 28.5c-18 -26 -39.167 -43.833 -63.5 -53.5s-52.5 -14.5 -84.5 -14.5c-16.667 0 -33.667 2 -51 6s-33 10.333 -47 19s-25.5 20 -34.5 34s-13.5 30.667 -13.5 50
c0 20.667 5.16699 37.834 15.5 51.501s23.833 24.834 40.5 33.501s35.667 15.334 57 20.001s42.666 7.83398 63.999 9.50098s42 2.5 62 2.5h51v14c0 34.667 -10.167 60.667 -30.5 78s-47.5 26 -81.5 26c-11.333 0 -23.166 -1.83301 -35.499 -5.5s-23.666 -9 -33.999 -16
s-18.833 -15.667 -25.5 -26s-10 -21.833 -10 -34.5h-55c4.66699 20 12.167 36.833 22.5 50.5s22.5 24.667 36.5 33s29.667 14.333 47 18s35.333 5.5 54 5.5c31.333 0 57 -3.33301 77 -10s35.667 -15.834 47 -27.501s19.333 -25.5 24 -41.5s7.66699 -33 9 -51
c0.666992 -18.667 0.333984 -37.834 -0.999023 -57.501s-2 -39.334 -2 -59.001s1.16699 -39 3.5 -58s7.83301 -37.167 16.5 -54.5h-46zM241.998 190.999c-16 0 -33.5029 -1.16797 -52.5029 -3.50098s-36.833 -6.83301 -53.5 -13.5s-30.5 -16 -41.5 -28s-16.5 -28 -16.5 -48
c0 -14 3.16699 -26.167 9.5 -36.5s14.5 -19.166 24.5 -26.499s21.333 -12.833 34 -16.5s25.334 -5.5 38.001 -5.5c20.667 0 38.834 4 54.501 12s28.834 18.667 39.501 32s18.667 28.833 24 46.5s8 36.167 8 55.5v32h-68zM292.995 506.998
c-1.33301 -32 -10.834 -59.167 -28.501 -81.5s-42.167 -33.5 -73.5 -33.5c-32 0 -56.667 11.167 -74 33.5s-26.666 49.5 -27.999 81.5h16c4.66699 -21.333 13.167 -39 25.5 -53s32.5 -21 60.5 -21s48 7 60 21s20 31.667 24 53h18zM226.994 503.998l-106.001 72.001
c-9.33301 6.66699 -16.166 12.167 -20.499 16.5s-6.5 9.16602 -6.5 14.499c0 6 1.83301 11.167 5.5 15.5s8.5 6.5 14.5 6.5c10 0 18.333 -3.66699 25 -11l109 -113z" />
    <glyph glyph-name="uni1EB2" unicode="&#x102;&#x309;" horiz-adv-x="524" 
d="M461 0l-126 239h-176l-127 -239h-32l264 482h11l249 -482h-63zM251 409l-78 -146h151zM369 620c-1.33301 -32 -10.834 -59.167 -28.501 -81.5s-42.167 -33.5 -73.5 -33.5c-32 0 -56.667 11.167 -74 33.5s-26.666 49.5 -27.999 81.5h16
c4.66699 -21.333 13.167 -39 25.5 -53s32.5 -21 60.5 -21s48 7 60 21s20 31.667 24 53h18zM245.999 613c1.33301 17.333 5.66895 31.1689 13.002 41.502s14.666 19.166 21.999 26.499c6 6 11.833 12.167 17.5 18.5s8.5 14.166 8.5 23.499c0 16 -3.16699 29.333 -9.5 40
s-18.166 16 -35.499 16c-19.333 0 -32.333 -7.16699 -39 -21.5s-10 -30.166 -10 -47.499h-34c0 26.667 7.66699 47.5 23 62.5s35.666 22.5 60.999 22.5c22 0 41.833 -6 59.5 -18s26.5 -30.333 26.5 -55c0 -13.333 -4.33301 -24.5 -13 -33.5s-18.334 -17.5 -29.001 -25.5
c-8 -6.66699 -16 -13.834 -24 -21.501s-14 -17.167 -18 -28.5h-19z" />
    <glyph glyph-name="uni1EB3" unicode="&#x103;&#x309;" horiz-adv-x="402" 
d="M326 0c-3.33301 10.667 -6.00195 20.499 -8.00195 29.499s-3.33301 18.5 -4 28.5c-18 -26 -39.167 -43.833 -63.5 -53.5s-52.5 -14.5 -84.5 -14.5c-16.667 0 -33.667 2 -51 6s-33 10.333 -47 19s-25.5 20 -34.5 34s-13.5 30.667 -13.5 50
c0 20.667 5.16699 37.834 15.5 51.501s23.833 24.834 40.5 33.501s35.667 15.334 57 20.001s42.666 7.83398 63.999 9.50098s42 2.5 62 2.5h51v14c0 34.667 -10.167 60.667 -30.5 78s-47.5 26 -81.5 26c-11.333 0 -23.166 -1.83301 -35.499 -5.5s-23.666 -9 -33.999 -16
s-18.833 -15.667 -25.5 -26s-10 -21.833 -10 -34.5h-55c4.66699 20 12.167 36.833 22.5 50.5s22.5 24.667 36.5 33s29.667 14.333 47 18s35.333 5.5 54 5.5c31.333 0 57 -3.33301 77 -10s35.667 -15.834 47 -27.501s19.333 -25.5 24 -41.5s7.66699 -33 9 -51
c0.666992 -18.667 0.333984 -37.834 -0.999023 -57.501s-2 -39.334 -2 -59.001s1.16699 -39 3.5 -58s7.83301 -37.167 16.5 -54.5h-46zM241.998 190.999c-16 0 -33.5029 -1.16797 -52.5029 -3.50098s-36.833 -6.83301 -53.5 -13.5s-30.5 -16 -41.5 -28s-16.5 -28 -16.5 -48
c0 -14 3.16699 -26.167 9.5 -36.5s14.5 -19.166 24.5 -26.499s21.333 -12.833 34 -16.5s25.334 -5.5 38.001 -5.5c20.667 0 38.834 4 54.501 12s28.834 18.667 39.501 32s18.667 28.833 24 46.5s8 36.167 8 55.5v32h-68zM295.995 501.998
c-1.33301 -32 -10.834 -59.167 -28.501 -81.5s-42.167 -33.5 -73.5 -33.5c-32 0 -56.667 11.167 -74 33.5s-26.666 49.5 -27.999 81.5h16c4.66699 -21.333 13.167 -39 25.5 -53s32.5 -21 60.5 -21s48 7 60 21s20 31.667 24 53h18zM183.994 495.998
c1.33301 17.333 5.66895 31.1689 13.002 41.502s14.666 19.166 21.999 26.499c6 6 11.833 12.167 17.5 18.5s8.5 14.166 8.5 23.499c0 16 -3.16699 29.333 -9.5 40s-18.166 16 -35.499 16c-19.333 0 -32.333 -7.16699 -39 -21.5s-10 -30.166 -10 -47.499h-34
c0 26.667 7.66699 47.5 23 62.5s35.666 22.5 60.999 22.5c22 0 41.833 -6 59.5 -18s26.5 -30.333 26.5 -55c0 -13.333 -4.33301 -24.5 -13 -33.5s-18.334 -17.5 -29.001 -25.5c-8 -6.66699 -16 -13.834 -24 -21.501s-14 -17.167 -18 -28.5h-19z" />
    <glyph glyph-name="uni1EB4" unicode="&#x102;&#x303;" horiz-adv-x="524" 
d="M461 0l-126 239h-176l-127 -239h-32l264 482h11l249 -482h-63zM251 409l-78 -146h151zM364 614c-1.33301 -32 -10.834 -59.167 -28.501 -81.5s-42.167 -33.5 -73.5 -33.5c-32 0 -56.667 11.167 -74 33.5s-26.666 49.5 -27.999 81.5h16
c4.66699 -21.333 13.167 -39 25.5 -53s32.5 -21 60.5 -21s48 7 60 21s20 31.667 24 53h18zM150.999 638c2.66699 13.333 7.33691 25.335 14.0039 36.002c5.33301 9.33301 12.666 17.666 21.999 24.999s21.666 11 36.999 11c10.667 0 20.667 -1.83301 30 -5.5
s18.166 -7.83398 26.499 -12.501s16.333 -8.83398 24 -12.501s15.167 -5.5 22.5 -5.5c8 0 14.667 2 20 6s9.66602 8.66699 12.999 14c4 6 7.33301 12.667 10 20h16c-2.66699 -14.667 -7 -27.667 -13 -39c-5.33301 -9.33301 -12.833 -18 -22.5 -26s-22.834 -12 -39.501 -12
c-11.333 0 -21.333 1.83301 -30 5.5s-16.667 7.83398 -24 12.501s-14.666 8.83398 -21.999 12.501s-15.333 5.5 -24 5.5c-8 0 -14.833 -1.83301 -20.5 -5.5s-10.167 -7.83398 -13.5 -12.501c-4 -5.33301 -7 -11 -9 -17h-17z" />
    <glyph glyph-name="uni1EB5" unicode="&#x103;&#x303;" horiz-adv-x="402" 
d="M326 0c-3.33301 10.667 -6.00195 20.499 -8.00195 29.499s-3.33301 18.5 -4 28.5c-18 -26 -39.167 -43.833 -63.5 -53.5s-52.5 -14.5 -84.5 -14.5c-16.667 0 -33.667 2 -51 6s-33 10.333 -47 19s-25.5 20 -34.5 34s-13.5 30.667 -13.5 50
c0 20.667 5.16699 37.834 15.5 51.501s23.833 24.834 40.5 33.501s35.667 15.334 57 20.001s42.666 7.83398 63.999 9.50098s42 2.5 62 2.5h51v14c0 34.667 -10.167 60.667 -30.5 78s-47.5 26 -81.5 26c-11.333 0 -23.166 -1.83301 -35.499 -5.5s-23.666 -9 -33.999 -16
s-18.833 -15.667 -25.5 -26s-10 -21.833 -10 -34.5h-55c4.66699 20 12.167 36.833 22.5 50.5s22.5 24.667 36.5 33s29.667 14.333 47 18s35.333 5.5 54 5.5c31.333 0 57 -3.33301 77 -10s35.667 -15.834 47 -27.501s19.333 -25.5 24 -41.5s7.66699 -33 9 -51
c0.666992 -18.667 0.333984 -37.834 -0.999023 -57.501s-2 -39.334 -2 -59.001s1.16699 -39 3.5 -58s7.83301 -37.167 16.5 -54.5h-46zM241.998 190.999c-16 0 -33.5029 -1.16797 -52.5029 -3.50098s-36.833 -6.83301 -53.5 -13.5s-30.5 -16 -41.5 -28s-16.5 -28 -16.5 -48
c0 -14 3.16699 -26.167 9.5 -36.5s14.5 -19.166 24.5 -26.499s21.333 -12.833 34 -16.5s25.334 -5.5 38.001 -5.5c20.667 0 38.834 4 54.501 12s28.834 18.667 39.501 32s18.667 28.833 24 46.5s8 36.167 8 55.5v32h-68zM293.995 502.998
c-1.33301 -32 -10.834 -59.167 -28.501 -81.5s-42.167 -33.5 -73.5 -33.5c-32 0 -56.667 11.167 -74 33.5s-26.666 49.5 -27.999 81.5h16c4.66699 -21.333 13.167 -39 25.5 -53s32.5 -21 60.5 -21s48 7 60 21s20 31.667 24 53h18zM78.9941 529.998
c2.66699 13.333 7.33691 25.335 14.0039 36.002c5.33301 9.33301 12.666 17.666 21.999 24.999s21.666 11 36.999 11c10.667 0 20.667 -1.83301 30 -5.5s18.166 -7.83398 26.499 -12.501s16.333 -8.83398 24 -12.501s15.167 -5.5 22.5 -5.5c8 0 14.667 2 20 6
s9.66602 8.66699 12.999 14c4 6 7.33301 12.667 10 20h16c-2.66699 -14.667 -7 -27.667 -13 -39c-5.33301 -9.33301 -12.833 -18 -22.5 -26s-22.834 -12 -39.501 -12c-11.333 0 -21.333 1.83301 -30 5.5s-16.667 7.83398 -24 12.501s-14.666 8.83398 -21.999 12.501
s-15.333 5.5 -24 5.5c-8 0 -14.833 -1.83301 -20.5 -5.5s-10.167 -7.83398 -13.5 -12.501c-4 -5.33301 -7 -11 -9 -17h-17z" />
    <glyph glyph-name="uni1EB6" unicode="&#x102;&#x323;" horiz-adv-x="524" 
d="M461 0l-126 239h-176l-127 -239h-32l264 482h11l249 -482h-63zM251 409l-78 -146h151zM231 -76c0 9.33301 3.16699 17.5 9.5 24.5s14.833 10.5 25.5 10.5c10 0 18.167 -3.5 24.5 -10.5s9.5 -15.167 9.5 -24.5s-3.16699 -17.333 -9.5 -24s-14.5 -10 -24.5 -10
c-10.667 0 -19.167 3.33301 -25.5 10s-9.5 14.667 -9.5 24zM364 621c-1.33301 -32 -10.834 -59.167 -28.501 -81.5s-42.167 -33.5 -73.5 -33.5c-32 0 -56.667 11.167 -74 33.5s-26.666 49.5 -27.999 81.5h16c4.66699 -21.333 13.167 -39 25.5 -53s32.5 -21 60.5 -21
s48 7 60 21s20 31.667 24 53h18z" />
    <glyph glyph-name="uni1EB7" unicode="&#x103;&#x323;" horiz-adv-x="402" 
d="M326 0c-3.33301 10.667 -6.00195 20.499 -8.00195 29.499s-3.33301 18.5 -4 28.5c-18 -26 -39.167 -43.833 -63.5 -53.5s-52.5 -14.5 -84.5 -14.5c-16.667 0 -33.667 2 -51 6s-33 10.333 -47 19s-25.5 20 -34.5 34s-13.5 30.667 -13.5 50
c0 20.667 5.16699 37.834 15.5 51.501s23.833 24.834 40.5 33.501s35.667 15.334 57 20.001s42.666 7.83398 63.999 9.50098s42 2.5 62 2.5h51v14c0 34.667 -10.167 60.667 -30.5 78s-47.5 26 -81.5 26c-11.333 0 -23.166 -1.83301 -35.499 -5.5s-23.666 -9 -33.999 -16
s-18.833 -15.667 -25.5 -26s-10 -21.833 -10 -34.5h-55c4.66699 20 12.167 36.833 22.5 50.5s22.5 24.667 36.5 33s29.667 14.333 47 18s35.333 5.5 54 5.5c31.333 0 57 -3.33301 77 -10s35.667 -15.834 47 -27.501s19.333 -25.5 24 -41.5s7.66699 -33 9 -51
c0.666992 -18.667 0.333984 -37.834 -0.999023 -57.501s-2 -39.334 -2 -59.001s1.16699 -39 3.5 -58s7.83301 -37.167 16.5 -54.5h-46zM241.998 190.999c-16 0 -33.5029 -1.16797 -52.5029 -3.50098s-36.833 -6.83301 -53.5 -13.5s-30.5 -16 -41.5 -28s-16.5 -28 -16.5 -48
c0 -14 3.16699 -26.167 9.5 -36.5s14.5 -19.166 24.5 -26.499s21.333 -12.833 34 -16.5s25.334 -5.5 38.001 -5.5c20.667 0 38.834 4 54.501 12s28.834 18.667 39.501 32s18.667 28.833 24 46.5s8 36.167 8 55.5v32h-68zM156.995 -76.002c0 9.33301 3.16699 17.5 9.5 24.5
s14.833 10.5 25.5 10.5c10 0 18.167 -3.5 24.5 -10.5s9.5 -15.167 9.5 -24.5s-3.16699 -17.333 -9.5 -24s-14.5 -10 -24.5 -10c-10.667 0 -19.167 3.33301 -25.5 10s-9.5 14.667 -9.5 24zM293.995 504.998c-1.33301 -32 -10.834 -59.167 -28.501 -81.5
s-42.167 -33.5 -73.5 -33.5c-32 0 -56.667 11.167 -74 33.5s-26.666 49.5 -27.999 81.5h16c4.66699 -21.333 13.167 -39 25.5 -53s32.5 -21 60.5 -21s48 7 60 21s20 31.667 24 53h18z" />
    <glyph glyph-name="uni1EB8" unicode="E&#x323;" horiz-adv-x="451" 
d="M50 0v467h391v-25h-337v-179h265v-24h-265v-215h337v-24h-391zM191 -76c0 9.33301 3.16699 17.5 9.5 24.5s14.833 10.5 25.5 10.5c10 0 18.167 -3.5 24.5 -10.5s9.5 -15.167 9.5 -24.5s-3.16699 -17.333 -9.5 -24s-14.5 -10 -24.5 -10
c-10.667 0 -19.167 3.33301 -25.5 10s-9.5 14.667 -9.5 24z" />
    <glyph glyph-name="uni1EB9" unicode="e&#x323;" horiz-adv-x="429" 
d="M88 217c-2.66699 -7.33301 -3.8291 -14.999 -3.49609 -22.999s0.5 -15.667 0.5 -23c0 -21.333 3.16699 -41.5 9.5 -60.5s15.666 -35.667 27.999 -50s27.5 -25.666 45.5 -33.999s38.333 -12.5 61 -12.5c14.667 0 29.167 2.83301 43.5 8.5s27.166 13.5 38.499 23.5
s20.666 21.667 27.999 35s11.666 27.666 12.999 42.999h49c-1.33301 -22 -7.5 -41.5 -18.5 -58.5s-24.667 -31.167 -41 -42.5s-34.333 -19.833 -54 -25.5s-39.5 -8.5 -59.5 -8.5c-26 0 -51.167 4.33301 -75.5 13s-46 20.834 -65 36.501s-34.167 34.667 -45.5 57
s-17 47.166 -17 74.499c0 28 5 53.5 15 76.5s23.667 42.833 41 59.5s37.833 29.667 61.5 39s49.5 14 77.5 14c22 0 43.5 -2.83301 64.5 -8.5s40 -14.334 57 -26.001s31.167 -26.5 42.5 -44.5s18 -39 20 -63h-316zM344.005 242.001
c-9.33301 28 -25.499 50.499 -48.499 67.499s-49.5 25.5 -79.5 25.5c-28.667 0 -53.834 -8.66699 -75.501 -26s-36.167 -39.666 -43.5 -66.999h247zM192.006 -73c0 9.33301 3.16699 17.5 9.5 24.5s14.833 10.5 25.5 10.5c10 0 18.167 -3.5 24.5 -10.5s9.5 -15.167 9.5 -24.5
s-3.16699 -17.333 -9.5 -24s-14.5 -10 -24.5 -10c-10.667 0 -19.167 3.33301 -25.5 10s-9.5 14.667 -9.5 24z" />
    <glyph glyph-name="uni1EBA" unicode="E&#x309;" horiz-adv-x="451" 
d="M50 0v467h391v-25h-337v-179h265v-24h-265v-215h337v-24h-391zM224 501c1.33301 17.333 5.66895 31.1689 13.002 41.502s14.666 19.166 21.999 26.499c6 6 11.833 12.167 17.5 18.5s8.5 14.166 8.5 23.499c0 16 -3.16699 29.333 -9.5 40s-18.166 16 -35.499 16
c-19.333 0 -32.333 -7.16699 -39 -21.5s-10 -30.166 -10 -47.499h-34c0 26.667 7.66699 47.5 23 62.5s35.666 22.5 60.999 22.5c22 0 41.833 -6 59.5 -18s26.5 -30.333 26.5 -55c0 -13.333 -4.33301 -24.5 -13 -33.5s-18.334 -17.5 -29.001 -25.5
c-8 -6.66699 -16 -13.834 -24 -21.501s-14 -17.167 -18 -28.5h-19z" />
    <glyph glyph-name="uni1EBB" unicode="e&#x309;" horiz-adv-x="429" 
d="M88 217c-2.66699 -7.33301 -3.8291 -14.999 -3.49609 -22.999s0.5 -15.667 0.5 -23c0 -21.333 3.16699 -41.5 9.5 -60.5s15.666 -35.667 27.999 -50s27.5 -25.666 45.5 -33.999s38.333 -12.5 61 -12.5c14.667 0 29.167 2.83301 43.5 8.5s27.166 13.5 38.499 23.5
s20.666 21.667 27.999 35s11.666 27.666 12.999 42.999h49c-1.33301 -22 -7.5 -41.5 -18.5 -58.5s-24.667 -31.167 -41 -42.5s-34.333 -19.833 -54 -25.5s-39.5 -8.5 -59.5 -8.5c-26 0 -51.167 4.33301 -75.5 13s-46 20.834 -65 36.501s-34.167 34.667 -45.5 57
s-17 47.166 -17 74.499c0 28 5 53.5 15 76.5s23.667 42.833 41 59.5s37.833 29.667 61.5 39s49.5 14 77.5 14c22 0 43.5 -2.83301 64.5 -8.5s40 -14.334 57 -26.001s31.167 -26.5 42.5 -44.5s18 -39 20 -63h-316zM344.005 242.001
c-9.33301 28 -25.499 50.499 -48.499 67.499s-49.5 25.5 -79.5 25.5c-28.667 0 -53.834 -8.66699 -75.501 -26s-36.167 -39.666 -43.5 -66.999h247zM208.434 388.197c1.34082 16.667 5.70215 29.9668 13.0781 39.9033s14.752 18.4297 22.1279 25.4805
c6.03516 5.76953 11.9023 11.6992 17.6025 17.7891s8.5498 13.6221 8.5498 22.5967c0 15.3848 -3.18555 28.2051 -9.55566 38.4619s-18.2725 15.3848 -35.707 15.3848c-19.4463 0 -32.5225 -6.8916 -39.2285 -20.6738s-10.0586 -29.0068 -10.0586 -45.6738h-34.1992
c0 25.6416 7.71191 45.6738 23.1348 60.0967s35.875 21.6348 61.3564 21.6348c22.1289 0 42.0781 -5.76953 59.8486 -17.3086c17.7705 -11.5381 26.6553 -29.166 26.6553 -52.8838c0 -12.8203 -4.3584 -23.5576 -13.0762 -32.2119
c-8.71777 -8.65332 -18.4414 -16.8262 -29.1709 -24.5186c-8.04688 -6.41016 -16.0938 -13.3008 -24.1406 -20.6729s-14.082 -16.5068 -18.1055 -27.4043h-19.1113z" />
    <glyph glyph-name="uni1EBC" unicode="E&#x303;" horiz-adv-x="451" 
d="M50 0v467h391v-25h-337v-179h265v-24h-265v-215h337v-24h-391zM118 499c2.66699 13.333 7.33691 25.335 14.0039 36.002c5.33301 9.33301 12.666 17.666 21.999 24.999s21.666 11 36.999 11c10.667 0 20.667 -1.83301 30 -5.5s18.166 -7.83398 26.499 -12.501
s16.333 -8.83398 24 -12.501s15.167 -5.5 22.5 -5.5c8 0 14.667 2 20 6s9.66602 8.66699 12.999 14c4 6 7.33301 12.667 10 20h16c-2.66699 -14.667 -7 -27.667 -13 -39c-5.33301 -9.33301 -12.833 -18 -22.5 -26s-22.834 -12 -39.501 -12
c-11.333 0 -21.333 1.83301 -30 5.5s-16.667 7.83398 -24 12.501s-14.666 8.83398 -21.999 12.501s-15.333 5.5 -24 5.5c-8 0 -14.833 -1.83301 -20.5 -5.5s-10.167 -7.83398 -13.5 -12.501c-4 -5.33301 -7 -11 -9 -17h-17z" />
    <glyph glyph-name="uni1EBD" unicode="e&#x303;" horiz-adv-x="429" 
d="M88 217c-2.66699 -7.33301 -3.8291 -14.999 -3.49609 -22.999s0.5 -15.667 0.5 -23c0 -21.333 3.16699 -41.5 9.5 -60.5s15.666 -35.667 27.999 -50s27.5 -25.666 45.5 -33.999s38.333 -12.5 61 -12.5c14.667 0 29.167 2.83301 43.5 8.5s27.166 13.5 38.499 23.5
s20.666 21.667 27.999 35s11.666 27.666 12.999 42.999h49c-1.33301 -22 -7.5 -41.5 -18.5 -58.5s-24.667 -31.167 -41 -42.5s-34.333 -19.833 -54 -25.5s-39.5 -8.5 -59.5 -8.5c-26 0 -51.167 4.33301 -75.5 13s-46 20.834 -65 36.501s-34.167 34.667 -45.5 57
s-17 47.166 -17 74.499c0 28 5 53.5 15 76.5s23.667 42.833 41 59.5s37.833 29.667 61.5 39s49.5 14 77.5 14c22 0 43.5 -2.83301 64.5 -8.5s40 -14.334 57 -26.001s31.167 -26.5 42.5 -44.5s18 -39 20 -63h-316zM344.005 242.001
c-9.33301 28 -25.499 50.499 -48.499 67.499s-49.5 25.5 -79.5 25.5c-28.667 0 -53.834 -8.66699 -75.501 -26s-36.167 -39.666 -43.5 -66.999h247zM103.006 395c2.66699 13.333 7.33691 25.335 14.0039 36.002c5.33301 9.33301 12.666 17.666 21.999 24.999
s21.666 11 36.999 11c10.667 0 20.667 -1.83301 30 -5.5s18.166 -7.83398 26.499 -12.501s16.333 -8.83398 24 -12.501s15.167 -5.5 22.5 -5.5c8 0 14.667 2 20 6s9.66602 8.66699 12.999 14c4 6 7.33301 12.667 10 20h16c-2.66699 -14.667 -7 -27.667 -13 -39
c-5.33301 -9.33301 -12.833 -18 -22.5 -26s-22.834 -12 -39.501 -12c-11.333 0 -21.333 1.83301 -30 5.5s-16.667 7.83398 -24 12.501s-14.666 8.83398 -21.999 12.501s-15.333 5.5 -24 5.5c-8 0 -14.833 -1.83301 -20.5 -5.5s-10.167 -7.83398 -13.5 -12.501
c-4 -5.33301 -7 -11 -9 -17h-17z" />
    <glyph glyph-name="uni1EBE" unicode="&#xca;&#x301;" horiz-adv-x="505" 
d="M67 0v467h391v-25h-337v-179h265v-24h-265v-215h337v-24h-391zM341 497l-89 79l-88 -79h-21l88 121h43l87 -121h-20zM326 577l108.998 112.999c6.66699 7.33301 15 11 25 11c6.66699 0 11.834 -2.16699 15.501 -6.5s5.5 -9.5 5.5 -15.5
c0 -5.33301 -2.16699 -10.166 -6.5 -14.499s-11.166 -9.83301 -20.499 -16.5l-107 -72z" />
    <glyph glyph-name="uni1EBF" unicode="&#xea;&#x301;" horiz-adv-x="462" 
d="M88 217c-2.66699 -7.33301 -3.8291 -14.999 -3.49609 -22.999s0.5 -15.667 0.5 -23c0 -21.333 3.16699 -41.5 9.5 -60.5s15.666 -35.667 27.999 -50s27.5 -25.666 45.5 -33.999s38.333 -12.5 61 -12.5c14.667 0 29.167 2.83301 43.5 8.5s27.166 13.5 38.499 23.5
s20.666 21.667 27.999 35s11.666 27.666 12.999 42.999h49c-1.33301 -22 -7.5 -41.5 -18.5 -58.5s-24.667 -31.167 -41 -42.5s-34.333 -19.833 -54 -25.5s-39.5 -8.5 -59.5 -8.5c-26 0 -51.167 4.33301 -75.5 13s-46 20.834 -65 36.501s-34.167 34.667 -45.5 57
s-17 47.166 -17 74.499c0 28 5 53.5 15 76.5s23.667 42.833 41 59.5s37.833 29.667 61.5 39s49.5 14 77.5 14c22 0 43.5 -2.83301 64.5 -8.5s40 -14.334 57 -26.001s31.167 -26.5 42.5 -44.5s18 -39 20 -63h-316zM344.005 242.001
c-9.33301 28 -25.499 50.499 -48.499 67.499s-49.5 25.5 -79.5 25.5c-28.667 0 -53.834 -8.66699 -75.501 -26s-36.167 -39.666 -43.5 -66.999h247zM305.006 389l-89 79l-88 -79h-21l88 121h43l87 -121h-20zM287.006 468l108.998 112.999c6.66699 7.33301 15 11 25 11
c6.66699 0 11.834 -2.16699 15.501 -6.5s5.5 -9.5 5.5 -15.5c0 -5.33301 -2.16699 -10.166 -6.5 -14.499s-11.166 -9.83301 -20.499 -16.5l-107 -72z" />
    <glyph glyph-name="uni1EC0" unicode="&#xca;&#x300;" horiz-adv-x="491" 
d="M90 0v467h391v-25h-337v-179h265v-24h-265v-215h337v-24h-391zM361 503l-89 79l-88 -79h-21l88 121h43l87 -121h-20zM406 576l-106.001 72.001c-9.33301 6.66699 -16.166 12.167 -20.499 16.5s-6.5 9.16602 -6.5 14.499c0 6 1.83301 11.167 5.5 15.5s8.5 6.5 14.5 6.5
c10 0 18.333 -3.66699 25 -11l109 -113z" />
    <glyph glyph-name="uni1EC1" unicode="&#xea;&#x300;" horiz-adv-x="439" 
d="M98 217c-2.66699 -7.33301 -3.8291 -14.999 -3.49609 -22.999s0.5 -15.667 0.5 -23c0 -21.333 3.16699 -41.5 9.5 -60.5s15.666 -35.667 27.999 -50s27.5 -25.666 45.5 -33.999s38.333 -12.5 61 -12.5c14.667 0 29.167 2.83301 43.5 8.5s27.166 13.5 38.499 23.5
s20.666 21.667 27.999 35s11.666 27.666 12.999 42.999h49c-1.33301 -22 -7.5 -41.5 -18.5 -58.5s-24.667 -31.167 -41 -42.5s-34.333 -19.833 -54 -25.5s-39.5 -8.5 -59.5 -8.5c-26 0 -51.167 4.33301 -75.5 13s-46 20.834 -65 36.501s-34.167 34.667 -45.5 57
s-17 47.166 -17 74.499c0 28 5 53.5 15 76.5s23.667 42.833 41 59.5s37.833 29.667 61.5 39s49.5 14 77.5 14c22 0 43.5 -2.83301 64.5 -8.5s40 -14.334 57 -26.001s31.167 -26.5 42.5 -44.5s18 -39 20 -63h-316zM354.005 242.001
c-9.33301 28 -25.499 50.499 -48.499 67.499s-49.5 25.5 -79.5 25.5c-28.667 0 -53.834 -8.66699 -75.501 -26s-36.167 -39.666 -43.5 -66.999h247zM317.006 386l-89 79l-88 -79h-21l88 121h43l87 -121h-20zM340.006 467l-106.001 72.001
c-9.33301 6.66699 -16.166 12.167 -20.499 16.5s-6.5 9.16602 -6.5 14.499c0 6 1.83301 11.167 5.5 15.5s8.5 6.5 14.5 6.5c10 0 18.333 -3.66699 25 -11l109 -113z" />
    <glyph glyph-name="uni1EC2" unicode="&#xca;&#x309;" horiz-adv-x="451" 
d="M50 0v467h391v-25h-337v-179h265v-24h-265v-215h337v-24h-391zM331 498l-89 79l-88 -79h-21l88 121h43l87 -121h-20zM332 575c1.33301 17.333 5.66895 31.1689 13.002 41.502s14.666 19.166 21.999 26.499c6 6 11.833 12.167 17.5 18.5s8.5 14.166 8.5 23.499
c0 16 -3.16699 29.333 -9.5 40s-18.166 16 -35.499 16c-19.333 0 -32.333 -7.16699 -39 -21.5s-10 -30.166 -10 -47.499h-34c0 26.667 7.66699 47.5 23 62.5s35.666 22.5 60.999 22.5c22 0 41.833 -6 59.5 -18s26.5 -30.333 26.5 -55c0 -13.333 -4.33301 -24.5 -13 -33.5
s-18.334 -17.5 -29.001 -25.5c-8 -6.66699 -16 -13.834 -24 -21.501s-14 -17.167 -18 -28.5h-19z" />
    <glyph glyph-name="uni1EC3" unicode="&#xea;&#x309;" horiz-adv-x="439" 
d="M88 217c-2.66699 -7.33301 -3.8291 -14.999 -3.49609 -22.999s0.5 -15.667 0.5 -23c0 -21.333 3.16699 -41.5 9.5 -60.5s15.666 -35.667 27.999 -50s27.5 -25.666 45.5 -33.999s38.333 -12.5 61 -12.5c14.667 0 29.167 2.83301 43.5 8.5s27.166 13.5 38.499 23.5
s20.666 21.667 27.999 35s11.666 27.666 12.999 42.999h49c-1.33301 -22 -7.5 -41.5 -18.5 -58.5s-24.667 -31.167 -41 -42.5s-34.333 -19.833 -54 -25.5s-39.5 -8.5 -59.5 -8.5c-26 0 -51.167 4.33301 -75.5 13s-46 20.834 -65 36.501s-34.167 34.667 -45.5 57
s-17 47.166 -17 74.499c0 28 5 53.5 15 76.5s23.667 42.833 41 59.5s37.833 29.667 61.5 39s49.5 14 77.5 14c22 0 43.5 -2.83301 64.5 -8.5s40 -14.334 57 -26.001s31.167 -26.5 42.5 -44.5s18 -39 20 -63h-316zM344.005 242.001
c-9.33301 28 -25.499 50.499 -48.499 67.499s-49.5 25.5 -79.5 25.5c-28.667 0 -53.834 -8.66699 -75.501 -26s-36.167 -39.666 -43.5 -66.999h247zM307.006 391l-89 79l-88 -79h-21l88 121h43l87 -121h-20zM304.006 465c1.33301 17.333 5.66895 31.1689 13.002 41.502
s14.666 19.166 21.999 26.499c6 6 11.833 12.167 17.5 18.5s8.5 14.166 8.5 23.499c0 16 -3.16699 29.333 -9.5 40s-18.166 16 -35.499 16c-19.333 0 -32.333 -7.16699 -39 -21.5s-10 -30.166 -10 -47.499h-34c0 26.667 7.66699 47.5 23 62.5s35.666 22.5 60.999 22.5
c22 0 41.833 -6 59.5 -18s26.5 -30.333 26.5 -55c0 -13.333 -4.33301 -24.5 -13 -33.5s-18.334 -17.5 -29.001 -25.5c-8 -6.66699 -16 -13.834 -24 -21.501s-14 -17.167 -18 -28.5h-19z" />
    <glyph glyph-name="uni1EC4" unicode="&#xca;&#x303;" horiz-adv-x="451" 
d="M50 0v467h391v-25h-337v-179h265v-24h-265v-215h337v-24h-391zM316 498l-89 79l-88 -79h-21l88 121h43l87 -121h-20zM114 640c2.66699 13.333 7.33691 25.335 14.0039 36.002c5.33301 9.33301 12.666 17.666 21.999 24.999s21.666 11 36.999 11
c10.667 0 20.667 -1.83301 30 -5.5s18.166 -7.83398 26.499 -12.501s16.333 -8.83398 24 -12.501s15.167 -5.5 22.5 -5.5c8 0 14.667 2 20 6s9.66602 8.66699 12.999 14c4 6 7.33301 12.667 10 20h16c-2.66699 -14.667 -7 -27.667 -13 -39
c-5.33301 -9.33301 -12.833 -18 -22.5 -26s-22.834 -12 -39.501 -12c-11.333 0 -21.333 1.83301 -30 5.5s-16.667 7.83398 -24 12.501s-14.666 8.83398 -21.999 12.501s-15.333 5.5 -24 5.5c-8 0 -14.833 -1.83301 -20.5 -5.5s-10.167 -7.83398 -13.5 -12.501
c-4 -5.33301 -7 -11 -9 -17h-17z" />
    <glyph glyph-name="uni1EC5" unicode="&#xea;&#x303;" horiz-adv-x="429" 
d="M88 217c-2.66699 -7.33301 -3.8291 -14.999 -3.49609 -22.999s0.5 -15.667 0.5 -23c0 -21.333 3.16699 -41.5 9.5 -60.5s15.666 -35.667 27.999 -50s27.5 -25.666 45.5 -33.999s38.333 -12.5 61 -12.5c14.667 0 29.167 2.83301 43.5 8.5s27.166 13.5 38.499 23.5
s20.666 21.667 27.999 35s11.666 27.666 12.999 42.999h49c-1.33301 -22 -7.5 -41.5 -18.5 -58.5s-24.667 -31.167 -41 -42.5s-34.333 -19.833 -54 -25.5s-39.5 -8.5 -59.5 -8.5c-26 0 -51.167 4.33301 -75.5 13s-46 20.834 -65 36.501s-34.167 34.667 -45.5 57
s-17 47.166 -17 74.499c0 28 5 53.5 15 76.5s23.667 42.833 41 59.5s37.833 29.667 61.5 39s49.5 14 77.5 14c22 0 43.5 -2.83301 64.5 -8.5s40 -14.334 57 -26.001s31.167 -26.5 42.5 -44.5s18 -39 20 -63h-316zM344.005 242.001
c-9.33301 28 -25.499 50.499 -48.499 67.499s-49.5 25.5 -79.5 25.5c-28.667 0 -53.834 -8.66699 -75.501 -26s-36.167 -39.666 -43.5 -66.999h247zM305.006 389l-89 79l-88 -79h-21l88 121h43l87 -121h-20zM95.0059 533c2.66699 13.333 7.33691 25.335 14.0039 36.002
c5.33301 9.33301 12.666 17.666 21.999 24.999s21.666 11 36.999 11c10.667 0 20.667 -1.83301 30 -5.5s18.166 -7.83398 26.499 -12.501s16.333 -8.83398 24 -12.501s15.167 -5.5 22.5 -5.5c8 0 14.667 2 20 6s9.66602 8.66699 12.999 14c4 6 7.33301 12.667 10 20h16
c-2.66699 -14.667 -7 -27.667 -13 -39c-5.33301 -9.33301 -12.833 -18 -22.5 -26s-22.834 -12 -39.501 -12c-11.333 0 -21.333 1.83301 -30 5.5s-16.667 7.83398 -24 12.501s-14.666 8.83398 -21.999 12.501s-15.333 5.5 -24 5.5c-8 0 -14.833 -1.83301 -20.5 -5.5
s-10.167 -7.83398 -13.5 -12.501c-4 -5.33301 -7 -11 -9 -17h-17z" />
    <glyph glyph-name="uni1EC6" unicode="&#xca;&#x323;" horiz-adv-x="451" 
d="M50 0v467h391v-25h-337v-179h265v-24h-265v-215h337v-24h-391zM205 -74c0 9.33301 3.16699 17.5 9.5 24.5s14.833 10.5 25.5 10.5c10 0 18.167 -3.5 24.5 -10.5s9.5 -15.167 9.5 -24.5s-3.16699 -17.333 -9.5 -24s-14.5 -10 -24.5 -10
c-10.667 0 -19.167 3.33301 -25.5 10s-9.5 14.667 -9.5 24zM330 500l-89 79l-88 -79h-21l88 121h43l87 -121h-20z" />
    <glyph glyph-name="uni1EC7" unicode="&#xea;&#x323;" horiz-adv-x="429" 
d="M88 217c-2.66699 -7.33301 -3.8291 -14.999 -3.49609 -22.999s0.5 -15.667 0.5 -23c0 -21.333 3.16699 -41.5 9.5 -60.5s15.666 -35.667 27.999 -50s27.5 -25.666 45.5 -33.999s38.333 -12.5 61 -12.5c14.667 0 29.167 2.83301 43.5 8.5s27.166 13.5 38.499 23.5
s20.666 21.667 27.999 35s11.666 27.666 12.999 42.999h49c-1.33301 -22 -7.5 -41.5 -18.5 -58.5s-24.667 -31.167 -41 -42.5s-34.333 -19.833 -54 -25.5s-39.5 -8.5 -59.5 -8.5c-26 0 -51.167 4.33301 -75.5 13s-46 20.834 -65 36.501s-34.167 34.667 -45.5 57
s-17 47.166 -17 74.499c0 28 5 53.5 15 76.5s23.667 42.833 41 59.5s37.833 29.667 61.5 39s49.5 14 77.5 14c22 0 43.5 -2.83301 64.5 -8.5s40 -14.334 57 -26.001s31.167 -26.5 42.5 -44.5s18 -39 20 -63h-316zM344.005 242.001
c-9.33301 28 -25.499 50.499 -48.499 67.499s-49.5 25.5 -79.5 25.5c-28.667 0 -53.834 -8.66699 -75.501 -26s-36.167 -39.666 -43.5 -66.999h247zM188.006 -74c0 9.33301 3.16699 17.5 9.5 24.5s14.833 10.5 25.5 10.5c10 0 18.167 -3.5 24.5 -10.5s9.5 -15.167 9.5 -24.5
s-3.16699 -17.333 -9.5 -24s-14.5 -10 -24.5 -10c-10.667 0 -19.167 3.33301 -25.5 10s-9.5 14.667 -9.5 24zM313.006 386l-89 79l-88 -79h-21l88 121h43l87 -121h-20z" />
    <glyph glyph-name="uni1EC8" unicode="I&#x309;" horiz-adv-x="162" 
d="M53 0v467h54v-467h-54zM68 499c1.33301 17.333 5.66895 31.1689 13.002 41.502s14.666 19.166 21.999 26.499c6 6 11.833 12.167 17.5 18.5s8.5 14.166 8.5 23.499c0 16 -3.16699 29.333 -9.5 40s-18.166 16 -35.499 16c-19.333 0 -32.333 -7.16699 -39 -21.5
s-10 -30.166 -10 -47.499h-34c0 26.667 7.66699 47.5 23 62.5s35.666 22.5 60.999 22.5c22 0 41.833 -6 59.5 -18s26.5 -30.333 26.5 -55c0 -13.333 -4.33301 -24.5 -13 -33.5s-18.334 -17.5 -29.001 -25.5c-8 -6.66699 -16 -13.834 -24 -21.501s-14 -17.167 -18 -28.5h-19z
" />
    <glyph glyph-name="uni1EC9" unicode="i&#x309;" horiz-adv-x="162" 
d="M61 0v347h39v-347h-39zM64 386c1.33301 17.333 5.66895 31.1689 13.002 41.502s14.666 19.166 21.999 26.499c6 6 11.833 12.167 17.5 18.5s8.5 14.166 8.5 23.499c0 16 -3.16699 29.333 -9.5 40s-18.166 16 -35.499 16c-19.333 0 -32.333 -7.16699 -39 -21.5
s-10 -30.166 -10 -47.499h-34c0 26.667 7.66699 47.5 23 62.5s35.666 22.5 60.999 22.5c22 0 41.833 -6 59.5 -18s26.5 -30.333 26.5 -55c0 -13.333 -4.33301 -24.5 -13 -33.5s-18.334 -17.5 -29.001 -25.5c-8 -6.66699 -16 -13.834 -24 -21.501s-14 -17.167 -18 -28.5h-19z
" />
    <glyph glyph-name="uni1ECA" unicode="I&#x323;" horiz-adv-x="162" 
d="M53 0v467h54v-467h-54zM47 -73c0 9.33301 3.16699 17.5 9.5 24.5s14.833 10.5 25.5 10.5c10 0 18.167 -3.5 24.5 -10.5s9.5 -15.167 9.5 -24.5s-3.16699 -17.333 -9.5 -24s-14.5 -10 -24.5 -10c-10.667 0 -19.167 3.33301 -25.5 10s-9.5 14.667 -9.5 24z" />
    <glyph glyph-name="uni1ECB" unicode="i&#x323;" horiz-adv-x="162" 
d="M122 428c0 -9.33301 -3.33301 -17.333 -10 -24s-14.667 -10 -24 -10s-17.333 3.33301 -24 10s-10 14.667 -10 24s3.33301 17.166 10 23.499s14.667 9.5 24 9.5s17.333 -3.16699 24 -9.5s10 -14.166 10 -23.499zM64 0v349h46v-349h-46zM53 -76
c0 9.33301 3.16699 17.5 9.5 24.5s14.833 10.5 25.5 10.5c10 0 18.167 -3.5 24.5 -10.5s9.5 -15.167 9.5 -24.5s-3.16699 -17.333 -9.5 -24s-14.5 -10 -24.5 -10c-10.667 0 -19.167 3.33301 -25.5 10s-9.5 14.667 -9.5 24z" />
    <glyph glyph-name="uni1ECC" unicode="O&#x323;" horiz-adv-x="595" 
d="M570 233c0 -37.333 -7.66992 -71.334 -23.0029 -102.001s-35.666 -57 -60.999 -79s-54.333 -39 -87 -51s-66.667 -18 -102 -18s-69.333 6 -102 18s-61.667 29 -87 51s-45.5 48.333 -60.5 79s-22.5 64.334 -22.5 101.001s7.66699 70.334 23 101.001s35.833 57 61.5 79
s54.834 39.167 87.501 51.5s66.334 18.5 101.001 18.5s68.5 -6 101.5 -18s62 -29 87 -51s45.167 -48.333 60.5 -79s23 -64.334 23 -101.001zM502.997 232.999c0 30.667 -4.50195 60.001 -13.502 88.001s-22.333 52.5 -40 73.5s-39.167 37.667 -64.5 50
s-54.333 18.5 -87 18.5c-33.333 0 -62.833 -6.16699 -88.5 -18.5s-47.167 -29 -64.5 -50s-30.666 -45.5 -39.999 -73.5s-14 -57.667 -14 -89s4.5 -60.833 13.5 -88.5s22.333 -52 40 -73s39.167 -37.667 64.5 -50s54.666 -18.5 87.999 -18.5
c32.667 0 61.834 6.16699 87.501 18.5s47.334 29.166 65.001 50.499s31 45.833 40 73.5s13.5 57.167 13.5 88.5zM264.995 -76c0 9.33301 3.16699 17.5 9.5 24.5s14.833 10.5 25.5 10.5c10 0 18.167 -3.5 24.5 -10.5s9.5 -15.167 9.5 -24.5s-3.16699 -17.333 -9.5 -24
s-14.5 -10 -24.5 -10c-10.667 0 -19.167 3.33301 -25.5 10s-9.5 14.667 -9.5 24z" />
    <glyph glyph-name="uni1ECD" unicode="o&#x323;" horiz-adv-x="445" 
d="M420 173c0 -28 -5.16699 -53.332 -15.5 -75.999s-24.5 -41.834 -42.5 -57.501s-39 -27.834 -63 -36.501s-49.667 -13 -77 -13s-53 4.33301 -77 13s-44.833 20.834 -62.5 36.501s-31.667 34.834 -42 57.501s-15.5 48 -15.5 76s5.16699 53.333 15.5 76s24.5 42 42.5 58
s39 28.333 63 37s49.667 13 77 13c28 0 54 -4.16699 78 -12.5s44.833 -20.5 62.5 -36.5s31.5 -35.333 41.5 -58s15 -48.334 15 -77.001zM364 173.001c0 22.667 -2.66699 43.832 -8 63.499s-13.833 36.5 -25.5 50.5s-26.334 25 -44.001 33s-38.834 12 -63.501 12
c-25.333 0 -46.833 -4 -64.5 -12s-32.167 -19 -43.5 -33s-19.666 -30.667 -24.999 -50s-8 -40.333 -8 -63s2.66699 -43.667 8 -63s13.833 -36.166 25.5 -50.499s26.334 -25.5 44.001 -33.5s39.167 -12 64.5 -12c24.667 0 45.834 4 63.501 12s32.167 19 43.5 33
s19.666 30.667 24.999 50s8 40.333 8 63zM187 -76.001c0 9.33301 3.16699 17.5 9.5 24.5s14.833 10.5 25.5 10.5c10 0 18.167 -3.5 24.5 -10.5s9.5 -15.167 9.5 -24.5s-3.16699 -17.333 -9.5 -24s-14.5 -10 -24.5 -10c-10.667 0 -19.167 3.33301 -25.5 10
s-9.5 14.667 -9.5 24z" />
    <glyph glyph-name="uni1ECE" unicode="O&#x309;" horiz-adv-x="595" 
d="M570 233c0 -37.333 -7.66992 -71.334 -23.0029 -102.001s-35.666 -57 -60.999 -79s-54.333 -39 -87 -51s-66.667 -18 -102 -18s-69.333 6 -102 18s-61.667 29 -87 51s-45.5 48.333 -60.5 79s-22.5 64.334 -22.5 101.001s7.66699 70.334 23 101.001s35.833 57 61.5 79
s54.834 39.167 87.501 51.5s66.334 18.5 101.001 18.5s68.5 -6 101.5 -18s62 -29 87 -51s45.167 -48.333 60.5 -79s23 -64.334 23 -101.001zM502.997 232.999c0 30.667 -4.50195 60.001 -13.502 88.001s-22.333 52.5 -40 73.5s-39.167 37.667 -64.5 50
s-54.333 18.5 -87 18.5c-33.333 0 -62.833 -6.16699 -88.5 -18.5s-47.167 -29 -64.5 -50s-30.666 -45.5 -39.999 -73.5s-14 -57.667 -14 -89s4.5 -60.833 13.5 -88.5s22.333 -52 40 -73s39.167 -37.667 64.5 -50s54.666 -18.5 87.999 -18.5
c32.667 0 61.834 6.16699 87.501 18.5s47.334 29.166 65.001 50.499s31 45.833 40 73.5s13.5 57.167 13.5 88.5zM283.995 500c1.33301 17.333 5.66895 31.1689 13.002 41.502s14.666 19.166 21.999 26.499c6 6 11.833 12.167 17.5 18.5s8.5 14.166 8.5 23.499
c0 16 -3.16699 29.333 -9.5 40s-18.166 16 -35.499 16c-19.333 0 -32.333 -7.16699 -39 -21.5s-10 -30.166 -10 -47.499h-34c0 26.667 7.66699 47.5 23 62.5s35.666 22.5 60.999 22.5c22 0 41.833 -6 59.5 -18s26.5 -30.333 26.5 -55c0 -13.333 -4.33301 -24.5 -13 -33.5
s-18.334 -17.5 -29.001 -25.5c-8 -6.66699 -16 -13.834 -24 -21.501s-14 -17.167 -18 -28.5h-19z" />
    <glyph glyph-name="uni1ECF" unicode="o&#x309;" horiz-adv-x="445" 
d="M420 173c0 -28 -5.16699 -53.332 -15.5 -75.999s-24.5 -41.834 -42.5 -57.501s-39 -27.834 -63 -36.501s-49.667 -13 -77 -13s-53 4.33301 -77 13s-44.833 20.834 -62.5 36.501s-31.667 34.834 -42 57.501s-15.5 48 -15.5 76s5.16699 53.333 15.5 76s24.5 42 42.5 58
s39 28.333 63 37s49.667 13 77 13c28 0 54 -4.16699 78 -12.5s44.833 -20.5 62.5 -36.5s31.5 -35.333 41.5 -58s15 -48.334 15 -77.001zM364 173.001c0 22.667 -2.66699 43.832 -8 63.499s-13.833 36.5 -25.5 50.5s-26.334 25 -44.001 33s-38.834 12 -63.501 12
c-25.333 0 -46.833 -4 -64.5 -12s-32.167 -19 -43.5 -33s-19.666 -30.667 -24.999 -50s-8 -40.333 -8 -63s2.66699 -43.667 8 -63s13.833 -36.166 25.5 -50.499s26.334 -25.5 44.001 -33.5s39.167 -12 64.5 -12c24.667 0 45.834 4 63.501 12s32.167 19 43.5 33
s19.666 30.667 24.999 50s8 40.333 8 63zM213 382.999c1.33301 17.333 5.66895 31.1689 13.002 41.502s14.666 19.166 21.999 26.499c6 6 11.833 12.167 17.5 18.5s8.5 14.166 8.5 23.499c0 16 -3.16699 29.333 -9.5 40s-18.166 16 -35.499 16
c-19.333 0 -32.333 -7.16699 -39 -21.5s-10 -30.166 -10 -47.499h-34c0 26.667 7.66699 47.5 23 62.5s35.666 22.5 60.999 22.5c22 0 41.833 -6 59.5 -18s26.5 -30.333 26.5 -55c0 -13.333 -4.33301 -24.5 -13 -33.5s-18.334 -17.5 -29.001 -25.5
c-8 -6.66699 -16 -13.834 -24 -21.501s-14 -17.167 -18 -28.5h-19z" />
    <glyph glyph-name="uni1ED0" unicode="&#xd4;&#x301;" horiz-adv-x="595" 
d="M570 233c0 -37.333 -7.66992 -71.334 -23.0029 -102.001s-35.666 -57 -60.999 -79s-54.333 -39 -87 -51s-66.667 -18 -102 -18s-69.333 6 -102 18s-61.667 29 -87 51s-45.5 48.333 -60.5 79s-22.5 64.334 -22.5 101.001s7.66699 70.334 23 101.001s35.833 57 61.5 79
s54.834 39.167 87.501 51.5s66.334 18.5 101.001 18.5s68.5 -6 101.5 -18s62 -29 87 -51s45.167 -48.333 60.5 -79s23 -64.334 23 -101.001zM502.997 232.999c0 30.667 -4.50195 60.001 -13.502 88.001s-22.333 52.5 -40 73.5s-39.167 37.667 -64.5 50
s-54.333 18.5 -87 18.5c-33.333 0 -62.833 -6.16699 -88.5 -18.5s-47.167 -29 -64.5 -50s-30.666 -45.5 -39.999 -73.5s-14 -57.667 -14 -89s4.5 -60.833 13.5 -88.5s22.333 -52 40 -73s39.167 -37.667 64.5 -50s54.666 -18.5 87.999 -18.5
c32.667 0 61.834 6.16699 87.501 18.5s47.334 29.166 65.001 50.499s31 45.833 40 73.5s13.5 57.167 13.5 88.5zM387.995 503l-89 79l-88 -79h-21l88 121h43l87 -121h-20zM385.995 577l108.998 112.999c6.66699 7.33301 15 11 25 11c6.66699 0 11.834 -2.16699 15.501 -6.5
s5.5 -9.5 5.5 -15.5c0 -5.33301 -2.16699 -10.166 -6.5 -14.499s-11.166 -9.83301 -20.499 -16.5l-107 -72z" />
    <glyph glyph-name="uni1ED1" unicode="&#xf4;&#x301;" horiz-adv-x="488" 
d="M420 173c0 -28 -5.16699 -53.332 -15.5 -75.999s-24.5 -41.834 -42.5 -57.501s-39 -27.834 -63 -36.501s-49.667 -13 -77 -13s-53 4.33301 -77 13s-44.833 20.834 -62.5 36.501s-31.667 34.834 -42 57.501s-15.5 48 -15.5 76s5.16699 53.333 15.5 76s24.5 42 42.5 58
s39 28.333 63 37s49.667 13 77 13c28 0 54 -4.16699 78 -12.5s44.833 -20.5 62.5 -36.5s31.5 -35.333 41.5 -58s15 -48.334 15 -77.001zM364 173.001c0 22.667 -2.66699 43.832 -8 63.499s-13.833 36.5 -25.5 50.5s-26.334 25 -44.001 33s-38.834 12 -63.501 12
c-25.333 0 -46.833 -4 -64.5 -12s-32.167 -19 -43.5 -33s-19.666 -30.667 -24.999 -50s-8 -40.333 -8 -63s2.66699 -43.667 8 -63s13.833 -36.166 25.5 -50.499s26.334 -25.5 44.001 -33.5s39.167 -12 64.5 -12c24.667 0 45.834 4 63.501 12s32.167 19 43.5 33
s19.666 30.667 24.999 50s8 40.333 8 63zM322 387.999l-89 79l-88 -79h-21l88 121h43l87 -121h-20zM303 466.999l108.998 112.999c6.66699 7.33301 15 11 25 11c6.66699 0 11.834 -2.16699 15.501 -6.5s5.5 -9.5 5.5 -15.5c0 -5.33301 -2.16699 -10.166 -6.5 -14.499
s-11.166 -9.83301 -20.499 -16.5l-107 -72z" />
    <glyph glyph-name="uni1ED2" unicode="&#xd4;&#x300;" horiz-adv-x="595" 
d="M570 233c0 -37.333 -7.66992 -71.334 -23.0029 -102.001s-35.666 -57 -60.999 -79s-54.333 -39 -87 -51s-66.667 -18 -102 -18s-69.333 6 -102 18s-61.667 29 -87 51s-45.5 48.333 -60.5 79s-22.5 64.334 -22.5 101.001s7.66699 70.334 23 101.001s35.833 57 61.5 79
s54.834 39.167 87.501 51.5s66.334 18.5 101.001 18.5s68.5 -6 101.5 -18s62 -29 87 -51s45.167 -48.333 60.5 -79s23 -64.334 23 -101.001zM502.997 232.999c0 30.667 -4.50195 60.001 -13.502 88.001s-22.333 52.5 -40 73.5s-39.167 37.667 -64.5 50
s-54.333 18.5 -87 18.5c-33.333 0 -62.833 -6.16699 -88.5 -18.5s-47.167 -29 -64.5 -50s-30.666 -45.5 -39.999 -73.5s-14 -57.667 -14 -89s4.5 -60.833 13.5 -88.5s22.333 -52 40 -73s39.167 -37.667 64.5 -50s54.666 -18.5 87.999 -18.5
c32.667 0 61.834 6.16699 87.501 18.5s47.334 29.166 65.001 50.499s31 45.833 40 73.5s13.5 57.167 13.5 88.5zM394.995 506l-89 79l-88 -79h-21l88 121h43l87 -121h-20zM439.995 572l-106.001 72.001c-9.33301 6.66699 -16.166 12.167 -20.499 16.5
s-6.5 9.16602 -6.5 14.499c0 6 1.83301 11.167 5.5 15.5s8.5 6.5 14.5 6.5c10 0 18.333 -3.66699 25 -11l109 -113z" />
    <glyph glyph-name="uni1ED3" unicode="&#xf4;&#x300;" horiz-adv-x="459" 
d="M434 173c0 -28 -5.16699 -53.332 -15.5 -75.999s-24.5 -41.834 -42.5 -57.501s-39 -27.834 -63 -36.501s-49.667 -13 -77 -13s-53 4.33301 -77 13s-44.833 20.834 -62.5 36.501s-31.667 34.834 -42 57.501s-15.5 48 -15.5 76s5.16699 53.333 15.5 76s24.5 42 42.5 58
s39 28.333 63 37s49.667 13 77 13c28 0 54 -4.16699 78 -12.5s44.833 -20.5 62.5 -36.5s31.5 -35.333 41.5 -58s15 -48.334 15 -77.001zM378 173.001c0 22.667 -2.66699 43.832 -8 63.499s-13.833 36.5 -25.5 50.5s-26.334 25 -44.001 33s-38.834 12 -63.501 12
c-25.333 0 -46.833 -4 -64.5 -12s-32.167 -19 -43.5 -33s-19.666 -30.667 -24.999 -50s-8 -40.333 -8 -63s2.66699 -43.667 8 -63s13.833 -36.166 25.5 -50.499s26.334 -25.5 44.001 -33.5s39.167 -12 64.5 -12c24.667 0 45.834 4 63.501 12s32.167 19 43.5 33
s19.666 30.667 24.999 50s8 40.333 8 63zM327 387.999l-89 79l-88 -79h-21l88 121h43l87 -121h-20zM353 467.999l-106.001 72.001c-9.33301 6.66699 -16.166 12.167 -20.499 16.5s-6.5 9.16602 -6.5 14.499c0 6 1.83301 11.167 5.5 15.5s8.5 6.5 14.5 6.5
c10 0 18.333 -3.66699 25 -11l109 -113z" />
    <glyph glyph-name="uni1ED4" unicode="&#xd4;&#x309;" horiz-adv-x="595" 
d="M570 233c0 -37.333 -7.66992 -71.334 -23.0029 -102.001s-35.666 -57 -60.999 -79s-54.333 -39 -87 -51s-66.667 -18 -102 -18s-69.333 6 -102 18s-61.667 29 -87 51s-45.5 48.333 -60.5 79s-22.5 64.334 -22.5 101.001s7.66699 70.334 23 101.001s35.833 57 61.5 79
s54.834 39.167 87.501 51.5s66.334 18.5 101.001 18.5s68.5 -6 101.5 -18s62 -29 87 -51s45.167 -48.333 60.5 -79s23 -64.334 23 -101.001zM502.997 232.999c0 30.667 -4.50195 60.001 -13.502 88.001s-22.333 52.5 -40 73.5s-39.167 37.667 -64.5 50
s-54.333 18.5 -87 18.5c-33.333 0 -62.833 -6.16699 -88.5 -18.5s-47.167 -29 -64.5 -50s-30.666 -45.5 -39.999 -73.5s-14 -57.667 -14 -89s4.5 -60.833 13.5 -88.5s22.333 -52 40 -73s39.167 -37.667 64.5 -50s54.666 -18.5 87.999 -18.5
c32.667 0 61.834 6.16699 87.501 18.5s47.334 29.166 65.001 50.499s31 45.833 40 73.5s13.5 57.167 13.5 88.5zM389.995 503l-89 79l-88 -79h-21l88 121h43l87 -121h-20zM389.995 574c1.33301 17.333 5.66895 31.1689 13.002 41.502s14.666 19.166 21.999 26.499
c6 6 11.833 12.167 17.5 18.5s8.5 14.166 8.5 23.499c0 16 -3.16699 29.333 -9.5 40s-18.166 16 -35.499 16c-19.333 0 -32.333 -7.16699 -39 -21.5s-10 -30.166 -10 -47.499h-34c0 26.667 7.66699 47.5 23 62.5s35.666 22.5 60.999 22.5c22 0 41.833 -6 59.5 -18
s26.5 -30.333 26.5 -55c0 -13.333 -4.33301 -24.5 -13 -33.5s-18.334 -17.5 -29.001 -25.5c-8 -6.66699 -16 -13.834 -24 -21.501s-14 -17.167 -18 -28.5h-19z" />
    <glyph glyph-name="uni1ED5" unicode="&#xf4;&#x309;" horiz-adv-x="445" 
d="M420 173c0 -28 -5.16699 -53.332 -15.5 -75.999s-24.5 -41.834 -42.5 -57.501s-39 -27.834 -63 -36.501s-49.667 -13 -77 -13s-53 4.33301 -77 13s-44.833 20.834 -62.5 36.501s-31.667 34.834 -42 57.501s-15.5 48 -15.5 76s5.16699 53.333 15.5 76s24.5 42 42.5 58
s39 28.333 63 37s49.667 13 77 13c28 0 54 -4.16699 78 -12.5s44.833 -20.5 62.5 -36.5s31.5 -35.333 41.5 -58s15 -48.334 15 -77.001zM364 173.001c0 22.667 -2.66699 43.832 -8 63.499s-13.833 36.5 -25.5 50.5s-26.334 25 -44.001 33s-38.834 12 -63.501 12
c-25.333 0 -46.833 -4 -64.5 -12s-32.167 -19 -43.5 -33s-19.666 -30.667 -24.999 -50s-8 -40.333 -8 -63s2.66699 -43.667 8 -63s13.833 -36.166 25.5 -50.499s26.334 -25.5 44.001 -33.5s39.167 -12 64.5 -12c24.667 0 45.834 4 63.501 12s32.167 19 43.5 33
s19.666 30.667 24.999 50s8 40.333 8 63zM311 387.999l-89 79l-88 -79h-21l88 121h43l87 -121h-20zM306 466.999c1.33301 17.333 5.66895 31.1689 13.002 41.502s14.666 19.166 21.999 26.499c6 6 11.833 12.167 17.5 18.5s8.5 14.166 8.5 23.499
c0 16 -3.16699 29.333 -9.5 40s-18.166 16 -35.499 16c-19.333 0 -32.333 -7.16699 -39 -21.5s-10 -30.166 -10 -47.499h-34c0 26.667 7.66699 47.5 23 62.5s35.666 22.5 60.999 22.5c22 0 41.833 -6 59.5 -18s26.5 -30.333 26.5 -55c0 -13.333 -4.33301 -24.5 -13 -33.5
s-18.334 -17.5 -29.001 -25.5c-8 -6.66699 -16 -13.834 -24 -21.501s-14 -17.167 -18 -28.5h-19z" />
    <glyph glyph-name="uni1ED6" unicode="&#xd4;&#x303;" horiz-adv-x="595" 
d="M570 233c0 -37.333 -7.66992 -71.334 -23.0029 -102.001s-35.666 -57 -60.999 -79s-54.333 -39 -87 -51s-66.667 -18 -102 -18s-69.333 6 -102 18s-61.667 29 -87 51s-45.5 48.333 -60.5 79s-22.5 64.334 -22.5 101.001s7.66699 70.334 23 101.001s35.833 57 61.5 79
s54.834 39.167 87.501 51.5s66.334 18.5 101.001 18.5s68.5 -6 101.5 -18s62 -29 87 -51s45.167 -48.333 60.5 -79s23 -64.334 23 -101.001zM502.997 232.999c0 30.667 -4.50195 60.001 -13.502 88.001s-22.333 52.5 -40 73.5s-39.167 37.667 -64.5 50
s-54.333 18.5 -87 18.5c-33.333 0 -62.833 -6.16699 -88.5 -18.5s-47.167 -29 -64.5 -50s-30.666 -45.5 -39.999 -73.5s-14 -57.667 -14 -89s4.5 -60.833 13.5 -88.5s22.333 -52 40 -73s39.167 -37.667 64.5 -50s54.666 -18.5 87.999 -18.5
c32.667 0 61.834 6.16699 87.501 18.5s47.334 29.166 65.001 50.499s31 45.833 40 73.5s13.5 57.167 13.5 88.5zM394.995 503l-89 79l-88 -79h-21l88 121h43l87 -121h-20zM187.995 639c2.66699 13.333 7.33691 25.335 14.0039 36.002
c5.33301 9.33301 12.666 17.666 21.999 24.999s21.666 11 36.999 11c10.667 0 20.667 -1.83301 30 -5.5s18.166 -7.83398 26.499 -12.501s16.333 -8.83398 24 -12.501s15.167 -5.5 22.5 -5.5c8 0 14.667 2 20 6s9.66602 8.66699 12.999 14c4 6 7.33301 12.667 10 20h16
c-2.66699 -14.667 -7 -27.667 -13 -39c-5.33301 -9.33301 -12.833 -18 -22.5 -26s-22.834 -12 -39.501 -12c-11.333 0 -21.333 1.83301 -30 5.5s-16.667 7.83398 -24 12.501s-14.666 8.83398 -21.999 12.501s-15.333 5.5 -24 5.5c-8 0 -14.833 -1.83301 -20.5 -5.5
s-10.167 -7.83398 -13.5 -12.501c-4 -5.33301 -7 -11 -9 -17h-17z" />
    <glyph glyph-name="uni1ED7" unicode="&#xf4;&#x303;" horiz-adv-x="445" 
d="M420 173c0 -28 -5.16699 -53.332 -15.5 -75.999s-24.5 -41.834 -42.5 -57.501s-39 -27.834 -63 -36.501s-49.667 -13 -77 -13s-53 4.33301 -77 13s-44.833 20.834 -62.5 36.501s-31.667 34.834 -42 57.501s-15.5 48 -15.5 76s5.16699 53.333 15.5 76s24.5 42 42.5 58
s39 28.333 63 37s49.667 13 77 13c28 0 54 -4.16699 78 -12.5s44.833 -20.5 62.5 -36.5s31.5 -35.333 41.5 -58s15 -48.334 15 -77.001zM364 173.001c0 22.667 -2.66699 43.832 -8 63.499s-13.833 36.5 -25.5 50.5s-26.334 25 -44.001 33s-38.834 12 -63.501 12
c-25.333 0 -46.833 -4 -64.5 -12s-32.167 -19 -43.5 -33s-19.666 -30.667 -24.999 -50s-8 -40.333 -8 -63s2.66699 -43.667 8 -63s13.833 -36.166 25.5 -50.499s26.334 -25.5 44.001 -33.5s39.167 -12 64.5 -12c24.667 0 45.834 4 63.501 12s32.167 19 43.5 33
s19.666 30.667 24.999 50s8 40.333 8 63zM312 387.999l-89 79l-88 -79h-21l88 121h43l87 -121h-20zM105 526.999c2.66699 13.333 7.33691 25.335 14.0039 36.002c5.33301 9.33301 12.666 17.666 21.999 24.999s21.666 11 36.999 11c10.667 0 20.667 -1.83301 30 -5.5
s18.166 -7.83398 26.499 -12.501s16.333 -8.83398 24 -12.501s15.167 -5.5 22.5 -5.5c8 0 14.667 2 20 6s9.66602 8.66699 12.999 14c4 6 7.33301 12.667 10 20h16c-2.66699 -14.667 -7 -27.667 -13 -39c-5.33301 -9.33301 -12.833 -18 -22.5 -26s-22.834 -12 -39.501 -12
c-11.333 0 -21.333 1.83301 -30 5.5s-16.667 7.83398 -24 12.501s-14.666 8.83398 -21.999 12.501s-15.333 5.5 -24 5.5c-8 0 -14.833 -1.83301 -20.5 -5.5s-10.167 -7.83398 -13.5 -12.501c-4 -5.33301 -7 -11 -9 -17h-17z" />
    <glyph glyph-name="uni1ED8" unicode="&#xd4;&#x323;" horiz-adv-x="595" 
d="M570 233c0 -37.333 -7.66992 -71.334 -23.0029 -102.001s-35.666 -57 -60.999 -79s-54.333 -39 -87 -51s-66.667 -18 -102 -18s-69.333 6 -102 18s-61.667 29 -87 51s-45.5 48.333 -60.5 79s-22.5 64.334 -22.5 101.001s7.66699 70.334 23 101.001s35.833 57 61.5 79
s54.834 39.167 87.501 51.5s66.334 18.5 101.001 18.5s68.5 -6 101.5 -18s62 -29 87 -51s45.167 -48.333 60.5 -79s23 -64.334 23 -101.001zM502.997 232.999c0 30.667 -4.50195 60.001 -13.502 88.001s-22.333 52.5 -40 73.5s-39.167 37.667 -64.5 50
s-54.333 18.5 -87 18.5c-33.333 0 -62.833 -6.16699 -88.5 -18.5s-47.167 -29 -64.5 -50s-30.666 -45.5 -39.999 -73.5s-14 -57.667 -14 -89s4.5 -60.833 13.5 -88.5s22.333 -52 40 -73s39.167 -37.667 64.5 -50s54.666 -18.5 87.999 -18.5
c32.667 0 61.834 6.16699 87.501 18.5s47.334 29.166 65.001 50.499s31 45.833 40 73.5s13.5 57.167 13.5 88.5zM265.995 -76c0 9.33301 3.16699 17.5 9.5 24.5s14.833 10.5 25.5 10.5c10 0 18.167 -3.5 24.5 -10.5s9.5 -15.167 9.5 -24.5s-3.16699 -17.333 -9.5 -24
s-14.5 -10 -24.5 -10c-10.667 0 -19.167 3.33301 -25.5 10s-9.5 14.667 -9.5 24zM392.995 503l-89 79l-88 -79h-21l88 121h43l87 -121h-20z" />
    <glyph glyph-name="uni1ED9" unicode="&#xf4;&#x323;" horiz-adv-x="445" 
d="M420 173c0 -28 -5.16699 -53.332 -15.5 -75.999s-24.5 -41.834 -42.5 -57.501s-39 -27.834 -63 -36.501s-49.667 -13 -77 -13s-53 4.33301 -77 13s-44.833 20.834 -62.5 36.501s-31.667 34.834 -42 57.501s-15.5 48 -15.5 76s5.16699 53.333 15.5 76s24.5 42 42.5 58
s39 28.333 63 37s49.667 13 77 13c28 0 54 -4.16699 78 -12.5s44.833 -20.5 62.5 -36.5s31.5 -35.333 41.5 -58s15 -48.334 15 -77.001zM364 173.001c0 22.667 -2.66699 43.832 -8 63.499s-13.833 36.5 -25.5 50.5s-26.334 25 -44.001 33s-38.834 12 -63.501 12
c-25.333 0 -46.833 -4 -64.5 -12s-32.167 -19 -43.5 -33s-19.666 -30.667 -24.999 -50s-8 -40.333 -8 -63s2.66699 -43.667 8 -63s13.833 -36.166 25.5 -50.499s26.334 -25.5 44.001 -33.5s39.167 -12 64.5 -12c24.667 0 45.834 4 63.501 12s32.167 19 43.5 33
s19.666 30.667 24.999 50s8 40.333 8 63zM185 -76.001c0 9.33301 3.16699 17.5 9.5 24.5s14.833 10.5 25.5 10.5c10 0 18.167 -3.5 24.5 -10.5s9.5 -15.167 9.5 -24.5s-3.16699 -17.333 -9.5 -24s-14.5 -10 -24.5 -10c-10.667 0 -19.167 3.33301 -25.5 10
s-9.5 14.667 -9.5 24zM308 385.999l-89 79l-88 -79h-21l88 121h43l87 -121h-20z" />
    <glyph glyph-name="uni1EDA" unicode="&#x1a0;&#x301;" horiz-adv-x="592" 
d="M602 501c0 -36 -10.167 -64.5 -30.5 -85.5s-48.166 -33.833 -83.499 -38.5v16c12.667 2.66699 23 7.66699 31 15s14.167 16 18.5 26s7.16602 20.833 8.49902 32.5s2 23.167 2 34.5h54zM570 233c0 -37.333 -7.66992 -71.334 -23.0029 -102.001s-35.666 -57 -60.999 -79
s-54.333 -39 -87 -51s-66.667 -18 -102 -18s-69.333 6 -102 18s-61.667 29 -87 51s-45.5 48.333 -60.5 79s-22.5 64.334 -22.5 101.001s7.66699 70.334 23 101.001s35.833 57 61.5 79s54.834 39.167 87.501 51.5s66.334 18.5 101.001 18.5s68.5 -6 101.5 -18s62 -29 87 -51
s45.167 -48.333 60.5 -79s23 -64.334 23 -101.001zM502.997 232.999c0 30.667 -4.50195 60.001 -13.502 88.001s-22.333 52.5 -40 73.5s-39.167 37.667 -64.5 50s-54.333 18.5 -87 18.5c-33.333 0 -62.833 -6.16699 -88.5 -18.5s-47.167 -29 -64.5 -50
s-30.666 -45.5 -39.999 -73.5s-14 -57.667 -14 -89s4.5 -60.833 13.5 -88.5s22.333 -52 40 -73s39.167 -37.667 64.5 -50s54.666 -18.5 87.999 -18.5c32.667 0 61.834 6.16699 87.501 18.5s47.334 29.166 65.001 50.499s31 45.833 40 73.5s13.5 57.167 13.5 88.5z
M229.995 498l108.998 112.999c6.66699 7.33301 15 11 25 11c6.66699 0 11.834 -2.16699 15.501 -6.5s5.5 -9.5 5.5 -15.5c0 -5.33301 -2.16699 -10.166 -6.5 -14.499s-11.166 -9.83301 -20.499 -16.5l-107 -72z" />
    <glyph glyph-name="uni1EDB" unicode="&#x1a1;&#x301;" horiz-adv-x="443" 
d="M475 363c0 -34 -9.5 -60.834 -28.5 -80.501s-45.5 -31.5 -79.5 -35.5v18c12 2.66699 21.5 7.16699 28.5 13.5s12.333 14 16 23s6.16699 18.833 7.5 29.5s2 21.334 2 32.001h54zM420 173.999c0 -28 -5.16699 -53.333 -15.5 -76s-24.5 -42 -42.5 -58s-39 -28.333 -63 -37
s-49.667 -13 -77 -13s-53 4.33301 -77 13s-44.833 21 -62.5 37s-31.667 35.333 -42 58s-15.5 48 -15.5 76s5.16699 53.333 15.5 76s24.5 42 42.5 58s39 28.333 63 37s49.667 13 77 13c28 0 54 -4.33301 78 -13s44.833 -21 62.5 -37s31.5 -35.333 41.5 -58s15 -48 15 -76z
M364 173.999c0 22.667 -2.66699 43.6689 -8 63.002s-13.833 36.166 -25.5 50.499s-26.334 25.5 -44.001 33.5s-38.834 12 -63.501 12c-25.333 0 -46.833 -4 -64.5 -12s-32.167 -19 -43.5 -33s-19.666 -30.833 -24.999 -50.5s-8 -40.834 -8 -63.501s2.66699 -43.667 8 -63
s13.833 -36.166 25.5 -50.499s26.334 -25.5 44.001 -33.5s39.167 -12 64.5 -12c24.667 0 45.834 4 63.501 12s32.167 19 43.5 33s19.666 30.667 24.999 50s8 40.666 8 63.999zM153 390.001l108.998 112.999c6.66699 7.33301 15 11 25 11
c6.66699 0 11.834 -2.16699 15.501 -6.5s5.5 -9.5 5.5 -15.5c0 -5.33301 -2.16699 -10.166 -6.5 -14.499s-11.166 -9.83301 -20.499 -16.5l-107 -72z" />
    <glyph glyph-name="uni1EDC" unicode="&#x1a0;&#x300;" horiz-adv-x="592" 
d="M602 501c0 -36 -10.167 -64.5 -30.5 -85.5s-48.166 -33.833 -83.499 -38.5v16c12.667 2.66699 23 7.66699 31 15s14.167 16 18.5 26s7.16602 20.833 8.49902 32.5s2 23.167 2 34.5h54zM570 233c0 -37.333 -7.66992 -71.334 -23.0029 -102.001s-35.666 -57 -60.999 -79
s-54.333 -39 -87 -51s-66.667 -18 -102 -18s-69.333 6 -102 18s-61.667 29 -87 51s-45.5 48.333 -60.5 79s-22.5 64.334 -22.5 101.001s7.66699 70.334 23 101.001s35.833 57 61.5 79s54.834 39.167 87.501 51.5s66.334 18.5 101.001 18.5s68.5 -6 101.5 -18s62 -29 87 -51
s45.167 -48.333 60.5 -79s23 -64.334 23 -101.001zM502.997 232.999c0 30.667 -4.50195 60.001 -13.502 88.001s-22.333 52.5 -40 73.5s-39.167 37.667 -64.5 50s-54.333 18.5 -87 18.5c-33.333 0 -62.833 -6.16699 -88.5 -18.5s-47.167 -29 -64.5 -50
s-30.666 -45.5 -39.999 -73.5s-14 -57.667 -14 -89s4.5 -60.833 13.5 -88.5s22.333 -52 40 -73s39.167 -37.667 64.5 -50s54.666 -18.5 87.999 -18.5c32.667 0 61.834 6.16699 87.501 18.5s47.334 29.166 65.001 50.499s31 45.833 40 73.5s13.5 57.167 13.5 88.5z
M356.995 500l-106.001 72.001c-9.33301 6.66699 -16.166 12.167 -20.499 16.5s-6.5 9.16602 -6.5 14.499c0 6 1.83301 11.167 5.5 15.5s8.5 6.5 14.5 6.5c10 0 18.333 -3.66699 25 -11l109 -113z" />
    <glyph glyph-name="uni1EDD" unicode="&#x1a1;&#x300;" horiz-adv-x="443" 
d="M475 363c0 -34 -9.5 -60.834 -28.5 -80.501s-45.5 -31.5 -79.5 -35.5v18c12 2.66699 21.5 7.16699 28.5 13.5s12.333 14 16 23s6.16699 18.833 7.5 29.5s2 21.334 2 32.001h54zM420 173.999c0 -28 -5.16699 -53.333 -15.5 -76s-24.5 -42 -42.5 -58s-39 -28.333 -63 -37
s-49.667 -13 -77 -13s-53 4.33301 -77 13s-44.833 21 -62.5 37s-31.667 35.333 -42 58s-15.5 48 -15.5 76s5.16699 53.333 15.5 76s24.5 42 42.5 58s39 28.333 63 37s49.667 13 77 13c28 0 54 -4.33301 78 -13s44.833 -21 62.5 -37s31.5 -35.333 41.5 -58s15 -48 15 -76z
M364 173.999c0 22.667 -2.66699 43.6689 -8 63.002s-13.833 36.166 -25.5 50.499s-26.334 25.5 -44.001 33.5s-38.834 12 -63.501 12c-25.333 0 -46.833 -4 -64.5 -12s-32.167 -19 -43.5 -33s-19.666 -30.833 -24.999 -50.5s-8 -40.834 -8 -63.501s2.66699 -43.667 8 -63
s13.833 -36.166 25.5 -50.499s26.334 -25.5 44.001 -33.5s39.167 -12 64.5 -12c24.667 0 45.834 4 63.501 12s32.167 19 43.5 33s19.666 30.667 24.999 50s8 40.666 8 63.999zM288 392.001l-106.001 72.001c-9.33301 6.66699 -16.166 12.167 -20.499 16.5
s-6.5 9.16602 -6.5 14.499c0 6 1.83301 11.167 5.5 15.5s8.5 6.5 14.5 6.5c10 0 18.333 -3.66699 25 -11l109 -113z" />
    <glyph glyph-name="uni1EDE" unicode="&#x1a0;&#x309;" horiz-adv-x="592" 
d="M602 501c0 -36 -10.167 -64.5 -30.5 -85.5s-48.166 -33.833 -83.499 -38.5v16c12.667 2.66699 23 7.66699 31 15s14.167 16 18.5 26s7.16602 20.833 8.49902 32.5s2 23.167 2 34.5h54zM570 233c0 -37.333 -7.66992 -71.334 -23.0029 -102.001s-35.666 -57 -60.999 -79
s-54.333 -39 -87 -51s-66.667 -18 -102 -18s-69.333 6 -102 18s-61.667 29 -87 51s-45.5 48.333 -60.5 79s-22.5 64.334 -22.5 101.001s7.66699 70.334 23 101.001s35.833 57 61.5 79s54.834 39.167 87.501 51.5s66.334 18.5 101.001 18.5s68.5 -6 101.5 -18s62 -29 87 -51
s45.167 -48.333 60.5 -79s23 -64.334 23 -101.001zM502.997 232.999c0 30.667 -4.50195 60.001 -13.502 88.001s-22.333 52.5 -40 73.5s-39.167 37.667 -64.5 50s-54.333 18.5 -87 18.5c-33.333 0 -62.833 -6.16699 -88.5 -18.5s-47.167 -29 -64.5 -50
s-30.666 -45.5 -39.999 -73.5s-14 -57.667 -14 -89s4.5 -60.833 13.5 -88.5s22.333 -52 40 -73s39.167 -37.667 64.5 -50s54.666 -18.5 87.999 -18.5c32.667 0 61.834 6.16699 87.501 18.5s47.334 29.166 65.001 50.499s31 45.833 40 73.5s13.5 57.167 13.5 88.5z
M283.995 501c1.33301 17.333 5.66895 31.1689 13.002 41.502s14.666 19.166 21.999 26.499c6 6 11.833 12.167 17.5 18.5s8.5 14.166 8.5 23.499c0 16 -3.16699 29.333 -9.5 40s-18.166 16 -35.499 16c-19.333 0 -32.333 -7.16699 -39 -21.5s-10 -30.166 -10 -47.499h-34
c0 26.667 7.66699 47.5 23 62.5s35.666 22.5 60.999 22.5c22 0 41.833 -6 59.5 -18s26.5 -30.333 26.5 -55c0 -13.333 -4.33301 -24.5 -13 -33.5s-18.334 -17.5 -29.001 -25.5c-8 -6.66699 -16 -13.834 -24 -21.501s-14 -17.167 -18 -28.5h-19z" />
    <glyph glyph-name="uni1EDF" unicode="&#x1a1;&#x309;" horiz-adv-x="443" 
d="M475 363c0 -34 -9.5 -60.834 -28.5 -80.501s-45.5 -31.5 -79.5 -35.5v18c12 2.66699 21.5 7.16699 28.5 13.5s12.333 14 16 23s6.16699 18.833 7.5 29.5s2 21.334 2 32.001h54zM420 173.999c0 -28 -5.16699 -53.333 -15.5 -76s-24.5 -42 -42.5 -58s-39 -28.333 -63 -37
s-49.667 -13 -77 -13s-53 4.33301 -77 13s-44.833 21 -62.5 37s-31.667 35.333 -42 58s-15.5 48 -15.5 76s5.16699 53.333 15.5 76s24.5 42 42.5 58s39 28.333 63 37s49.667 13 77 13c28 0 54 -4.33301 78 -13s44.833 -21 62.5 -37s31.5 -35.333 41.5 -58s15 -48 15 -76z
M364 173.999c0 22.667 -2.66699 43.6689 -8 63.002s-13.833 36.166 -25.5 50.499s-26.334 25.5 -44.001 33.5s-38.834 12 -63.501 12c-25.333 0 -46.833 -4 -64.5 -12s-32.167 -19 -43.5 -33s-19.666 -30.833 -24.999 -50.5s-8 -40.834 -8 -63.501s2.66699 -43.667 8 -63
s13.833 -36.166 25.5 -50.499s26.334 -25.5 44.001 -33.5s39.167 -12 64.5 -12c24.667 0 45.834 4 63.501 12s32.167 19 43.5 33s19.666 30.667 24.999 50s8 40.666 8 63.999zM217 388.001c1.33301 17.333 5.66895 31.1689 13.002 41.502s14.666 19.166 21.999 26.499
c6 6 11.833 12.167 17.5 18.5s8.5 14.166 8.5 23.499c0 16 -3.16699 29.333 -9.5 40s-18.166 16 -35.499 16c-19.333 0 -32.333 -7.16699 -39 -21.5s-10 -30.166 -10 -47.499h-34c0 26.667 7.66699 47.5 23 62.5s35.666 22.5 60.999 22.5c22 0 41.833 -6 59.5 -18
s26.5 -30.333 26.5 -55c0 -13.333 -4.33301 -24.5 -13 -33.5s-18.334 -17.5 -29.001 -25.5c-8 -6.66699 -16 -13.834 -24 -21.501s-14 -17.167 -18 -28.5h-19z" />
    <glyph glyph-name="uni1EE0" unicode="&#x1a0;&#x303;" horiz-adv-x="592" 
d="M602 501c0 -36 -10.167 -64.5 -30.5 -85.5s-48.166 -33.833 -83.499 -38.5v16c12.667 2.66699 23 7.66699 31 15s14.167 16 18.5 26s7.16602 20.833 8.49902 32.5s2 23.167 2 34.5h54zM570 233c0 -37.333 -7.66992 -71.334 -23.0029 -102.001s-35.666 -57 -60.999 -79
s-54.333 -39 -87 -51s-66.667 -18 -102 -18s-69.333 6 -102 18s-61.667 29 -87 51s-45.5 48.333 -60.5 79s-22.5 64.334 -22.5 101.001s7.66699 70.334 23 101.001s35.833 57 61.5 79s54.834 39.167 87.501 51.5s66.334 18.5 101.001 18.5s68.5 -6 101.5 -18s62 -29 87 -51
s45.167 -48.333 60.5 -79s23 -64.334 23 -101.001zM502.997 232.999c0 30.667 -4.50195 60.001 -13.502 88.001s-22.333 52.5 -40 73.5s-39.167 37.667 -64.5 50s-54.333 18.5 -87 18.5c-33.333 0 -62.833 -6.16699 -88.5 -18.5s-47.167 -29 -64.5 -50
s-30.666 -45.5 -39.999 -73.5s-14 -57.667 -14 -89s4.5 -60.833 13.5 -88.5s22.333 -52 40 -73s39.167 -37.667 64.5 -50s54.666 -18.5 87.999 -18.5c32.667 0 61.834 6.16699 87.501 18.5s47.334 29.166 65.001 50.499s31 45.833 40 73.5s13.5 57.167 13.5 88.5z
M178.995 500c2.66699 13.333 7.33691 25.335 14.0039 36.002c5.33301 9.33301 12.666 17.666 21.999 24.999s21.666 11 36.999 11c10.667 0 20.667 -1.83301 30 -5.5s18.166 -7.83398 26.499 -12.501s16.333 -8.83398 24 -12.501s15.167 -5.5 22.5 -5.5c8 0 14.667 2 20 6
s9.66602 8.66699 12.999 14c4 6 7.33301 12.667 10 20h16c-2.66699 -14.667 -7 -27.667 -13 -39c-5.33301 -9.33301 -12.833 -18 -22.5 -26s-22.834 -12 -39.501 -12c-11.333 0 -21.333 1.83301 -30 5.5s-16.667 7.83398 -24 12.501s-14.666 8.83398 -21.999 12.501
s-15.333 5.5 -24 5.5c-8 0 -14.833 -1.83301 -20.5 -5.5s-10.167 -7.83398 -13.5 -12.501c-4 -5.33301 -7 -11 -9 -17h-17z" />
    <glyph glyph-name="uni1EE1" unicode="&#x1a1;&#x303;" horiz-adv-x="443" 
d="M475 363c0 -34 -9.5 -60.834 -28.5 -80.501s-45.5 -31.5 -79.5 -35.5v18c12 2.66699 21.5 7.16699 28.5 13.5s12.333 14 16 23s6.16699 18.833 7.5 29.5s2 21.334 2 32.001h54zM420 173.999c0 -28 -5.16699 -53.333 -15.5 -76s-24.5 -42 -42.5 -58s-39 -28.333 -63 -37
s-49.667 -13 -77 -13s-53 4.33301 -77 13s-44.833 21 -62.5 37s-31.667 35.333 -42 58s-15.5 48 -15.5 76s5.16699 53.333 15.5 76s24.5 42 42.5 58s39 28.333 63 37s49.667 13 77 13c28 0 54 -4.33301 78 -13s44.833 -21 62.5 -37s31.5 -35.333 41.5 -58s15 -48 15 -76z
M364 173.999c0 22.667 -2.66699 43.6689 -8 63.002s-13.833 36.166 -25.5 50.499s-26.334 25.5 -44.001 33.5s-38.834 12 -63.501 12c-25.333 0 -46.833 -4 -64.5 -12s-32.167 -19 -43.5 -33s-19.666 -30.833 -24.999 -50.5s-8 -40.834 -8 -63.501s2.66699 -43.667 8 -63
s13.833 -36.166 25.5 -50.499s26.334 -25.5 44.001 -33.5s39.167 -12 64.5 -12c24.667 0 45.834 4 63.501 12s32.167 19 43.5 33s19.666 30.667 24.999 50s8 40.666 8 63.999zM119 390.001c2.66699 13.333 7.33691 25.335 14.0039 36.002
c5.33301 9.33301 12.666 17.666 21.999 24.999s21.666 11 36.999 11c10.667 0 20.667 -1.83301 30 -5.5s18.166 -7.83398 26.499 -12.501s16.333 -8.83398 24 -12.501s15.167 -5.5 22.5 -5.5c8 0 14.667 2 20 6s9.66602 8.66699 12.999 14c4 6 7.33301 12.667 10 20h16
c-2.66699 -14.667 -7 -27.667 -13 -39c-5.33301 -9.33301 -12.833 -18 -22.5 -26s-22.834 -12 -39.501 -12c-11.333 0 -21.333 1.83301 -30 5.5s-16.667 7.83398 -24 12.501s-14.666 8.83398 -21.999 12.501s-15.333 5.5 -24 5.5c-8 0 -14.833 -1.83301 -20.5 -5.5
s-10.167 -7.83398 -13.5 -12.501c-4 -5.33301 -7 -11 -9 -17h-17z" />
    <glyph glyph-name="uni1EE2" unicode="&#x1a0;&#x323;" horiz-adv-x="592" 
d="M602 501c0 -36 -10.167 -64.5 -30.5 -85.5s-48.166 -33.833 -83.499 -38.5v16c12.667 2.66699 23 7.66699 31 15s14.167 16 18.5 26s7.16602 20.833 8.49902 32.5s2 23.167 2 34.5h54zM570 233c0 -37.333 -7.66992 -71.334 -23.0029 -102.001s-35.666 -57 -60.999 -79
s-54.333 -39 -87 -51s-66.667 -18 -102 -18s-69.333 6 -102 18s-61.667 29 -87 51s-45.5 48.333 -60.5 79s-22.5 64.334 -22.5 101.001s7.66699 70.334 23 101.001s35.833 57 61.5 79s54.834 39.167 87.501 51.5s66.334 18.5 101.001 18.5s68.5 -6 101.5 -18s62 -29 87 -51
s45.167 -48.333 60.5 -79s23 -64.334 23 -101.001zM502.997 232.999c0 30.667 -4.50195 60.001 -13.502 88.001s-22.333 52.5 -40 73.5s-39.167 37.667 -64.5 50s-54.333 18.5 -87 18.5c-33.333 0 -62.833 -6.16699 -88.5 -18.5s-47.167 -29 -64.5 -50
s-30.666 -45.5 -39.999 -73.5s-14 -57.667 -14 -89s4.5 -60.833 13.5 -88.5s22.333 -52 40 -73s39.167 -37.667 64.5 -50s54.666 -18.5 87.999 -18.5c32.667 0 61.834 6.16699 87.501 18.5s47.334 29.166 65.001 50.499s31 45.833 40 73.5s13.5 57.167 13.5 88.5z
M269.995 -76c0 9.33301 3.16699 17.5 9.5 24.5s14.833 10.5 25.5 10.5c10 0 18.167 -3.5 24.5 -10.5s9.5 -15.167 9.5 -24.5s-3.16699 -17.333 -9.5 -24s-14.5 -10 -24.5 -10c-10.667 0 -19.167 3.33301 -25.5 10s-9.5 14.667 -9.5 24z" />
    <glyph glyph-name="uni1EE3" unicode="&#x1a1;&#x323;" horiz-adv-x="443" 
d="M475 363c0 -34 -9.5 -60.834 -28.5 -80.501s-45.5 -31.5 -79.5 -35.5v18c12 2.66699 21.5 7.16699 28.5 13.5s12.333 14 16 23s6.16699 18.833 7.5 29.5s2 21.334 2 32.001h54zM420 173.999c0 -28 -5.16699 -53.333 -15.5 -76s-24.5 -42 -42.5 -58s-39 -28.333 -63 -37
s-49.667 -13 -77 -13s-53 4.33301 -77 13s-44.833 21 -62.5 37s-31.667 35.333 -42 58s-15.5 48 -15.5 76s5.16699 53.333 15.5 76s24.5 42 42.5 58s39 28.333 63 37s49.667 13 77 13c28 0 54 -4.33301 78 -13s44.833 -21 62.5 -37s31.5 -35.333 41.5 -58s15 -48 15 -76z
M364 173.999c0 22.667 -2.66699 43.6689 -8 63.002s-13.833 36.166 -25.5 50.499s-26.334 25.5 -44.001 33.5s-38.834 12 -63.501 12c-25.333 0 -46.833 -4 -64.5 -12s-32.167 -19 -43.5 -33s-19.666 -30.833 -24.999 -50.5s-8 -40.834 -8 -63.501s2.66699 -43.667 8 -63
s13.833 -36.166 25.5 -50.499s26.334 -25.5 44.001 -33.5s39.167 -12 64.5 -12c24.667 0 45.834 4 63.501 12s32.167 19 43.5 33s19.666 30.667 24.999 50s8 40.666 8 63.999zM190 -75.999c0 9.33301 3.16699 17.5 9.5 24.5s14.833 10.5 25.5 10.5
c10 0 18.167 -3.5 24.5 -10.5s9.5 -15.167 9.5 -24.5s-3.16699 -17.333 -9.5 -24s-14.5 -10 -24.5 -10c-10.667 0 -19.167 3.33301 -25.5 10s-9.5 14.667 -9.5 24z" />
    <glyph glyph-name="uni1EE4" unicode="U&#x323;" horiz-adv-x="573" 
d="M523 190c0 -36 -6.16602 -66.833 -18.499 -92.5s-29.166 -47 -50.499 -64s-46.5 -29.5 -75.5 -37.5s-59.833 -12 -92.5 -12s-63.334 4 -92.001 12s-53.667 20.5 -75 37.5s-38.166 38.5 -50.499 64.5s-18.5 56.667 -18.5 92v277h54v-288c0 -26.667 4.66699 -50.667 14 -72
s22.166 -39.5 38.499 -54.5s35.5 -26.5 57.5 -34.5s46 -12 72 -12s50.167 4 72.5 12s41.666 19.5 57.999 34.5s29.333 33.167 39 54.5s14.5 45.333 14.5 72v288h53v-277v0zM256.001 -76c0 9.33301 3.16699 17.5 9.5 24.5s14.833 10.5 25.5 10.5c10 0 18.167 -3.5 24.5 -10.5
s9.5 -15.167 9.5 -24.5s-3.16699 -17.333 -9.5 -24s-14.5 -10 -24.5 -10c-10.667 0 -19.167 3.33301 -25.5 10s-9.5 14.667 -9.5 24z" />
    <glyph glyph-name="uni1EE5" unicode="u&#x323;" horiz-adv-x="419" 
d="M328 0l-0.000976562 65c-11.333 -21.333 -28.666 -39.333 -51.999 -54s-47 -22 -71 -22c-19.333 0 -38.666 2.16699 -57.999 6.5s-36.5 11.333 -51.5 21s-27.167 22.334 -36.5 38.001s-14 34.834 -14 57.501v236h48v-242c0 -15.333 3.16699 -28.833 9.5 -40.5
s14.666 -21.334 24.999 -29.001s22.166 -13.334 35.499 -17.001s27.333 -5.5 42 -5.5c18.667 0 35.667 3.83301 51 11.5s28.333 18 39 31s18.834 27.833 24.501 44.5s8.5 33.667 8.5 51v196h46v-348h-46zM190.999 -76c0 9.33301 3.16699 17.5 9.5 24.5
s14.833 10.5 25.5 10.5c10 0 18.167 -3.5 24.5 -10.5s9.5 -15.167 9.5 -24.5s-3.16699 -17.333 -9.5 -24s-14.5 -10 -24.5 -10c-10.667 0 -19.167 3.33301 -25.5 10s-9.5 14.667 -9.5 24z" />
    <glyph glyph-name="uni1EE6" unicode="U&#x309;" horiz-adv-x="573" 
d="M523 190c0 -36 -6.16602 -66.833 -18.499 -92.5s-29.166 -47 -50.499 -64s-46.5 -29.5 -75.5 -37.5s-59.833 -12 -92.5 -12s-63.334 4 -92.001 12s-53.667 20.5 -75 37.5s-38.166 38.5 -50.499 64.5s-18.5 56.667 -18.5 92v277h54v-288c0 -26.667 4.66699 -50.667 14 -72
s22.166 -39.5 38.499 -54.5s35.5 -26.5 57.5 -34.5s46 -12 72 -12s50.167 4 72.5 12s41.666 19.5 57.999 34.5s29.333 33.167 39 54.5s14.5 45.333 14.5 72v288h53v-277v0zM274.001 486c1.33301 17.333 5.66895 31.1689 13.002 41.502s14.666 19.166 21.999 26.499
c6 6 11.833 12.167 17.5 18.5s8.5 14.166 8.5 23.499c0 16 -3.16699 29.333 -9.5 40s-18.166 16 -35.499 16c-19.333 0 -32.333 -7.16699 -39 -21.5s-10 -30.166 -10 -47.499h-34c0 26.667 7.66699 47.5 23 62.5s35.666 22.5 60.999 22.5c22 0 41.833 -6 59.5 -18
s26.5 -30.333 26.5 -55c0 -13.333 -4.33301 -24.5 -13 -33.5s-18.334 -17.5 -29.001 -25.5c-8 -6.66699 -16 -13.834 -24 -21.501s-14 -17.167 -18 -28.5h-19z" />
    <glyph glyph-name="uni1EE7" unicode="u&#x309;" horiz-adv-x="419" 
d="M328 0l-0.000976562 65c-11.333 -21.333 -28.666 -39.333 -51.999 -54s-47 -22 -71 -22c-19.333 0 -38.666 2.16699 -57.999 6.5s-36.5 11.333 -51.5 21s-27.167 22.334 -36.5 38.001s-14 34.834 -14 57.501v236h48v-242c0 -15.333 3.16699 -28.833 9.5 -40.5
s14.666 -21.334 24.999 -29.001s22.166 -13.334 35.499 -17.001s27.333 -5.5 42 -5.5c18.667 0 35.667 3.83301 51 11.5s28.333 18 39 31s18.834 27.833 24.501 44.5s8.5 33.667 8.5 51v196h46v-348h-46zM208.999 387c1.33301 17.333 5.66895 31.1689 13.002 41.502
s14.666 19.166 21.999 26.499c6 6 11.833 12.167 17.5 18.5s8.5 14.166 8.5 23.499c0 16 -3.16699 29.333 -9.5 40s-18.166 16 -35.499 16c-19.333 0 -32.333 -7.16699 -39 -21.5s-10 -30.166 -10 -47.499h-34c0 26.667 7.66699 47.5 23 62.5s35.666 22.5 60.999 22.5
c22 0 41.833 -6 59.5 -18s26.5 -30.333 26.5 -55c0 -13.333 -4.33301 -24.5 -13 -33.5s-18.334 -17.5 -29.001 -25.5c-8 -6.66699 -16 -13.834 -24 -21.501s-14 -17.167 -18 -28.5h-19z" />
    <glyph glyph-name="uni1EE8" unicode="&#x1af;&#x301;" horiz-adv-x="615" 
d="M619 467c0 -36 -10.166 -64.5 -30.499 -85.5s-47.833 -33.833 -82.5 -38.5v16c12.667 2.66699 23 7.66699 31 15s14.167 16 18.5 26s7.16602 20.833 8.49902 32.5s2 23.167 2 34.5h53zM523.001 190c0 -36 -6.16602 -66.833 -18.499 -92.5s-29.166 -47 -50.499 -64
s-46.5 -29.5 -75.5 -37.5s-59.833 -12 -92.5 -12s-63.334 4 -92.001 12s-53.667 20.5 -75 37.5s-38.166 38.5 -50.499 64.5s-18.5 56.667 -18.5 92v277h54v-288c0 -26.667 4.66699 -50.667 14 -72s22.166 -39.5 38.499 -54.5s35.5 -26.5 57.5 -34.5s46 -12 72 -12
s50.167 4 72.5 12s41.666 19.5 57.999 34.5s29.333 33.167 39 54.5s14.5 45.333 14.5 72v288h53v-277zM211.002 507l108.998 112.999c6.66699 7.33301 15 11 25 11c6.66699 0 11.834 -2.16699 15.501 -6.5s5.5 -9.5 5.5 -15.5c0 -5.33301 -2.16699 -10.166 -6.5 -14.499
s-11.166 -9.83301 -20.499 -16.5l-107 -72z" />
    <glyph glyph-name="uni1EE9" unicode="&#x1b0;&#x301;" horiz-adv-x="441" 
d="M458 348c0 -34 -9.5 -60.834 -28.5 -80.501s-45.5 -31.5 -79.5 -35.5v18c12 2.66699 21.5 7.16699 28.5 13.5s12.333 14 16 23s6.16699 18.833 7.5 29.5s2 21.334 2 32.001h54zM328 -0.000976562l-0.000976562 65.001c-11.333 -21.333 -28.666 -39.333 -51.999 -54
s-47 -22 -71 -22c-19.333 0 -38.666 2.16699 -57.999 6.5s-36.5 11.333 -51.5 21s-27.167 22.334 -36.5 38.001s-14 35.167 -14 58.5v235h48v-242c0 -15.333 3.16699 -28.833 9.5 -40.5s14.666 -21.334 24.999 -29.001s22.166 -13.334 35.499 -17.001s27.333 -5.5 42 -5.5
c18.667 0 35.667 3.83301 51 11.5s28.333 18 39 31s18.834 27.833 24.501 44.5s8.5 33.667 8.5 51v196h46v-348h-46zM134.999 386l108.998 112.999c6.66699 7.33301 15 11 25 11c6.66699 0 11.834 -2.16699 15.501 -6.5s5.5 -9.5 5.5 -15.5
c0 -5.33301 -2.16699 -10.166 -6.5 -14.499s-11.166 -9.83301 -20.499 -16.5l-107 -72z" />
    <glyph glyph-name="uni1EEA" unicode="&#x1af;&#x300;" horiz-adv-x="615" 
d="M619 467c0 -36 -10.166 -64.5 -30.499 -85.5s-47.833 -33.833 -82.5 -38.5v16c12.667 2.66699 23 7.66699 31 15s14.167 16 18.5 26s7.16602 20.833 8.49902 32.5s2 23.167 2 34.5h53zM523.001 190c0 -36 -6.16602 -66.833 -18.499 -92.5s-29.166 -47 -50.499 -64
s-46.5 -29.5 -75.5 -37.5s-59.833 -12 -92.5 -12s-63.334 4 -92.001 12s-53.667 20.5 -75 37.5s-38.166 38.5 -50.499 64.5s-18.5 56.667 -18.5 92v277h54v-288c0 -26.667 4.66699 -50.667 14 -72s22.166 -39.5 38.499 -54.5s35.5 -26.5 57.5 -34.5s46 -12 72 -12
s50.167 4 72.5 12s41.666 19.5 57.999 34.5s29.333 33.167 39 54.5s14.5 45.333 14.5 72v288h53v-277zM347.002 502l-106.001 72.001c-9.33301 6.66699 -16.166 12.167 -20.499 16.5s-6.5 9.16602 -6.5 14.499c0 6 1.83301 11.167 5.5 15.5s8.5 6.5 14.5 6.5
c10 0 18.333 -3.66699 25 -11l109 -113z" />
    <glyph glyph-name="uni1EEB" unicode="&#x1b0;&#x300;" horiz-adv-x="441" 
d="M458 348c0 -34 -9.5 -60.834 -28.5 -80.501s-45.5 -31.5 -79.5 -35.5v18c12 2.66699 21.5 7.16699 28.5 13.5s12.333 14 16 23s6.16699 18.833 7.5 29.5s2 21.334 2 32.001h54zM328 -0.000976562l-0.000976562 65.001c-11.333 -21.333 -28.666 -39.333 -51.999 -54
s-47 -22 -71 -22c-19.333 0 -38.666 2.16699 -57.999 6.5s-36.5 11.333 -51.5 21s-27.167 22.334 -36.5 38.001s-14 35.167 -14 58.5v235h48v-242c0 -15.333 3.16699 -28.833 9.5 -40.5s14.666 -21.334 24.999 -29.001s22.166 -13.334 35.499 -17.001s27.333 -5.5 42 -5.5
c18.667 0 35.667 3.83301 51 11.5s28.333 18 39 31s18.834 27.833 24.501 44.5s8.5 33.667 8.5 51v196h46v-348h-46zM260.999 390l-106.001 72.001c-9.33301 6.66699 -16.166 12.167 -20.499 16.5s-6.5 9.16602 -6.5 14.499c0 6 1.83301 11.167 5.5 15.5s8.5 6.5 14.5 6.5
c10 0 18.333 -3.66699 25 -11l109 -113z" />
    <glyph glyph-name="uni1EEC" unicode="&#x1af;&#x309;" horiz-adv-x="615" 
d="M619 467c0 -36 -10.166 -64.5 -30.499 -85.5s-47.833 -33.833 -82.5 -38.5v16c12.667 2.66699 23 7.66699 31 15s14.167 16 18.5 26s7.16602 20.833 8.49902 32.5s2 23.167 2 34.5h53zM523.001 190c0 -36 -6.16602 -66.833 -18.499 -92.5s-29.166 -47 -50.499 -64
s-46.5 -29.5 -75.5 -37.5s-59.833 -12 -92.5 -12s-63.334 4 -92.001 12s-53.667 20.5 -75 37.5s-38.166 38.5 -50.499 64.5s-18.5 56.667 -18.5 92v277h54v-288c0 -26.667 4.66699 -50.667 14 -72s22.166 -39.5 38.499 -54.5s35.5 -26.5 57.5 -34.5s46 -12 72 -12
s50.167 4 72.5 12s41.666 19.5 57.999 34.5s29.333 33.167 39 54.5s14.5 45.333 14.5 72v288h53v-277zM282.002 497c1.33301 17.333 5.66895 31.1689 13.002 41.502s14.666 19.166 21.999 26.499c6 6 11.833 12.167 17.5 18.5s8.5 14.166 8.5 23.499
c0 16 -3.16699 29.333 -9.5 40s-18.166 16 -35.499 16c-19.333 0 -32.333 -7.16699 -39 -21.5s-10 -30.166 -10 -47.499h-34c0 26.667 7.66699 47.5 23 62.5s35.666 22.5 60.999 22.5c22 0 41.833 -6 59.5 -18s26.5 -30.333 26.5 -55c0 -13.333 -4.33301 -24.5 -13 -33.5
s-18.334 -17.5 -29.001 -25.5c-8 -6.66699 -16 -13.834 -24 -21.501s-14 -17.167 -18 -28.5h-19z" />
    <glyph glyph-name="uni1EED" unicode="&#x1b0;&#x309;" horiz-adv-x="441" 
d="M458 348c0 -34 -9.5 -60.834 -28.5 -80.501s-45.5 -31.5 -79.5 -35.5v18c12 2.66699 21.5 7.16699 28.5 13.5s12.333 14 16 23s6.16699 18.833 7.5 29.5s2 21.334 2 32.001h54zM328 -0.000976562l-0.000976562 65.001c-11.333 -21.333 -28.666 -39.333 -51.999 -54
s-47 -22 -71 -22c-19.333 0 -38.666 2.16699 -57.999 6.5s-36.5 11.333 -51.5 21s-27.167 22.334 -36.5 38.001s-14 35.167 -14 58.5v235h48v-242c0 -15.333 3.16699 -28.833 9.5 -40.5s14.666 -21.334 24.999 -29.001s22.166 -13.334 35.499 -17.001s27.333 -5.5 42 -5.5
c18.667 0 35.667 3.83301 51 11.5s28.333 18 39 31s18.834 27.833 24.501 44.5s8.5 33.667 8.5 51v196h46v-348h-46zM192.999 387c1.33301 17.333 5.66895 31.1689 13.002 41.502s14.666 19.166 21.999 26.499c6 6 11.833 12.167 17.5 18.5s8.5 14.166 8.5 23.499
c0 16 -3.16699 29.333 -9.5 40s-18.166 16 -35.499 16c-19.333 0 -32.333 -7.16699 -39 -21.5s-10 -30.166 -10 -47.499h-34c0 26.667 7.66699 47.5 23 62.5s35.666 22.5 60.999 22.5c22 0 41.833 -6 59.5 -18s26.5 -30.333 26.5 -55c0 -13.333 -4.33301 -24.5 -13 -33.5
s-18.334 -17.5 -29.001 -25.5c-8 -6.66699 -16 -13.834 -24 -21.501s-14 -17.167 -18 -28.5h-19z" />
    <glyph glyph-name="uni1EEE" unicode="&#x1af;&#x303;" horiz-adv-x="615" 
d="M619 467c0 -36 -10.166 -64.5 -30.499 -85.5s-47.833 -33.833 -82.5 -38.5v16c12.667 2.66699 23 7.66699 31 15s14.167 16 18.5 26s7.16602 20.833 8.49902 32.5s2 23.167 2 34.5h53zM523.001 190c0 -36 -6.16602 -66.833 -18.499 -92.5s-29.166 -47 -50.499 -64
s-46.5 -29.5 -75.5 -37.5s-59.833 -12 -92.5 -12s-63.334 4 -92.001 12s-53.667 20.5 -75 37.5s-38.166 38.5 -50.499 64.5s-18.5 56.667 -18.5 92v277h54v-288c0 -26.667 4.66699 -50.667 14 -72s22.166 -39.5 38.499 -54.5s35.5 -26.5 57.5 -34.5s46 -12 72 -12
s50.167 4 72.5 12s41.666 19.5 57.999 34.5s29.333 33.167 39 54.5s14.5 45.333 14.5 72v288h53v-277zM176.002 500c2.66699 13.333 7.33691 25.335 14.0039 36.002c5.33301 9.33301 12.666 17.666 21.999 24.999s21.666 11 36.999 11c10.667 0 20.667 -1.83301 30 -5.5
s18.166 -7.83398 26.499 -12.501s16.333 -8.83398 24 -12.501s15.167 -5.5 22.5 -5.5c8 0 14.667 2 20 6s9.66602 8.66699 12.999 14c4 6 7.33301 12.667 10 20h16c-2.66699 -14.667 -7 -27.667 -13 -39c-5.33301 -9.33301 -12.833 -18 -22.5 -26s-22.834 -12 -39.501 -12
c-11.333 0 -21.333 1.83301 -30 5.5s-16.667 7.83398 -24 12.501s-14.666 8.83398 -21.999 12.501s-15.333 5.5 -24 5.5c-8 0 -14.833 -1.83301 -20.5 -5.5s-10.167 -7.83398 -13.5 -12.501c-4 -5.33301 -7 -11 -9 -17h-17z" />
    <glyph glyph-name="uni1EEF" unicode="&#x1b0;&#x303;" horiz-adv-x="441" 
d="M458 348c0 -34 -9.5 -60.834 -28.5 -80.501s-45.5 -31.5 -79.5 -35.5v18c12 2.66699 21.5 7.16699 28.5 13.5s12.333 14 16 23s6.16699 18.833 7.5 29.5s2 21.334 2 32.001h54zM328 -0.000976562l-0.000976562 65.001c-11.333 -21.333 -28.666 -39.333 -51.999 -54
s-47 -22 -71 -22c-19.333 0 -38.666 2.16699 -57.999 6.5s-36.5 11.333 -51.5 21s-27.167 22.334 -36.5 38.001s-14 35.167 -14 58.5v235h48v-242c0 -15.333 3.16699 -28.833 9.5 -40.5s14.666 -21.334 24.999 -29.001s22.166 -13.334 35.499 -17.001s27.333 -5.5 42 -5.5
c18.667 0 35.667 3.83301 51 11.5s28.333 18 39 31s18.834 27.833 24.501 44.5s8.5 33.667 8.5 51v196h46v-348h-46zM97.999 390c2.66699 13.333 7.33691 25.335 14.0039 36.002c5.33301 9.33301 12.666 17.666 21.999 24.999s21.666 11 36.999 11
c10.667 0 20.667 -1.83301 30 -5.5s18.166 -7.83398 26.499 -12.501s16.333 -8.83398 24 -12.501s15.167 -5.5 22.5 -5.5c8 0 14.667 2 20 6s9.66602 8.66699 12.999 14c4 6 7.33301 12.667 10 20h16c-2.66699 -14.667 -7 -27.667 -13 -39
c-5.33301 -9.33301 -12.833 -18 -22.5 -26s-22.834 -12 -39.501 -12c-11.333 0 -21.333 1.83301 -30 5.5s-16.667 7.83398 -24 12.501s-14.666 8.83398 -21.999 12.501s-15.333 5.5 -24 5.5c-8 0 -14.833 -1.83301 -20.5 -5.5s-10.167 -7.83398 -13.5 -12.501
c-4 -5.33301 -7 -11 -9 -17h-17z" />
    <glyph glyph-name="uni1EF0" unicode="&#x1af;&#x323;" horiz-adv-x="615" 
d="M619 467c0 -36 -10.166 -64.5 -30.499 -85.5s-47.833 -33.833 -82.5 -38.5v16c12.667 2.66699 23 7.66699 31 15s14.167 16 18.5 26s7.16602 20.833 8.49902 32.5s2 23.167 2 34.5h53zM523.001 190c0 -36 -6.16602 -66.833 -18.499 -92.5s-29.166 -47 -50.499 -64
s-46.5 -29.5 -75.5 -37.5s-59.833 -12 -92.5 -12s-63.334 4 -92.001 12s-53.667 20.5 -75 37.5s-38.166 38.5 -50.499 64.5s-18.5 56.667 -18.5 92v277h54v-288c0 -26.667 4.66699 -50.667 14 -72s22.166 -39.5 38.499 -54.5s35.5 -26.5 57.5 -34.5s46 -12 72 -12
s50.167 4 72.5 12s41.666 19.5 57.999 34.5s29.333 33.167 39 54.5s14.5 45.333 14.5 72v288h53v-277zM268.002 -76c0 9.33301 3.16699 17.5 9.5 24.5s14.833 10.5 25.5 10.5c10 0 18.167 -3.5 24.5 -10.5s9.5 -15.167 9.5 -24.5s-3.16699 -17.333 -9.5 -24
s-14.5 -10 -24.5 -10c-10.667 0 -19.167 3.33301 -25.5 10s-9.5 14.667 -9.5 24z" />
    <glyph glyph-name="uni1EF1" unicode="&#x1b0;&#x323;" horiz-adv-x="441" 
d="M458 348c0 -34 -9.5 -60.834 -28.5 -80.501s-45.5 -31.5 -79.5 -35.5v18c12 2.66699 21.5 7.16699 28.5 13.5s12.333 14 16 23s6.16699 18.833 7.5 29.5s2 21.334 2 32.001h54zM328 -0.000976562l-0.000976562 65.001c-11.333 -21.333 -28.666 -39.333 -51.999 -54
s-47 -22 -71 -22c-19.333 0 -38.666 2.16699 -57.999 6.5s-36.5 11.333 -51.5 21s-27.167 22.334 -36.5 38.001s-14 35.167 -14 58.5v235h48v-242c0 -15.333 3.16699 -28.833 9.5 -40.5s14.666 -21.334 24.999 -29.001s22.166 -13.334 35.499 -17.001s27.333 -5.5 42 -5.5
c18.667 0 35.667 3.83301 51 11.5s28.333 18 39 31s18.834 27.833 24.501 44.5s8.5 33.667 8.5 51v196h46v-348h-46zM168.999 -76c0 9.33301 3.16699 17.5 9.5 24.5s14.833 10.5 25.5 10.5c10 0 18.167 -3.5 24.5 -10.5s9.5 -15.167 9.5 -24.5s-3.16699 -17.333 -9.5 -24
s-14.5 -10 -24.5 -10c-10.667 0 -19.167 3.33301 -25.5 10s-9.5 14.667 -9.5 24z" />
    <glyph glyph-name="Ygrave" unicode="Y&#x300;" horiz-adv-x="481" 
d="M262 210v-210h-56v200l-201 267h59l183 -239l197 239h32zM305 498l-106.001 72.001c-9.33301 6.66699 -16.166 12.167 -20.499 16.5s-6.5 9.16602 -6.5 14.499c0 6 1.83301 11.167 5.5 15.5s8.5 6.5 14.5 6.5c10 0 18.333 -3.66699 25 -11l109 -113z" />
    <glyph glyph-name="ygrave" unicode="y&#x300;" horiz-adv-x="381" 
d="M69 -132c-9.33301 0 -19.6699 1.33301 -31.0029 4s-21.666 7.33398 -30.999 14.001l21 36c6.66699 -8.66699 13.5 -14.5 20.5 -17.5s14.833 -4.5 23.5 -4.5c11.333 0 22.833 3.33301 34.5 10s22.334 15.167 32.001 25.5s17.5 21.666 23.5 33.999s9 23.833 9 34.5
c0 7.33301 -1.16699 14.333 -3.5 21s-5.16602 13.667 -8.49902 21l-156 302h52l150 -289l145 289h28l-180 -358c-8 -15.333 -16.5 -30.333 -25.5 -45s-19 -27.667 -30 -39s-22.5 -20.5 -34.5 -27.5s-25 -10.5 -39 -10.5zM252.996 390l-106.001 72.001
c-9.33301 6.66699 -16.166 12.167 -20.499 16.5s-6.5 9.16602 -6.5 14.499c0 6 1.83301 11.167 5.5 15.5s8.5 6.5 14.5 6.5c10 0 18.333 -3.66699 25 -11l109 -113z" />
    <glyph glyph-name="uni1EF4" unicode="Y&#x323;" horiz-adv-x="481" 
d="M262 210v-210h-56v200l-201 267h59l183 -239l197 239h32zM200 -76c0 9.33301 3.16699 17.5 9.5 24.5s14.833 10.5 25.5 10.5c10 0 18.167 -3.5 24.5 -10.5s9.5 -15.167 9.5 -24.5s-3.16699 -17.333 -9.5 -24s-14.5 -10 -24.5 -10c-10.667 0 -19.167 3.33301 -25.5 10
s-9.5 14.667 -9.5 24z" />
    <glyph glyph-name="uni1EF5" unicode="y&#x323;" horiz-adv-x="381" 
d="M69 -132c-9.33301 0 -19.6699 1.33301 -31.0029 4s-21.666 7.33398 -30.999 14.001l21 36c6.66699 -8.66699 13.5 -14.5 20.5 -17.5s14.833 -4.5 23.5 -4.5c11.333 0 22.833 3.33301 34.5 10s22.334 15.167 32.001 25.5s17.5 21.666 23.5 33.999s9 23.833 9 34.5
c0 7.33301 -1.16699 14.333 -3.5 21s-5.16602 13.667 -8.49902 21l-156 302h52l150 -289l145 289h28l-180 -358c-8 -15.333 -16.5 -30.333 -25.5 -45s-19 -27.667 -30 -39s-22.5 -20.5 -34.5 -27.5s-25 -10.5 -39 -10.5zM179.996 -76c0 9.33301 3.16699 17.5 9.5 24.5
s14.833 10.5 25.5 10.5c10 0 18.167 -3.5 24.5 -10.5s9.5 -15.167 9.5 -24.5s-3.16699 -17.333 -9.5 -24s-14.5 -10 -24.5 -10c-10.667 0 -19.167 3.33301 -25.5 10s-9.5 14.667 -9.5 24z" />
    <glyph glyph-name="uni1EF6" unicode="Y&#x309;" horiz-adv-x="481" 
d="M262 210v-210h-56v200l-201 267h59l183 -239l197 239h32zM228 500c1.33301 17.333 5.66895 31.1689 13.002 41.502s14.666 19.166 21.999 26.499c6 6 11.833 12.167 17.5 18.5s8.5 14.166 8.5 23.499c0 16 -3.16699 29.333 -9.5 40s-18.166 16 -35.499 16
c-19.333 0 -32.333 -7.16699 -39 -21.5s-10 -30.166 -10 -47.499h-34c0 26.667 7.66699 47.5 23 62.5s35.666 22.5 60.999 22.5c22 0 41.833 -6 59.5 -18s26.5 -30.333 26.5 -55c0 -13.333 -4.33301 -24.5 -13 -33.5s-18.334 -17.5 -29.001 -25.5
c-8 -6.66699 -16 -13.834 -24 -21.501s-14 -17.167 -18 -28.5h-19z" />
    <glyph glyph-name="uni1EF7" unicode="y&#x309;" horiz-adv-x="381" 
d="M69 -132c-9.33301 0 -19.6699 1.33301 -31.0029 4s-21.666 7.33398 -30.999 14.001l21 36c6.66699 -8.66699 13.5 -14.5 20.5 -17.5s14.833 -4.5 23.5 -4.5c11.333 0 22.833 3.33301 34.5 10s22.334 15.167 32.001 25.5s17.5 21.666 23.5 33.999s9 23.833 9 34.5
c0 7.33301 -1.16699 14.333 -3.5 21s-5.16602 13.667 -8.49902 21l-156 302h52l150 -289l145 289h28l-180 -358c-8 -15.333 -16.5 -30.333 -25.5 -45s-19 -27.667 -30 -39s-22.5 -20.5 -34.5 -27.5s-25 -10.5 -39 -10.5zM184.996 388
c1.33301 17.333 5.66895 31.1689 13.002 41.502s14.666 19.166 21.999 26.499c6 6 11.833 12.167 17.5 18.5s8.5 14.166 8.5 23.499c0 16 -3.16699 29.333 -9.5 40s-18.166 16 -35.499 16c-19.333 0 -32.333 -7.16699 -39 -21.5s-10 -30.166 -10 -47.499h-34
c0 26.667 7.66699 47.5 23 62.5s35.666 22.5 60.999 22.5c22 0 41.833 -6 59.5 -18s26.5 -30.333 26.5 -55c0 -13.333 -4.33301 -24.5 -13 -33.5s-18.334 -17.5 -29.001 -25.5c-8 -6.66699 -16 -13.834 -24 -21.501s-14 -17.167 -18 -28.5h-19z" />
    <glyph glyph-name="uni1EF8" unicode="Y&#x303;" horiz-adv-x="481" 
d="M262 210v-210h-56v200l-201 267h59l183 -239l197 239h32zM131 503c2.66699 13.333 7.33691 25.335 14.0039 36.002c5.33301 9.33301 12.666 17.666 21.999 24.999s21.666 11 36.999 11c10.667 0 20.667 -1.83301 30 -5.5s18.166 -7.83398 26.499 -12.501
s16.333 -8.83398 24 -12.501s15.167 -5.5 22.5 -5.5c8 0 14.667 2 20 6s9.66602 8.66699 12.999 14c4 6 7.33301 12.667 10 20h16c-2.66699 -14.667 -7 -27.667 -13 -39c-5.33301 -9.33301 -12.833 -18 -22.5 -26s-22.834 -12 -39.501 -12
c-11.333 0 -21.333 1.83301 -30 5.5s-16.667 7.83398 -24 12.501s-14.666 8.83398 -21.999 12.501s-15.333 5.5 -24 5.5c-8 0 -14.833 -1.83301 -20.5 -5.5s-10.167 -7.83398 -13.5 -12.501c-4 -5.33301 -7 -11 -9 -17h-17z" />
    <glyph glyph-name="uni1EF9" unicode="y&#x303;" horiz-adv-x="381" 
d="M69 -132c-9.33301 0 -19.6699 1.33301 -31.0029 4s-21.666 7.33398 -30.999 14.001l21 36c6.66699 -8.66699 13.5 -14.5 20.5 -17.5s14.833 -4.5 23.5 -4.5c11.333 0 22.833 3.33301 34.5 10s22.334 15.167 32.001 25.5s17.5 21.666 23.5 33.999s9 23.833 9 34.5
c0 7.33301 -1.16699 14.333 -3.5 21s-5.16602 13.667 -8.49902 21l-156 302h52l150 -289l145 289h28l-180 -358c-8 -15.333 -16.5 -30.333 -25.5 -45s-19 -27.667 -30 -39s-22.5 -20.5 -34.5 -27.5s-25 -10.5 -39 -10.5zM85.9961 387
c2.66699 13.333 7.33691 25.335 14.0039 36.002c5.33301 9.33301 12.666 17.666 21.999 24.999s21.666 11 36.999 11c10.667 0 20.667 -1.83301 30 -5.5s18.166 -7.83398 26.499 -12.501s16.333 -8.83398 24 -12.501s15.167 -5.5 22.5 -5.5c8 0 14.667 2 20 6
s9.66602 8.66699 12.999 14c4 6 7.33301 12.667 10 20h16c-2.66699 -14.667 -7 -27.667 -13 -39c-5.33301 -9.33301 -12.833 -18 -22.5 -26s-22.834 -12 -39.501 -12c-11.333 0 -21.333 1.83301 -30 5.5s-16.667 7.83398 -24 12.501s-14.666 8.83398 -21.999 12.501
s-15.333 5.5 -24 5.5c-8 0 -14.833 -1.83301 -20.5 -5.5s-10.167 -7.83398 -13.5 -12.501c-4 -5.33301 -7 -11 -9 -17h-17z" />
    <glyph glyph-name="uni0E4F.liga" unicode="&#xe4f;&#x22;" horiz-adv-x="500" 
d="M220 622c0 -24.667 -1.50098 -50 -4.50098 -76s-6.83301 -57 -11.5 -93h-17c-5.33301 36.667 -9.66602 68 -12.999 94s-5 51.667 -5 77c0 8.66699 2 16.167 6 22.5s10.667 9.5 20 9.5s15.833 -3.5 19.5 -10.5s5.5 -14.833 5.5 -23.5zM454.999 200
c0 -28 -5.33301 -54.5 -16 -79.5s-25.334 -46.833 -44.001 -65.5s-40.5 -33.334 -65.5 -44.001s-51.5 -16 -79.5 -16s-54.5 5.33301 -79.5 16s-46.833 25.334 -65.5 44.001s-33.334 40.5 -44.001 65.5s-16 51.5 -16 79.5s5.33301 54.5 16 79.5s25.334 46.833 44.001 65.5
s40.5 33.334 65.5 44.001s51.5 16 79.5 16s54.5 -5.33301 79.5 -16s46.833 -25.334 65.5 -44.001s33.334 -40.5 44.001 -65.5s16 -51.5 16 -79.5zM424.999 200c0 24 -4.66699 46.667 -14 68s-21.833 39.833 -37.5 55.5s-34.167 28.167 -55.5 37.5s-44 14 -68 14
s-46.667 -4.66699 -68 -14s-39.833 -21.833 -55.5 -37.5s-28.167 -34.167 -37.5 -55.5s-14 -44 -14 -68s4.66699 -46.667 14 -68s21.833 -39.833 37.5 -55.5s34.167 -28.167 55.5 -37.5s44 -14 68 -14s46.667 4.66699 68 14s39.833 21.833 55.5 37.5
s28.167 34.167 37.5 55.5s14 44 14 68zM339.999 200c0 24.667 -8.83301 45.834 -26.5 63.501s-38.834 26.5 -63.501 26.5s-45.834 -8.83301 -63.501 -26.5s-26.5 -38.834 -26.5 -63.501s8.83301 -45.834 26.5 -63.501s38.834 -26.5 63.501 -26.5s45.834 8.83301 63.501 26.5
s26.5 38.834 26.5 63.501zM374.999 200c0 -17.333 -3.33301 -33.5 -10 -48.5s-15.667 -28.167 -27 -39.5s-24.666 -20.333 -39.999 -27s-31.333 -10 -48 -10c-17.333 0 -33.5 3.33301 -48.5 10s-28.167 15.667 -39.5 27s-20.333 24.5 -27 39.5s-10 31.167 -10 48.5
c0 16.667 3.33301 32.667 10 48s15.667 28.666 27 39.999s24.5 20.333 39.5 27s31.167 10 48.5 10c16.667 0 32.667 -3.33301 48 -10s28.666 -15.667 39.999 -27s20.333 -24.666 27 -39.999s10 -31.333 10 -48zM330.999 622c0 -24.667 -1.50098 -50 -4.50098 -76
s-6.83301 -57 -11.5 -93h-17c-5.33301 36.667 -9.66602 68 -12.999 94s-5 51.667 -5 77c0 8.66699 2 16.167 6 22.5s10.667 9.5 20 9.5s15.833 -3.5 19.5 -10.5s5.5 -14.833 5.5 -23.5z" />
    <glyph glyph-name="uni0E24.liga" unicode="&#xe24;&#xe32;" horiz-adv-x="709" 
d="M609 -120l-0.00292969 394.999c0 34 -9 61.167 -27 81.5s-45 30.5 -81 30.5c-21.333 0 -41.833 -5.5 -61.5 -16.5s-34.167 -26.167 -43.5 -45.5c4.66699 -9.33301 7.83398 -18.666 9.50098 -27.999s2.5 -19 2.5 -29v-388h-50v395c0 18.667 -3.66699 35 -11 49
s-17 25.667 -29 35s-25.833 16.333 -41.5 21s-31.834 7 -48.501 7c-17.333 0 -34 -2.5 -50 -7.5s-30.167 -12.5 -42.5 -22.5s-22.666 -22.167 -30.999 -36.5s-13.166 -30.5 -14.499 -48.5h65v-20c-11.333 -6 -20.166 -13 -26.499 -21s-10.833 -16.667 -13.5 -26
s-4.16699 -19.333 -4.5 -30s-0.5 -21.667 -0.5 -33c7.33301 6.66699 15.666 11.334 24.999 14.001s18.666 4 27.999 4c22.667 0 41.834 -8 57.501 -24s23.5 -35.333 23.5 -58c0 -24.667 -8.33301 -44.667 -25 -60s-37 -23 -61 -23c-31.333 0 -55.5 9.5 -72.5 28.5
s-25.5 43.5 -25.5 73.5v64c0 22.667 5.33301 42.5 16 59.5s27.334 28.5 50.001 34.5h-88c2 26 8.5 48.5 19.5 67.5s25.167 34.667 42.5 47s37 21.666 59 27.999s45 9.5 69 9.5c26 0 52.5 -3.5 79.5 -10.5s49.833 -20.5 68.5 -40.5c14.667 16 33.834 28.5 57.501 37.5
s46.167 13.5 67.5 13.5c23.333 0 44.666 -2.66699 63.999 -8s36 -13.5 50 -24.5s24.833 -25.167 32.5 -42.5s11.5 -38.333 11.5 -63v-389h-50zM218.997 77.999c0 15.333 -5.5 28.666 -16.5 39.999s-24.167 17 -39.5 17s-28.666 -5.66699 -39.999 -17
s-17 -24.666 -17 -39.999s5.66699 -28.5 17 -39.5s24.666 -16.5 39.999 -16.5s28.5 5.5 39.5 16.5s16.5 24.167 16.5 39.5z" />
    <glyph glyph-name="uni0E26.liga" unicode="&#xe26;&#xe32;" horiz-adv-x="797" 
d="M697 -120v395.002c0 34 -10.667 61.167 -32 81.5s-50 30.5 -86 30.5c-9.33301 0 -19.166 -1.16699 -29.499 -3.5s-20.166 -5.66602 -29.499 -9.99902s-18 -9.83301 -26 -16.5s-14.333 -14 -19 -22c6 -10 10.333 -20.833 13 -32.5s4 -23.167 4 -34.5v-388h-50v395
c0 18.667 -3.66699 35 -11 49s-17 25.667 -29 35s-25.833 16.333 -41.5 21s-31.834 7 -48.501 7c-17.333 0 -34 -2.5 -50 -7.5s-30.167 -12.5 -42.5 -22.5s-22.666 -22.167 -30.999 -36.5s-13.166 -30.5 -14.499 -48.5h65v-20c-18 -7.33301 -30 -18.833 -36 -34.5
s-9.5 -33 -10.5 -52s-1.33301 -38.5 -1 -58.5s-1.66699 -38.333 -6 -55s-13.166 -30.334 -26.499 -41.001s-34.333 -16 -63 -16c-24 0 -44.333 7.66699 -61 23s-25 35.333 -25 60c0 22.667 7.83301 42 23.5 58s34.834 24 57.501 24c9.33301 0 18.666 -1.33301 27.999 -4
s17.666 -7.33398 24.999 -14.001c0 16 0.5 30 1.5 42s3.66699 22.5 8 31.5s11.166 16.833 20.499 23.5s22.666 12 39.999 16h-92c2 26 8.5 48.5 19.5 67.5s25.167 34.667 42.5 47s37 21.666 59 27.999s45 9.5 69 9.5c25.333 0 50.666 -3.16699 75.999 -9.5
s47.333 -18.5 66 -36.5c14.667 14.667 34 26 58 34s46.333 12 67 12c23.333 0 45.333 -2.66699 66 -8s38.5 -13.5 53.5 -24.5s26.833 -25.333 35.5 -43s13 -38.5 13 -62.5v-389h-50zM148 78.002c0 15.333 -5.66699 28.666 -17 39.999s-24.666 17 -39.999 17
s-28.5 -5.66699 -39.5 -17s-16.5 -24.666 -16.5 -39.999s5.5 -28.5 16.5 -39.5s24.167 -16.5 39.5 -16.5s28.666 5.5 39.999 16.5s17 24.167 17 39.5z" />
    <glyph glyph-name="fi" unicode="fi" horiz-adv-x="374" 
d="M240 0v305.001h-118v-305h-47v305h-58l11 26h47c0 20 2.83301 39.5 8.5 58.5s14.167 35.667 25.5 50s25.333 25.5 42 33.5s36.667 11.667 60 11l14 -1v-47c-14 6 -26.667 9 -38 9c-18 0 -33.333 -5.33301 -46 -16s-19 -25.334 -19 -44.001v-54l164 1v-332h-46z" />
    <glyph glyph-name="fl" unicode="fl" horiz-adv-x="374" 
d="M237 0l-0.000976562 444.001l-6.5 0.5c-4.33301 0.333008 -9.16602 0.5 -14.499 0.5h-16.5h-12.5c-18 0 -33.333 -5.33301 -46 -16s-19 -25.334 -19 -44.001v-54h67l-11 -26h-56v-305h-47v305h-58l11 26h47c0 20 2.83301 39.333 8.5 58s14.167 35 25.5 49
s25.333 25.167 42 33.5s36.667 12.5 60 12.5h29h43v-484h-46z" />
    <glyph glyph-name="Fah" unicode="THFAH&#x2e;&#x2e;&#x28;c&#x29;" horiz-adv-x="1453" 
d="M351 6l-103.001 205.001l-104 -205h-57v161c-5.33301 -3.33301 -12.166 -5.83301 -20.499 -7.5s-16.5 -2.5 -24.5 -2.5c-19.333 0 -36 5.16699 -50 15.5s-21 22.166 -21 35.499c0 15.333 7.33301 27.833 22 37.5s32.667 14.5 54 14.5c28 0 49.167 -5.83301 63.5 -17.5
s21.5 -27.167 21.5 -46.5v-164l116 229l113 -229v298h45v-324h-55zM92.999 208.001c0 9.33301 -5.16699 17.333 -15.5 24s-22.166 10 -35.499 10c-12 0 -23.333 -3.33301 -34 -10s-16 -14.667 -16 -24s5 -17.5 15 -24.5s21.667 -10.5 35 -10.5s25.166 3.5 35.499 10.5
s15.5 15.167 15.5 24.5zM438.999 407.001c-3.33301 -16.667 -13.668 -32.002 -31.001 -46.002s-37.666 -26.167 -60.999 -36.5s-48 -18.666 -74 -24.999s-49.333 -9.83301 -70 -10.5c4 2.66699 8.66699 6.33398 14 11.001s10.333 9.5 15 14.5s8.66699 10 12 15
s5.33301 9.5 6 13.5c-8.66699 -4.66699 -19.667 -7 -33 -7c-15.333 0 -29.666 3.83301 -42.999 11.5s-20 17.5 -20 29.5c0 13.333 6.66699 23.833 20 31.5s28.666 11.5 45.999 11.5c20 0 35.667 -4.66699 47 -14s17 -21 17 -35c0 -10 -2.66699 -20.5 -8 -31.5
s-12 -21.167 -20 -30.5c30 10.667 55 24.167 75 40.5s34.333 35.5 43 57.5h65zM255.997 376.999c0 8.66699 -3.83301 15.334 -11.5 20.001s-16.834 7 -27.501 7c-10 0 -18.833 -2.33301 -26.5 -7s-11.5 -11.334 -11.5 -20.001c0 -7.33301 3.83301 -13.5 11.5 -18.5
s16.5 -7.5 26.5 -7.5c10.667 0 19.834 2.66699 27.501 8s11.5 11.333 11.5 18zM573.997 11.999l0.00195312 100c0 12.667 -4.66699 22.667 -14 30s-23 11 -41 11c-34 0 -53.667 -12.667 -59 -38h-26c3.33301 16 13.166 27.5 29.499 34.5s34.833 10.5 55.5 10.5
c23.333 0 42.666 -3.83301 57.999 -11.5s23 -20.5 23 -38.5v-98h-26zM787.999 11.999v99.999c0 13.333 -6.66699 23.5 -20 30.5s-28.666 10.5 -45.999 10.5c-18 0 -34 -3.66699 -48 -11s-21.667 -17.666 -23 -30.999h34v-7c-15.333 -5.33301 -23 -15.333 -23 -30v-62h-26v58
c0 18 11 29.667 33 35h-44c2 19.333 12.667 33.333 32 42s41 13 65 13c11.333 0 22.5 -0.833008 33.5 -2.5s20.667 -4.5 29 -8.5s15.166 -9.33301 20.499 -16s8 -14.667 8 -24v-97h-25zM1018 37.998c0 -11.333 -5.00195 -20.834 -15.002 -28.501s-23.667 -11.5 -41 -11.5
c-11.333 0 -21.5 3 -30.5 9s-13.5 13.333 -13.5 22s4.5 16.167 13.5 22.5s19.167 9.5 30.5 9.5c5.33301 0 10.833 -0.666992 16.5 -2s10.167 -3.66602 13.5 -6.99902v48c0 13.333 -6.16699 23.5 -18.5 30.5s-27.166 10.5 -44.499 10.5c-15.333 0 -29.5 -3.33301 -42.5 -10
s-21.167 -16 -24.5 -28h-25c2 8 5.83301 15 11.5 21s12.834 10.667 21.501 14s18.167 5.83301 28.5 7.5s20.5 2.5 30.5 2.5c22.667 0 43.167 -3.66699 61.5 -11s27.5 -20.333 27.5 -39v-60zM992.997 28.9971c0 6 -2.83301 11.167 -8.5 15.5s-13.167 6.5 -22.5 6.5
c-8 0 -15.167 -2.16699 -21.5 -6.5s-9.5 -9.5 -9.5 -15.5s3.16699 -11.167 9.5 -15.5s13.5 -6.5 21.5 -6.5c9.33301 0 16.833 2.16699 22.5 6.5s8.5 9.5 8.5 15.5zM1317 15.9971c-2.66699 6 -7.33301 13.3311 -14 21.998s-14.334 17.334 -23.001 26.001
s-17.5 16.5 -26.5 23.5s-17.5 11.833 -25.5 14.5l21 13c8 -4 16.167 -9.66699 24.5 -17s16 -15.333 23 -24s13.167 -17.5 18.5 -26.5s9 -16.5 11 -22.5h52v85c0 2 -1 2.83301 -3 2.5s-4.33301 -1.16602 -7 -2.49902s-5.5 -2.66602 -8.5 -3.99902s-5.83301 -2 -8.5 -2
c-11.333 0 -21 3 -29 9s-12 13 -12 21c0 9.33301 4.33301 16.666 13 21.999s19.334 8 32.001 8c15.333 0 27.333 -3.5 36 -10.5s13 -15.833 13 -26.5v-111h-87zM1381 133.995c0 5.33301 -3 10 -9 14s-13 6 -21 6c-7.33301 0 -13.833 -2 -19.5 -6s-8.5 -8.66699 -8.5 -14
s2.83301 -10.166 8.5 -14.499s12.167 -6.5 19.5 -6.5c8 0 15 2.16699 21 6.5s9 9.16602 9 14.499zM1178 6.99512l0.00195312 100c0 12.667 -4.66699 22.667 -14 30s-23 11 -41 11c-33.333 0 -53 -12.667 -59 -38h-26c3.33301 16 13.166 27.5 29.499 34.5
s34.833 10.5 55.5 10.5c23.333 0 42.666 -3.83301 57.999 -11.5s23 -20.5 23 -38.5v-98h-26zM1032 217.995c-1.33301 -7.33301 -5.83301 -13.8311 -13.5 -19.498s-16.5 -10.834 -26.5 -15.501s-20.5 -8.33398 -31.5 -11.001s-20.833 -4 -29.5 -4
c3.33301 2.66699 7.16602 6.33398 11.499 11.001s7.16602 8.66699 8.49902 12c-3.33301 -2.66699 -8 -4 -14 -4c-7.33301 0 -13.666 1.83301 -18.999 5.5s-8 8.16699 -8 13.5s2.83301 9.66602 8.5 12.999s12.167 5 19.5 5c8.66699 0 15.334 -2 20.001 -6s7 -9 7 -15
c0 -10 -3.66699 -18.667 -11 -26c26 8 43 21.667 51 41h27zM954 205.997c0 3.33301 -1.66699 6.16602 -5 8.49902s-7.33301 3.5 -12 3.5c-4 0 -7.66699 -1.16699 -11 -3.5s-5 -5.16602 -5 -8.49902s1.66699 -6.16602 5 -8.49902s7 -3.5 11 -3.5
c4.66699 0 8.66699 1.16699 12 3.5s5 5.16602 5 8.49902zM684 226.997v90l-45 -88l-45 84v-86h-10v109h15l40 -90l41 90h17v-109h-13zM532 327.997v-101h-17v101h-34v8h86v-8h-35z" />
    <glyph glyph-name=".notdef" horiz-adv-x="357" 
d="M0 0v511h357v-511h-357zM310 482h-265l133 -201zM160 254l-131 201v-400zM46 29h264l-132 199zM195 254l133 -201v404z" />
    <glyph glyph-name="space" unicode=" " horiz-adv-x="250" 
 />
    <glyph glyph-name="exclam" unicode="!" horiz-adv-x="206" 
d="M139 419c-2.66699 -56 -7.33496 -112.001 -14.002 -168.001s-12.667 -111.667 -18 -167h-8c-5.33301 54.667 -12 110.334 -20 167.001s-12 112.667 -12 168c0 6 0.333008 12.667 1 20s2.33398 14.166 5.00098 20.499s6.5 11.666 11.5 15.999s11.5 6.5 19.5 6.5
s14.333 -2.16699 19 -6.5s8.33398 -9.66602 11.001 -15.999s4.16699 -13.166 4.5 -20.499s0.5 -14 0.5 -20zM137.999 23.999c0 -9.33301 -3.16895 -17.333 -9.50195 -24s-14.166 -10 -23.499 -10s-17.333 3.33301 -24 10s-10 14.667 -10 24s3.33301 17.166 10 23.499
s14.667 9.5 24 9.5c8.66699 0 16.334 -3.16699 23.001 -9.5s10 -14.166 10 -23.499z" />
    <glyph glyph-name="quotedbl" unicode="&#x22;" horiz-adv-x="246" 
d="M201 449c0 -32 -2.5 -64.833 -7.5 -98.5s-9.16699 -66.5 -12.5 -98.5h-10c-3.33301 32 -7.5 64.833 -12.5 98.5s-7.5 66.5 -7.5 98.5c0 8 1.83301 15.333 5.5 22s10.167 10 19.5 10s15.833 -3.5 19.5 -10.5s5.5 -14.167 5.5 -21.5zM95 449
c0 -32 -2.49902 -64.833 -7.49902 -98.5s-9.16699 -66.5 -12.5 -98.5h-10c-3.33301 32 -7.5 65 -12.5 99s-7.5 67 -7.5 99c0 8 2 15.167 6 21.5s10.667 9.5 20 9.5s15.666 -3.5 18.999 -10.5s5 -14.167 5 -21.5z" />
    <glyph glyph-name="numbersign" unicode="#" horiz-adv-x="478" 
d="M331 276l-14 -104h73v-27h-77l-20 -145h-31l20 145h-101l-20 -145h-31l20 145h-82v27h86l14 104h-80v27h84l20 145h31l-20 -145h102l20 145h30l-20 -145h74v-27h-78zM199 276l-14 -104h101l15 104h-102z" />
    <glyph glyph-name="dollar" unicode="$" horiz-adv-x="478" 
d="M429 142c0 -23.333 -5.16992 -42.835 -15.5029 -58.502s-23.833 -28.5 -40.5 -38.5s-35 -17.333 -55 -22s-39.667 -7.66699 -59 -9v-68h-21v68c-18.667 0 -38.667 2.33301 -60 7s-41.166 12 -59.499 22s-34.166 22.833 -47.499 38.5s-21 34.167 -23 55.5h58
c0.666992 -16 4.83398 -30.5 12.501 -43.5s17.5 -24 29.5 -33s25.333 -15.833 40 -20.5s29.667 -7 45 -7c14.667 0 30.5 1.5 47.5 4.5s32.667 8 47 15s26.166 16.5 35.499 28.5s14 27.333 14 46c0 20 -7.5 35.5 -22.5 46.5s-33.833 20.167 -56.5 27.5
s-47.334 13.833 -74.001 19.5s-51.334 12.5 -74.001 20.5s-41.5 18.667 -56.5 32s-22.5 31.333 -22.5 54c0 20.667 5.5 38.167 16.5 52.5s24.833 25.833 41.5 34.5s34.834 14.834 54.501 18.501s37.834 5.5 54.501 5.5v65h21v-65c16.667 -0.666992 33.334 -3 50.001 -7
s32.167 -10 46.5 -18s27.333 -18 39 -30s20.5 -26.333 26.5 -43h-52c-11.333 26.667 -28.166 47 -50.499 61s-47.5 21 -75.5 21c-12.667 0 -26 -1.33301 -40 -4s-26.833 -7.16699 -38.5 -13.5s-21.334 -14.833 -29.001 -25.5s-11.5 -23.667 -11.5 -39
c0 -16.667 7.5 -29.667 22.5 -39s33.833 -17.333 56.5 -24s47.167 -13 73.5 -19s50.833 -13.667 73.5 -23s41.5 -21.166 56.5 -35.499s22.5 -33.5 22.5 -57.5z" />
    <glyph glyph-name="percent" unicode="%" horiz-adv-x="492" 
d="M473 126c0 -14.667 -2.33301 -29.5 -7 -44.5s-11.334 -28.667 -20.001 -41s-19.5 -22.333 -32.5 -30s-27.5 -11.5 -43.5 -11.5s-30.5 3.83301 -43.5 11.5s-24 17.667 -33 30s-15.833 26 -20.5 41s-7 29.833 -7 44.5s2.33301 29.5 7 44.5s11.5 28.5 20.5 40.5
s20 21.833 33 29.5s27.5 11.5 43.5 11.5s30.5 -3.83301 43.5 -11.5s23.833 -17.5 32.5 -29.5s15.334 -25.5 20.001 -40.5s7 -29.833 7 -44.5zM121 -11h-26l277 471h26zM228 323c0 -14.667 -2.33301 -29.5 -7 -44.5s-11.334 -28.667 -20.001 -41s-19.5 -22.333 -32.5 -30
s-27.5 -11.5 -43.5 -11.5s-30.5 3.83301 -43.5 11.5s-24 17.667 -33 30s-15.833 26 -20.5 41s-7 29.833 -7 44.5c0 14 2.33301 28.5 7 43.5s11.334 28.667 20.001 41s19.5 22.333 32.5 30s27.5 11.5 43.5 11.5s30.5 -3.83301 43.5 -11.5s24 -17.5 33 -29.5
s15.833 -25.5 20.5 -40.5s7 -29.833 7 -44.5zM435 126c0 8.66699 -1.16895 19.667 -3.50195 33s-6 26 -11 38s-11.5 22.333 -19.5 31s-18 13 -30 13s-22.167 -4.33301 -30.5 -13s-15.166 -19 -20.499 -31s-9.16602 -24.5 -11.499 -37.5s-3.5 -24.167 -3.5 -33.5
s1.16699 -20.5 3.5 -33.5s6 -25.5 11 -37.5s11.667 -22.333 20 -31s18.5 -13 30.5 -13s22.167 4.33301 30.5 13s15 19 20 31s8.66699 24.5 11 37.5s3.5 24.167 3.5 33.5zM188.998 323c0 8.66699 -1.16699 19.667 -3.5 33s-6 26 -11 38s-11.5 22.333 -19.5 31s-18 13 -30 13
s-22 -4.33301 -30 -13s-14.5 -19 -19.5 -31s-8.66699 -24.667 -11 -38s-3.5 -24.333 -3.5 -33c0 -9.33301 1.16699 -20.666 3.5 -33.999s6 -26 11 -38s11.5 -22.333 19.5 -31s18 -13 30 -13s22 4.33301 30 13s14.5 19 19.5 31s8.66699 24.667 11 38s3.5 24.666 3.5 33.999z
" />
    <glyph glyph-name="ampersand" unicode="&#x26;" horiz-adv-x="518" 
d="M420 0c-10.667 5.33301 -20.665 11.335 -29.998 18.002l-28 21c-21.333 -17.333 -45 -30.5 -71 -39.5s-53 -13.5 -81 -13.5c-18 0 -37 2 -57 6s-38.167 10.5 -54.5 19.5s-29.833 21.167 -40.5 36.5s-16 34 -16 56c0 18 3.33301 33.5 10 46.5s15.5 24.5 26.5 34.5
s23.5 18.833 37.5 26.5l42 22.5c-12 13.333 -22.833 28.166 -32.5 44.499s-14.5 33.833 -14.5 52.5c0 34 11.167 62 33.5 84s50.5 33 84.5 33c12 0 23.833 -1.66699 35.5 -5s22.334 -8.33301 32.001 -15s17.5 -15 23.5 -25s9 -21.667 9 -35
c0 -16.667 -3.5 -31.334 -10.5 -44.001s-15.833 -23.667 -26.5 -33s-22.834 -17.666 -36.501 -24.999s-26.834 -14 -39.501 -20c24.667 -28 50.167 -54.833 76.5 -80.5s54.5 -49.834 84.5 -72.501c7.33301 13.333 12.666 27.5 15.999 42.5s5 30.167 5 45.5
c0 16.667 -2 32.667 -6 48h64c-1.33301 -28 -7 -55 -17 -81s-23.667 -50 -41 -72c18 -14 36.667 -27.333 56 -40s39 -24.667 59 -36h-93zM285.002 362.002c0 21.333 -6.83301 38.999 -20.5 52.999s-31.167 21 -52.5 21c-17.333 0 -32 -6.83301 -44 -20.5
s-18 -29.167 -18 -46.5c0 -23.333 5.66699 -43.333 17 -60s24.333 -33.667 39 -51c22 10.667 40.667 23.834 56 39.501s23 37.167 23 64.5zM347.002 52.001c-32 25.333 -62.666 52.333 -91.999 81l-86 88c-19.333 -10.667 -35.833 -23.5 -49.5 -38.5
s-20.5 -34.167 -20.5 -57.5c0 -16 3.66699 -31.5 11 -46.5s17.166 -28.333 29.499 -40s26.166 -21 41.499 -28s31 -10.5 47 -10.5c22.667 0 44.334 4.33301 65.001 13s38.667 21.667 54 39z" />
    <glyph glyph-name="quotesingle" unicode="'" horiz-adv-x="156" 
d="M103 449c0 -32 -2.5 -64.833 -7.5 -98.5s-9.16699 -66.5 -12.5 -98.5h-10c-3.33301 32 -7.5 65 -12.5 99s-7.5 67 -7.5 99c0 8 1.83301 15.167 5.5 21.5s10.167 9.5 19.5 9.5s15.833 -3.5 19.5 -10.5s5.5 -14.167 5.5 -21.5z" />
    <glyph glyph-name="parenleft" unicode="(" horiz-adv-x="200" 
d="M145 -146c-35.333 48.667 -62.666 97.833 -81.999 147.5s-29 105.167 -29 166.5c0 60 9.66699 115.333 29 166s46.666 100 81.999 148h12c-16 -28 -29 -54.167 -39 -78.5s-17.667 -48.5 -23 -72.5s-9 -49.167 -11 -75.5s-3 -55.5 -3 -87.5s1 -61.167 3 -87.5
s5.66699 -51.5 11 -75.5s13 -48.167 23 -72.5s23 -50.5 39 -78.5h-12z" />
    <glyph glyph-name="parenright" unicode=")" horiz-adv-x="200" 
d="M157 168c0 -61.333 -9.83301 -116.832 -29.5 -166.499s-47.167 -98.834 -82.5 -147.501h-11c16 28 28.833 54.167 38.5 78.5s17.334 48.5 23.001 72.5s9.5 49.167 11.5 75.5s3 55.5 3 87.5s-1 61.167 -3 87.5s-5.83301 51.5 -11.5 75.5s-13.334 48.167 -23.001 72.5
s-22.5 50.5 -38.5 78.5h11c34.667 -48 62 -97.333 82 -148s30 -106 30 -166z" />
    <glyph glyph-name="asterisk" unicode="*" horiz-adv-x="334" 
d="M178 334l87 -84l-44 -33l-54 109l-54 -109l-44 33l87 84l-115 17l17 51l101 -53l-21 118h55l-20 -119l104 54l16 -51z" />
    <glyph glyph-name="plus" unicode="+" horiz-adv-x="442" 
d="M239 171v-171h-36v171h-168v37h168v171h36v-171h168v-37h-168z" />
    <glyph glyph-name="comma" unicode="," horiz-adv-x="240" 
d="M155 12c0 -19.333 -4.83398 -38.4971 -14.501 -57.4971s-22.834 -33.167 -39.501 -42.5l-4 4c9.33301 8.66699 17.833 19.667 25.5 33s10.834 26.666 9.50098 39.999v9c-2.66699 -0.666992 -5.16699 -1.33398 -7.5 -2.00098s-4.83301 -1 -7.5 -1
c-9.33301 0 -17.166 3.16699 -23.499 9.5s-9.5 14.166 -9.5 23.499s3.33301 17.333 10 24s14.667 10 24 10c14.667 0 24.5 -5.5 29.5 -16.5s7.5 -22.167 7.5 -33.5z" />
    <glyph glyph-name="hyphen" unicode="-" horiz-adv-x="268" 
d="M253 178h-238v39h238v-39z" />
    <glyph glyph-name="period" unicode="." horiz-adv-x="240" 
d="M155 27c0 -9.33301 -3.33301 -17.666 -10 -24.999s-15 -11 -25 -11c-9.33301 0 -17.333 3.66699 -24 11s-10 15.666 -10 24.999s3.33301 17.333 10 24s14.667 10 24 10s17.5 -3.33301 24.5 -10s10.5 -14.667 10.5 -24z" />
    <glyph glyph-name="slash" unicode="/" horiz-adv-x="207" 
d="M26 -15h-34l190 496h33z" />
    <glyph glyph-name="zero" unicode="0" horiz-adv-x="442" 
d="M421 228c0 -29.333 -4.5 -58 -13.5 -86s-22 -53 -39 -75s-37.833 -39.833 -62.5 -53.5s-53 -20.5 -85 -20.5s-60.333 6.83301 -85 20.5s-45.5 31.5 -62.5 53.5s-30 47 -39 75s-13.5 56.667 -13.5 86c0 28.667 4.5 57 13.5 85s22 53 39 75s37.833 39.833 62.5 53.5
s53 20.5 85 20.5s60.333 -6.83301 85 -20.5s45.5 -31.5 62.5 -53.5s30 -47 39 -75s13.5 -56.333 13.5 -85zM366 228c0 23.333 -2 47.5 -6 72.5s-11.5 47.667 -22.5 68s-25.833 37 -44.5 50s-42.667 19.5 -72 19.5s-53.333 -6.5 -72 -19.5s-33.5 -29.667 -44.5 -50
s-18.5 -43 -22.5 -68s-6 -49.167 -6 -72.5c0 -24 2 -48.333 6 -73s11.5 -47.334 22.5 -68.001s25.833 -37.5 44.5 -50.5s42.667 -19.5 72 -19.5s53.333 6.5 72 19.5s33.5 29.833 44.5 50.5s18.5 43.334 22.5 68.001s6 49 6 73z" />
    <glyph glyph-name="one" unicode="1" horiz-adv-x="442" 
d="M201 0v365h-112v22c17.333 0 32.833 0.666992 46.5 2s26 4.5 37 9.5s20.833 12.333 29.5 22s16.667 23.167 24 40.5h28v-461h-53z" />
    <glyph glyph-name="two" unicode="2" horiz-adv-x="442" 
d="M29 0c4 29.333 14.6699 53.998 32.0029 73.998s37.666 37.333 60.999 52s48 28.167 74 40.5s49.833 25.333 71.5 39s39.667 29.334 54 47.001s21.5 39.5 21.5 65.5c0 19.333 -3.66699 36.333 -11 51s-17.166 27 -29.499 37s-26.5 17.667 -42.5 23s-33 8 -51 8
s-35.333 -2.83301 -52 -8.5s-31.334 -13.667 -44.001 -24s-22.834 -23.166 -30.501 -38.499s-11.5 -32.333 -11.5 -51h-53c3.33301 24 11 45 23 63s26.667 32.833 44 44.5s36.666 20.5 57.999 26.5s43.333 9 66 9c22 0 44 -2.5 66 -7.5s42 -13.167 60 -24.5
s32.667 -26 44 -44s17 -39.667 17 -65c0 -28 -7.16699 -51.667 -21.5 -71s-32.5 -35.833 -54.5 -49.5s-46 -25.667 -72 -36s-50.333 -20.666 -73 -30.999s-42 -21.833 -58 -34.5s-25.333 -28.334 -28 -47.001h317v-48h-377z" />
    <glyph glyph-name="three" unicode="3" horiz-adv-x="442" 
d="M419 131c0 -26 -6.67188 -47.8408 -20.0049 -65.5078s-30.166 -31.834 -50.499 -42.501s-42.5 -18.334 -66.5 -23.001s-46.667 -7 -68 -7c-22.667 0 -44.667 2.83301 -66 8.5s-40.666 14.334 -57.999 26.001s-32 26.334 -44 44.001s-19.667 38.5 -23 62.5h53
c0 -19.333 3.83301 -36.333 11.5 -51s18 -27 31 -37s27.667 -17.667 44 -23s33.5 -8 51.5 -8c17.333 0 35 2.33301 53 7s34.333 11.834 49 21.501s26.667 21.834 36 36.501s14 32 14 52c0 18.667 -4.5 34.334 -13.5 47.001s-20.333 22.834 -34 30.501s-28.834 13 -45.501 16
s-33 4.5 -49 4.5c-9.33301 0 -18.833 -0.5 -28.5 -1.5s-19.167 -2.16699 -28.5 -3.5v29c14 -2 27.667 -3 41 -3c14.667 0 29.834 1.66699 45.501 5s30 8.83301 43 16.5s23.667 17.5 32 29.5s12.5 26.667 12.5 44c0 16.667 -3.66699 30.834 -11 42.501s-17 21.167 -29 28.5
s-25.333 12.5 -40 15.5s-29.334 4.5 -44.001 4.5c-33.333 0 -60 -9 -80 -27s-31 -44 -33 -78h-53c1.33301 21.333 7.16602 40 17.499 56s23.333 29.167 39 39.5s33 18 52 23s38.167 7.5 57.5 7.5c18 0 37.333 -1.66699 58 -5s39.834 -9.16602 57.501 -17.499
s32.334 -19.666 44.001 -33.999s17.5 -32.833 17.5 -55.5c0 -15.333 -3.16699 -28.833 -9.5 -40.5s-14.666 -21.667 -24.999 -30s-22.166 -15.166 -35.499 -20.499s-26.666 -9.33301 -39.999 -12c16.667 -1.33301 33 -4.5 49 -9.5s30.333 -12 43 -21s23 -20.167 31 -33.5
s12 -29.333 12 -48z" />
    <glyph glyph-name="four" unicode="4" horiz-adv-x="442" 
d="M396 111h-90v-111h-52v111h-241l-11 14l298 336h6v-317h103zM254 373l-202 -229h202v229z" />
    <glyph glyph-name="five" unicode="5" horiz-adv-x="442" 
d="M420 134c0 -25.333 -6.49512 -47.0029 -19.4951 -65.0029s-29.333 -32.667 -49 -44s-41.334 -19.5 -65.001 -24.5s-46.167 -7.5 -67.5 -7.5c-22 0 -43.833 2.83301 -65.5 8.5s-41.334 14.334 -59.001 26.001s-32.5 26.334 -44.5 44.001s-19.667 38.5 -23 62.5h53
c0 -19.333 3.83301 -36.5 11.5 -51.5s18 -27.5 31 -37.5s27.667 -17.667 44 -23s33.5 -8 51.5 -8c17.333 0 34.666 2.83301 51.999 8.5s33 13.667 47 24s25.333 23 34 38s13 32.167 13 51.5c0 21.333 -4.5 39.833 -13.5 55.5s-20.667 28.5 -35 38.5s-30.833 17.5 -49.5 22.5
s-37.334 7.5 -56.001 7.5c-23.333 0 -45.833 -2.66699 -67.5 -8s-42.167 -14.666 -61.5 -27.999l-20 5l23 224h308l-15 -48h-272l-16 -152c17.333 12 38.166 20.333 62.499 25s46.833 7 67.5 7c24 0 48 -2.66699 72 -8s45.5 -13.833 64.5 -25.5s34.5 -27.167 46.5 -46.5
s18 -43 18 -71z" />
    <glyph glyph-name="six" unicode="6" horiz-adv-x="442" 
d="M418 160c0 -27.333 -5.33496 -51.334 -16.002 -72.001s-24.834 -38 -42.501 -52s-38.167 -24.667 -61.5 -32s-47.333 -11 -72 -11c-31.333 0 -59.5 6 -84.5 18s-46.333 28 -64 48s-31.334 43.333 -41.001 70s-14.5 54.667 -14.5 84c0 32.667 4.33301 63.834 13 93.501
s21.834 55.834 39.501 78.501s39.834 40.5 66.501 53.5s57.667 19.5 93 19.5c16.667 0 35.167 -2 55.5 -6s39.166 -10.333 56.499 -19s32 -20.167 44 -34.5s18 -31.833 18 -52.5h-53c0 14.667 -4 27.5 -12 38.5s-18 20.167 -30 27.5s-25.167 12.666 -39.5 15.999
s-27.833 5 -40.5 5c-25.333 0 -47.666 -5.5 -66.999 -16.5s-35.5 -25.5 -48.5 -43.5s-22.833 -38.333 -29.5 -61s-10 -45.334 -10 -68.001c0 -4 0.166992 -8 0.5 -12s0.833008 -8 1.5 -12c12.667 32 33.834 55.833 63.501 71.5s60.834 23.5 93.501 23.5
c23.333 0 46 -3.33301 68 -10s41.333 -16.5 58 -29.5s30 -29.167 40 -48.5s15 -41.666 15 -66.999zM360.998 152.999c0 18.667 -3.49902 36.166 -10.499 52.499s-16.5 30.5 -28.5 42.5s-26.167 21.5 -42.5 28.5s-33.833 10.5 -52.5 10.5s-36.167 -3.5 -52.5 -10.5
s-30.666 -16.5 -42.999 -28.5s-22 -26.167 -29 -42.5s-10.5 -33.833 -10.5 -52.5s3.5 -36.167 10.5 -52.5s16.667 -30.666 29 -42.999s26.666 -22 42.999 -29s33.833 -10.5 52.5 -10.5c19.333 0 37.166 3.33301 53.499 10s30.5 16 42.5 28s21.333 26.333 28 43
s10 34.667 10 54z" />
    <glyph glyph-name="seven" unicode="7" horiz-adv-x="442" 
d="M420 453c0 -18.667 -5.83301 -37.0049 -17.5 -55.0049s-26.167 -37 -43.5 -57l-56.5 -63.5c-20.333 -22.333 -39.333 -47.166 -57 -74.499s-32.167 -57.666 -43.5 -90.999s-17 -70.666 -17 -111.999h-58c0 37.333 5.83301 71.333 17.5 102s26.167 58.834 43.5 84.501
s36.333 48.834 57 69.501l57 57c17.333 17.333 31.833 33.5 43.5 48.5s17.5 29.5 17.5 43.5h-332l15 48h374v0z" />
    <glyph glyph-name="eight" unicode="8" horiz-adv-x="442" 
d="M426 134c0 -26 -6.83691 -47.9971 -20.5039 -65.9971s-30.667 -32.5 -51 -43.5s-42.666 -19 -66.999 -24s-47.166 -7.5 -68.499 -7.5c-20.667 0 -42.834 2 -66.501 6s-45.667 11 -66 21s-37.166 23.5 -50.499 40.5s-20 38.5 -20 64.5c0 17.333 3.83301 33 11.5 47
s17.834 26 30.501 36s26.834 18.167 42.501 24.5s31.167 10.833 46.5 13.5c-12 4 -24 9.16699 -36 15.5s-22.667 13.833 -32 22.5s-16.833 18.667 -22.5 30s-8.5 24.333 -8.5 39c0 20.667 6.16699 38.167 18.5 52.5s27.5 25.666 45.5 33.999s37.333 14.333 58 18
s39.334 5.5 56.001 5.5c14.667 0 31.834 -1.5 51.501 -4.5s38.167 -8.33301 55.5 -16s32.166 -17.834 44.499 -30.501s18.5 -28.667 18.5 -48c0 -14.667 -4.16699 -27.834 -12.5 -39.501s-18.833 -22 -31.5 -31s-26.334 -16.167 -41.001 -21.5s-28 -9 -40 -11
c16 -4 33 -9.16699 51 -15.5s34.833 -14.333 50.5 -24s28.5 -21.667 38.5 -36s15 -31.5 15 -51.5zM343.996 361.003c0 14.667 -3.99902 27.167 -11.999 37.5s-17.833 18.666 -29.5 24.999s-24.5 10.833 -38.5 13.5s-27 4 -39 4c-11.333 0 -24.333 -1.16699 -39 -3.5
s-28.5 -6.5 -41.5 -12.5s-24 -13.833 -33 -23.5s-13.5 -21.834 -13.5 -36.501c0 -15.333 5.33301 -28.166 16 -38.499s23.667 -18.833 39 -25.5s31.166 -12 47.499 -16l41.5 -10c10 2.66699 21 6.33398 33 11.001s23.167 10.334 33.5 17.001s18.833 14.667 25.5 24
s10 20.666 10 33.999zM372.997 130.003c0 12.667 -7.49902 25.334 -22.499 38.001s-32.667 23.667 -53 33s-40.833 17 -61.5 23s-36.334 9 -47.001 9c-12.667 0 -25.667 -2.66699 -39 -8s-25.5 -12.5 -36.5 -21.5s-20.167 -19.5 -27.5 -31.5s-11 -24.667 -11 -38
c0 -18.667 4.33301 -35.167 13 -49.5s20 -26.5 34 -36.5s29.5 -17.5 46.5 -22.5s33.833 -7.5 50.5 -7.5c16 0 33 2.16699 51 6.5s34.667 11.166 50 20.499s28 21 38 35s15 30.667 15 50z" />
    <glyph glyph-name="nine" unicode="9" horiz-adv-x="442" 
d="M420 238c0 -33.333 -4.33105 -64.667 -12.998 -94s-21.834 -55.333 -39.501 -78s-39.834 -40.5 -66.501 -53.5s-57.667 -19.5 -93 -19.5c-16.667 0 -35.167 2 -55.5 6s-39.166 10.5 -56.499 19.5s-32 20.667 -44 35s-18 31.833 -18 52.5h53c0 -15.333 4 -28.5 12 -39.5
s18 -20.167 30 -27.5s25.167 -12.666 39.5 -15.999s27.833 -5 40.5 -5c25.333 0 47.666 5.5 66.999 16.5s35.5 25.5 48.5 43.5s22.833 38.333 29.5 61s10 45.667 10 69c0 4 -0.166992 7.83301 -0.5 11.5s-0.833008 7.5 -1.5 11.5c-12.667 -32 -33.834 -55.833 -63.501 -71.5
s-60.834 -23.5 -93.501 -23.5c-23.333 0 -46 3.33301 -68 10s-41.333 16.5 -58 29.5s-30 29.167 -40 48.5s-15 41.666 -15 66.999c0 27.333 5.33301 51.333 16 72s24.834 38 42.501 52s38 24.667 61 32s47.167 11 72.5 11c31.333 0 59.5 -5.83301 84.5 -17.5
s46.333 -27.5 64 -47.5s31.334 -43.333 41.001 -70s14.5 -55 14.5 -85zM350.002 298.999c0 18 -3.50098 35.167 -10.501 51.5s-16.667 30.666 -29 42.999s-26.666 22 -42.999 29s-33.833 10.5 -52.5 10.5c-19.333 0 -37.166 -3.33301 -53.499 -10s-30.5 -16 -42.5 -28
s-21.333 -26.167 -28 -42.5s-10 -34.166 -10 -53.499c0 -18.667 3.5 -36.167 10.5 -52.5s16.5 -30.666 28.5 -42.999s26.167 -22 42.5 -29s33.833 -10.5 52.5 -10.5s36.167 3.5 52.5 10.5s30.666 16.667 42.999 29s22 26.666 29 42.999s10.5 33.833 10.5 52.5z" />
    <glyph glyph-name="colon" unicode=":" horiz-adv-x="240" 
d="M155 299c0 -9.33301 -3.5 -17.5 -10.5 -24.5s-15.167 -10.5 -24.5 -10.5s-17.333 3.5 -24 10.5s-10 15.167 -10 24.5s3.33301 17.5 10 24.5s14.667 10.5 24 10.5s17.5 -3.5 24.5 -10.5s10.5 -15.167 10.5 -24.5zM155 27c0 -9.33301 -3.33301 -17.666 -10 -24.999
s-15 -11 -25 -11c-9.33301 0 -17.333 3.66699 -24 11s-10 15.666 -10 24.999s3.33301 17.333 10 24s14.667 10 24 10s17.5 -3.33301 24.5 -10s10.5 -14.667 10.5 -24z" />
    <glyph glyph-name="semicolon" unicode=";" horiz-adv-x="240" 
d="M155 299c0 -9.33301 -3.5 -17.5 -10.5 -24.5s-15.167 -10.5 -24.5 -10.5s-17.333 3.5 -24 10.5s-10 15.167 -10 24.5s3.33301 17.5 10 24.5s14.667 10.5 24 10.5s17.5 -3.5 24.5 -10.5s10.5 -15.167 10.5 -24.5zM155 12c0 -19.333 -4.83398 -38.4971 -14.501 -57.4971
s-22.834 -33.167 -39.501 -42.5l-4 4c9.33301 8.66699 17.833 19.667 25.5 33s10.834 26.666 9.50098 39.999v9c-2.66699 -0.666992 -5.16699 -1.33398 -7.5 -2.00098s-4.83301 -1 -7.5 -1c-9.33301 0 -17.166 3.16699 -23.499 9.5s-9.5 14.166 -9.5 23.499
s3.33301 17.333 10 24s14.667 10 24 10c14.667 0 24.5 -5.5 29.5 -16.5s7.5 -22.167 7.5 -33.5z" />
    <glyph glyph-name="less" unicode="&#x3c;" horiz-adv-x="442" 
d="M39 171v38l364 170v-40l-322 -149l322 -149v-40z" />
    <glyph glyph-name="equal" unicode="=" horiz-adv-x="442" 
d="M35 248v37h372v-37h-372zM35 100v37h372v-37h-372z" />
    <glyph glyph-name="greater" unicode="&#x3e;" horiz-adv-x="442" 
d="M39 1v40l322 149l-322 149v40l364 -170v-38z" />
    <glyph glyph-name="question" unicode="?" horiz-adv-x="369" 
d="M333 350c0 -18 -3.99902 -33.5 -11.999 -46.5s-18 -25 -30 -36s-25.167 -21.833 -39.5 -32.5s-27.333 -22.834 -39 -36.501s-21.334 -29.667 -29.001 -48s-11.167 -40.5 -10.5 -66.5h-12c-2 14 -3 27.667 -3 41c0 34 5.66699 61 17 81s23.666 37.333 36.999 52l37 42.5
c11.333 13.667 17 30.834 17 51.501c0 31.333 -6.33301 57.333 -19 78s-36 31 -70 31c-19.333 0 -35.166 -3.66699 -47.499 -11s-22.166 -17 -29.499 -29s-12.5 -25.833 -15.5 -41.5s-4.5 -31.5 -4.5 -47.5h-53c0 46 13.833 82.333 41.5 109s64.5 40 110.5 40
c20 0 39.167 -2.66699 57.5 -8s34.666 -13.5 48.999 -24.5s25.833 -24.667 34.5 -41s13 -35.5 13 -57.5zM201.001 25c0 -9.33301 -3.33301 -17.333 -10 -24s-14.667 -10 -24 -10s-17.166 3.33301 -23.499 10s-9.5 14.667 -9.5 24s3.16699 17.333 9.5 24s14.166 10 23.499 10
s17.333 -3.33301 24 -10s10 -14.667 10 -24z" />
    <glyph glyph-name="at" unicode="@" horiz-adv-x="586" 
d="M543 270c0 -18 -3.16211 -37.166 -9.49512 -57.499s-15.333 -38.833 -27 -55.5s-25.834 -30.5 -42.501 -41.5s-35.334 -16.5 -56.001 -16.5c-34 0 -54.667 17.333 -62 52c-13.333 -16 -26.5 -28.5 -39.5 -37.5s-30.167 -13.5 -51.5 -13.5c-12 0 -22.167 2.66699 -30.5 8
s-15 12.166 -20 20.499s-8.5 17.666 -10.5 27.999s-3 20.5 -3 30.5c0 18.667 3 38 9 58s14.833 38.5 26.5 55.5s25.667 31 42 42s35.166 16.5 56.499 16.5c12 0 23.333 -3.16699 34 -9.5s19 -14.833 25 -25.5l21 27h36c-3.33301 -12 -7.66602 -26.833 -12.999 -44.5l-16 -54
c-5.33301 -18.333 -9.83301 -36.166 -13.5 -53.499s-5.5 -31.666 -5.5 -42.999c0 -4 0.666992 -9.33301 2 -16l7 -13l14 -5c16.667 0 31.334 5 44.001 15s23.334 22.5 32.001 37.5s15.167 30.833 19.5 47.5s6.5 32 6.5 46c0 28.667 -5.66699 55 -17 79
s-26.833 44.667 -46.5 62s-42.167 30.833 -67.5 40.5s-52 14.5 -80 14.5c-33.333 0 -62.833 -6.66699 -88.5 -20s-47.334 -31.166 -65.001 -53.499s-31.167 -47.833 -40.5 -76.5s-14 -58.334 -14 -89.001c0 -31.333 5.33301 -60 16 -86s25.5 -48.5 44.5 -67.5
s41.5 -33.667 67.5 -44s54.667 -15.5 86 -15.5c24.667 0 49.167 2.33301 73.5 7s47.166 13 68.499 25l11 -17c-23.333 -13.333 -47.5 -23.5 -72.5 -30.5s-50.833 -10.5 -77.5 -10.5c-34.667 0 -68.334 5.33301 -101.001 16s-61.834 26.167 -87.501 46.5
s-46.167 45.166 -61.5 74.499s-23 62.666 -23 99.999c0 36.667 6.83301 70.834 20.5 102.501s32.5 59 56.5 82s52 41 84 54s66.333 19.5 103 19.5c31.333 0 61.166 -4.83301 89.499 -14.5s53.333 -23.5 75 -41.5s39 -40.167 52 -66.5s19.5 -55.833 19.5 -88.5z
M373.005 279.001c0 5.33301 -0.833008 11.166 -2.5 17.499s-4 12.166 -7 17.499s-6.83301 9.83301 -11.5 13.5s-10 5.5 -16 5.5c-18 0 -33.333 -4.66699 -46 -14s-22.667 -21.166 -30 -35.499s-12.666 -30 -15.999 -47s-5 -32.833 -5 -47.5
c0 -15.333 3.16699 -29.166 9.5 -41.499s18.166 -18.5 35.499 -18.5c14 0 26.5 5.66699 37.5 17s20.333 25 28 41s13.5 32.5 17.5 49.5s6 31.167 6 42.5z" />
    <glyph glyph-name="A" unicode="A" horiz-adv-x="524" 
d="M461 0l-126 239h-176l-127 -239h-32l264 482h11l249 -482h-63zM251 409l-78 -146h151z" />
    <glyph glyph-name="B" unicode="B" horiz-adv-x="535" 
d="M510 128c0 -28.667 -8.33594 -51.3301 -25.0029 -67.9971s-37.167 -29.5 -61.5 -38.5s-50.166 -14.833 -77.499 -17.5s-51.666 -4 -72.999 -4h-223v467h233c17.333 0 36.5 -1.33301 57.5 -4s40.833 -7.83398 59.5 -15.501s34.167 -18.5 46.5 -32.5s18.5 -32.333 18.5 -55
c0 -18 -5.16699 -33.667 -15.5 -47s-23.166 -24.333 -38.499 -33s-32 -15.334 -50 -20.001s-34.333 -7.33398 -49 -8.00098c18.667 -1.33301 39.5 -4 62.5 -8s44.5 -10.5 64.5 -19.5s36.833 -21.167 50.5 -36.5s20.5 -35.333 20.5 -60zM406.997 355.004
c0 20.667 -5.50098 36.832 -16.501 48.499s-24.5 20.334 -40.5 26.001s-33.167 9.16699 -51.5 10.5s-35.166 2 -50.499 2h-144v-179h147c14.667 0 31 1.16699 49 3.5s35 7 51 14s29.333 16.333 40 28s16 27.167 16 46.5zM446.996 124.002
c0 26 -6.49902 46.499 -19.499 61.499s-29.333 26.5 -49 34.5s-40.834 13 -63.501 15s-44 3 -64 3h-147v-214h200c15.333 0 31.5 1.66699 48.5 5s32.5 9 46.5 17s25.5 18.333 34.5 31s13.5 28.334 13.5 47.001z" />
    <glyph glyph-name="C" unicode="C" horiz-adv-x="562" 
d="M537 134c-10 -24.667 -22.8311 -46.3311 -38.498 -64.998s-33.667 -34.167 -54 -46.5s-42.666 -21.666 -66.999 -27.999s-49.5 -9.5 -75.5 -9.5c-34.667 0 -68.667 5.66699 -102 17s-63 27.666 -89 48.999s-46.833 47 -62.5 77s-23.5 63.667 -23.5 101
c0 39.333 7.5 74.666 22.5 105.999s35.333 57.833 61 79.5s55.167 38.334 88.5 50.001s68.666 17.5 105.999 17.5c26 0 51 -3.16699 75 -9.5s46.167 -15.833 66.5 -28.5s38.5 -28.334 54.5 -47.001s28.667 -40.334 38 -65.001h-69c-11.333 38.667 -31.5 69.5 -60.5 92.5
s-64.167 34.5 -105.5 34.5c-32 0 -61 -5.66699 -87 -17s-48.333 -27 -67 -47s-33.167 -43.5 -43.5 -70.5s-15.5 -56.167 -15.5 -87.5c0 -30.667 5.16699 -60 15.5 -88s24.666 -52.5 42.999 -73.5s40.666 -37.667 66.999 -50s55.5 -18.5 87.5 -18.5
c41.333 0 76.5 11.5 105.5 34.5s49.167 53.833 60.5 92.5h69v0z" />
    <glyph glyph-name="D" unicode="D" horiz-adv-x="557" 
d="M532 248c0 -49.333 -8.33008 -89.834 -24.9971 -121.501s-39.167 -57 -67.5 -76s-61.333 -32.167 -99 -39.5s-77.834 -11 -120.501 -11h-170v467h166c36.667 0 73.667 -3 111 -9s71.166 -17.167 101.499 -33.5s55.166 -38.666 74.499 -66.999s29 -64.833 29 -109.5z
M466.003 247.999c0 37.333 -6.16699 68.333 -18.5 93s-29 44.5 -50 59.5s-46 25.667 -75 32s-59.833 9.5 -92.5 9.5h-126v-418h126c78.667 0 137.667 16.833 177 50.5s59 91.5 59 173.5z" />
    <glyph glyph-name="E" unicode="E" horiz-adv-x="451" 
d="M50 0v467h391v-25h-337v-179h265v-24h-265v-215h337v-24h-391z" />
    <glyph glyph-name="F" unicode="F" horiz-adv-x="451" 
d="M104 442v-179h265v-24h-265v-239h-54v467h391v-25h-337z" />
    <glyph glyph-name="G" unicode="G" horiz-adv-x="562" 
d="M468 332c-4.66699 20.667 -12.501 38.8291 -23.501 54.4961s-24 28.834 -39 39.501s-31.833 18.834 -50.5 24.501s-38 8.5 -58 8.5c-31.333 0 -59.666 -5.83301 -84.999 -17.5s-47 -27.5 -65 -47.5s-31.833 -43.333 -41.5 -70s-14.5 -55 -14.5 -85
s4.5 -58.833 13.5 -86.5s22.167 -52.167 39.5 -73.5s38.666 -38.5 63.999 -51.5s54 -19.5 86 -19.5c14.667 0 30.167 1.5 46.5 4.5s32.333 7.33301 48 13s30.5 12.834 44.5 21.501s26.333 18.667 37 30v137h-167v25h220v-173c-29.333 -30 -64.666 -51 -105.999 -63
s-82.333 -18 -123 -18c-34 0 -67.167 6 -99.5 18s-61 28.833 -86 50.5s-45.167 47.334 -60.5 77.001s-23 62.5 -23 98.5c0 38 7.33301 72.5 22 103.5s34.5 57.667 59.5 80s53.833 39.5 86.5 51.5s67.334 18 104.001 18c56 0 104.667 -11.5 146 -34.5
s72.666 -61.5 93.999 -115.5h-69z" />
    <glyph glyph-name="H" unicode="H" horiz-adv-x="547" 
d="M444 0v239h-340v-239h-54v467h54v-204h340v204h53v-467h-53z" />
    <glyph glyph-name="I" unicode="I" horiz-adv-x="154" 
d="M50 0v467h54v-467h-54z" />
    <glyph glyph-name="J" unicode="J" horiz-adv-x="347" 
d="M297 142c0 -22 -3.33301 -42.8301 -10 -62.4971s-16.334 -36.834 -29.001 -51.501s-28.167 -26.334 -46.5 -35.001s-39.166 -13 -62.499 -13c-16.667 0 -33.834 2.16699 -51.501 6.5s-33.667 10.833 -48 19.5s-26.5 19.834 -36.5 33.501s-15.667 30.167 -17 49.5h58
c1.33301 -26.667 10.333 -47.834 27 -63.501s38.334 -23.5 65.001 -23.5c18 0 33 3.83301 45 11.5s21.833 17.5 29.5 29.5s13.167 25.667 16.5 41s5 30.666 5 45.999v337h55v-325v0z" />
    <glyph glyph-name="K" unicode="K" horiz-adv-x="490" 
d="M415 0l-198 294l-113 -92v-202h-54v467h54v-228l277 228h47l-171 -140l223 -327h-65z" />
    <glyph glyph-name="L" unicode="L" horiz-adv-x="399" 
d="M50 0v467h54v-443h290v-24h-344z" />
    <glyph glyph-name="M" unicode="M" horiz-adv-x="616" 
d="M512 0v427l-217 -436h-8l-206 423v-414h-31v467h69l189 -391l195 391h63v-467h-54z" />
    <glyph glyph-name="N" unicode="N" horiz-adv-x="534" 
d="M477 -14l-396 433v-419h-31v467h60l343 -376v376h31v-481h-7z" />
    <glyph glyph-name="O" unicode="O" horiz-adv-x="595" 
d="M570 233c0 -37.333 -7.66992 -71.334 -23.0029 -102.001s-35.666 -57 -60.999 -79s-54.333 -39 -87 -51s-66.667 -18 -102 -18s-69.333 6 -102 18s-61.667 29 -87 51s-45.5 48.333 -60.5 79s-22.5 64.334 -22.5 101.001s7.66699 70.334 23 101.001s35.833 57 61.5 79
s54.834 39.167 87.501 51.5s66.334 18.5 101.001 18.5s68.5 -6 101.5 -18s62 -29 87 -51s45.167 -48.333 60.5 -79s23 -64.334 23 -101.001zM502.997 232.999c0 30.667 -4.50195 60.001 -13.502 88.001s-22.333 52.5 -40 73.5s-39.167 37.667 -64.5 50
s-54.333 18.5 -87 18.5c-33.333 0 -62.833 -6.16699 -88.5 -18.5s-47.167 -29 -64.5 -50s-30.666 -45.5 -39.999 -73.5s-14 -57.667 -14 -89s4.5 -60.833 13.5 -88.5s22.333 -52 40 -73s39.167 -37.667 64.5 -50s54.666 -18.5 87.999 -18.5
c32.667 0 61.834 6.16699 87.501 18.5s47.334 29.166 65.001 50.499s31 45.833 40 73.5s13.5 57.167 13.5 88.5z" />
    <glyph glyph-name="P" unicode="P" horiz-adv-x="495" 
d="M470 344c0 -26 -6.83301 -47.168 -20.5 -63.501s-31.334 -29.333 -53.001 -39s-46 -16.667 -73 -21s-54.167 -7 -81.5 -8s-53.166 -1.16699 -77.499 -0.5s-44.5 1 -60.5 1v-213h-54v467h151c14 0 30.5 -0.166992 49.5 -0.5s38.5 -1.66602 58.5 -3.99902s39.667 -6 59 -11
s36.5 -12.167 51.5 -21.5s27.167 -21 36.5 -35s14 -31 14 -51zM408 344.999c0 22.667 -7.83203 40.5 -23.499 53.5s-34.334 22.667 -56.001 29s-44.167 10.333 -67.5 12s-43 2.5 -59 2.5h-98v-203h96c18.667 0 40.167 0.666992 64.5 2s47 5.33301 68 12
s38.833 17.167 53.5 31.5s22 34.5 22 60.5z" />
    <glyph glyph-name="Q" unicode="Q" horiz-adv-x="595" 
d="M570 233c0 -32 -6.16895 -61.8359 -18.502 -89.5029s-28.833 -52.167 -49.5 -73.5s-44.834 -39.333 -72.501 -54s-56.5 -24.667 -86.5 -30c3.33301 -22 10.666 -40.667 21.999 -56s25 -27.666 41 -36.999s33.5 -15.5 52.5 -18.5s37.833 -2.83301 56.5 0.5l-7 -22
c-24.667 -8 -50.167 -10.167 -76.5 -6.5s-50.666 11.834 -72.999 24.501s-41.666 28.667 -57.999 48s-27.166 41 -32.499 65c-32 3.33301 -62.667 12 -92 26s-55.166 31.833 -77.499 53.5s-40.166 46.834 -53.499 75.501s-20 59.667 -20 93
c0 36.667 7.66699 70.334 23 101.001s35.666 57 60.999 79s54.333 39.167 87 51.5s66.667 18.5 102 18.5c34.667 0 68.5 -6 101.5 -18s62 -29 87 -51s45.167 -48.333 60.5 -79s23 -64.334 23 -101.001zM502.998 232.997c0 30.667 -4.50195 60.001 -13.502 88.001
s-22.333 52.5 -40 73.5s-39.167 37.667 -64.5 50s-54.333 18.5 -87 18.5c-33.333 0 -62.833 -6.16699 -88.5 -18.5s-47.167 -29 -64.5 -50s-30.666 -45.5 -39.999 -73.5s-14 -57.667 -14 -89s4.5 -60.833 13.5 -88.5s22.333 -52 40 -73s39.167 -37.667 64.5 -50
s54.666 -18.5 87.999 -18.5c32.667 0 61.834 6.16699 87.501 18.5s47.334 29.166 65.001 50.499s31 45.833 40 73.5s13.5 57.167 13.5 88.5z" />
    <glyph glyph-name="R" unicode="R" horiz-adv-x="533" 
d="M442 0c-13.333 15.333 -23.833 35 -31.5 59s-15.834 47.5 -24.501 70.5s-19.667 42.667 -33 59s-33 24.5 -59 24.5h-190v-213h-54v467h157c14.667 0 31.5 -0.166992 50.5 -0.5s38.333 -1.5 58 -3.5s39 -5.5 58 -10.5s36 -12 51 -21s27 -20.667 36 -35
s13.5 -31.833 13.5 -52.5c0 -18 -4.33301 -33.833 -13 -47.5s-19.834 -25.167 -33.501 -34.5s-28.667 -17 -45 -23s-31.833 -10.333 -46.5 -13c22.667 -0.666992 41 -5.16699 55 -13.5s25.333 -18.833 34 -31.5s15.834 -27 21.501 -43s11.167 -32.333 16.5 -49
s11.833 -32.667 19.5 -48s17.834 -29 30.501 -41h-71zM406 345c0 24 -6.83301 42.5 -20.5 55.5s-30.5 22.667 -50.5 29s-41.333 10 -64 11s-42.667 1.5 -60 1.5h-107v-203h119c19.333 0 39.833 0.666992 61.5 2s41.5 5.5 59.5 12.5s32.833 17.5 44.5 31.5s17.5 34 17.5 60z
" />
    <glyph glyph-name="S" unicode="S" horiz-adv-x="484" 
d="M459 133c0 -30 -6.83105 -54.4961 -20.498 -73.4961s-31.167 -34.167 -52.5 -45.5s-45 -19.166 -71 -23.499s-51 -6.5 -75 -6.5c-23.333 0 -47.333 2.83301 -72 8.5s-47.167 14.667 -67.5 27s-37.5 28 -51.5 47s-22 41.833 -24 68.5h66
c1.33301 -20 6.16602 -37.833 14.499 -53.5s19.333 -29 33 -40s29.167 -19.5 46.5 -25.5s35.666 -9 54.999 -9c16.667 0 34.5 1.83301 53.5 5.5s36.333 9.66699 52 18s28.667 19.5 39 33.5s15.5 31.333 15.5 52c0 24 -8.83301 42.667 -26.5 56s-40 24 -67 32
s-56 14.833 -87 20.5s-60 13.167 -87 22.5s-49.333 21.833 -67 37.5s-26.5 37.5 -26.5 65.5c0 25.333 6.66699 46.333 20 63s30.166 30 50.499 40s42.333 17 66 21s45.5 6 65.5 6c19.333 0 40.333 -1.83301 63 -5.5s44 -9.83398 64 -18.501s37.333 -20.667 52 -36
s24 -34.333 28 -57h-58c-3.33301 18 -10 33.167 -20 45.5s-22 22.166 -36 29.499s-29.167 12.5 -45.5 15.5s-32.5 4.5 -48.5 4.5c-14.667 0 -30.334 -1.33301 -47.001 -4s-32 -7.5 -46 -14.5s-25.5 -16.5 -34.5 -28.5s-13.5 -27.333 -13.5 -46
c0 -23.333 8.83301 -41.5 26.5 -54.5s39.834 -23.333 66.501 -31s55.667 -14.334 87 -20.001s60.333 -13.334 87 -23.001s48.834 -22.334 66.501 -38.001s26.5 -37.5 26.5 -65.5z" />
    <glyph glyph-name="T" unicode="T" horiz-adv-x="459" 
d="M257 442v-442h-56v442h-191v25h439v-25h-192z" />
    <glyph glyph-name="U" unicode="U" horiz-adv-x="573" 
d="M523 190c0 -36 -6.16602 -66.833 -18.499 -92.5s-29.166 -47 -50.499 -64s-46.5 -29.5 -75.5 -37.5s-59.833 -12 -92.5 -12s-63.334 4 -92.001 12s-53.667 20.5 -75 37.5s-38.166 38.5 -50.499 64.5s-18.5 56.667 -18.5 92v277h54v-288c0 -26.667 4.66699 -50.667 14 -72
s22.166 -39.5 38.499 -54.5s35.5 -26.5 57.5 -34.5s46 -12 72 -12s50.167 4 72.5 12s41.666 19.5 57.999 34.5s29.333 33.167 39 54.5s14.5 45.333 14.5 72v288h53v-277v0z" />
    <glyph glyph-name="V" unicode="V" horiz-adv-x="514" 
d="M255 -13h-10l-240 480h61l201 -402l210 402h32z" />
    <glyph glyph-name="W" unicode="W" horiz-adv-x="684" 
d="M495 -13h-9l-155 381l-133 -381h-10l-183 480h59l143 -373l133 373h13h-1l154 -380l145 380h28z" />
    <glyph glyph-name="X" unicode="X" horiz-adv-x="436" 
d="M371 -1l-158 212l-179 -212h-29l195 230l-173 238h61l145 -198l168 198h29l-183 -216l184 -252h-60z" />
    <glyph glyph-name="Y" unicode="Y" horiz-adv-x="481" 
d="M262 210v-210h-56v200l-201 267h59l183 -239l197 239h32z" />
    <glyph glyph-name="Z" unicode="Z" horiz-adv-x="429" 
d="M91 24h319l-8 -24h-392l330 442h-307l8 25h378z" />
    <glyph glyph-name="bracketleft" unicode="[" horiz-adv-x="199" 
d="M148 -132c-20.667 0 -37.667 3.67285 -51 11.0059s-24 17.333 -32 30s-13.5 27.167 -16.5 43.5s-4.5 33.166 -4.5 50.499v344c0 17.333 1.5 34.166 4.5 50.499s8.5 30.666 16.5 42.999s18.667 22.166 32 29.499s30.333 11 51 11v-11c-15.333 -2 -27 -6 -35 -12
s-13.833 -13.5 -17.5 -22.5s-5.83398 -19.333 -6.50098 -31s-1 -23.834 -1 -36.501v-387c0 -12.667 0.333008 -24.834 1 -36.501s2.83398 -22 6.50098 -31s9.5 -16.5 17.5 -22.5s19.667 -10 35 -12v-11v0z" />
    <glyph glyph-name="backslash" unicode="\" horiz-adv-x="213" 
d="M184 -15l-192 496h40l192 -496h-40z" />
    <glyph glyph-name="bracketright" unicode="]" horiz-adv-x="199" 
d="M154 3c0 -17.333 -1.5 -34.167 -4.5 -50.5s-8.33301 -30.833 -16 -43.5s-18.167 -22.667 -31.5 -30s-30.333 -11 -51 -11v11c14.667 2 26.167 6.16699 34.5 12.5s14.5 14 18.5 23s6.33301 19.333 7 31s1 23.5 1 35.5v387c0 12.667 -0.333008 24.667 -1 36
s-3 21.5 -7 30.5s-10.167 16.667 -18.5 23s-19.833 10.5 -34.5 12.5v11c20.667 0 37.667 -3.66699 51 -11s23.833 -17.333 31.5 -30s13 -27 16 -43s4.5 -32.667 4.5 -50v-344v0z" />
    <glyph glyph-name="asciicircum" unicode="^" horiz-adv-x="448" 
d="M332 183l-107 215l-108 -215h-46l133 265h42l132 -265h-46z" />
    <glyph glyph-name="underscore" unicode="_" horiz-adv-x="375" 
d="M5 -91v36h365v-36h-365z" />
    <glyph glyph-name="grave" unicode="`" horiz-adv-x="199" 
d="M128 424l-65.999 41.501c-22.667 13.667 -43 29.5 -61 47.5l-6 15l6 15c4.66699 4.66699 9.66699 7 15 7c8.66699 0 19.667 -5.66699 33 -17s26.666 -24.333 39.999 -39l37 -42.5c11.333 -13.667 19.333 -22.834 24 -27.501h-22z" />
    <glyph glyph-name="a" unicode="a" horiz-adv-x="402" 
d="M326 0c-3.33301 10.667 -6.00195 20.499 -8.00195 29.499s-3.33301 18.5 -4 28.5c-18 -26 -39.167 -43.833 -63.5 -53.5s-52.5 -14.5 -84.5 -14.5c-16.667 0 -33.667 2 -51 6s-33 10.333 -47 19s-25.5 20 -34.5 34s-13.5 30.667 -13.5 50
c0 20.667 5.16699 37.834 15.5 51.501s23.833 24.834 40.5 33.501s35.667 15.334 57 20.001s42.666 7.83398 63.999 9.50098s42 2.5 62 2.5h51v14c0 34.667 -10.167 60.667 -30.5 78s-47.5 26 -81.5 26c-11.333 0 -23.166 -1.83301 -35.499 -5.5s-23.666 -9 -33.999 -16
s-18.833 -15.667 -25.5 -26s-10 -21.833 -10 -34.5h-55c4.66699 20 12.167 36.833 22.5 50.5s22.5 24.667 36.5 33s29.667 14.333 47 18s35.333 5.5 54 5.5c31.333 0 57 -3.33301 77 -10s35.667 -15.834 47 -27.501s19.333 -25.5 24 -41.5s7.66699 -33 9 -51
c0.666992 -18.667 0.333984 -37.834 -0.999023 -57.501s-2 -39.334 -2 -59.001s1.16699 -39 3.5 -58s7.83301 -37.167 16.5 -54.5h-46zM241.998 190.999c-16 0 -33.5029 -1.16797 -52.5029 -3.50098s-36.833 -6.83301 -53.5 -13.5s-30.5 -16 -41.5 -28s-16.5 -28 -16.5 -48
c0 -14 3.16699 -26.167 9.5 -36.5s14.5 -19.166 24.5 -26.499s21.333 -12.833 34 -16.5s25.334 -5.5 38.001 -5.5c20.667 0 38.834 4 54.501 12s28.834 18.667 39.501 32s18.667 28.833 24 46.5s8 36.167 8 55.5v32h-68z" />
    <glyph glyph-name="b" unicode="b" horiz-adv-x="436" 
d="M416 175c0 -25.333 -4.50098 -49.167 -13.501 -71.5s-21.5 -42 -37.5 -59s-35 -30.5 -57 -40.5s-46 -15 -72 -15c-30 0 -57.833 6 -83.5 18s-46.167 30.667 -61.5 56v-63h-46v484h46v-207c13.333 28.667 32.833 49.667 58.5 63s54.5 20 86.5 20
c27.333 0 52 -4.66699 74 -14s40.833 -22.333 56.5 -39s27.834 -36.167 36.501 -58.5s13 -46.833 13 -73.5zM360.999 172.999c0 20 -3.00098 39.666 -9.00098 58.999s-14.667 36.833 -26 52.5s-25.666 28.167 -42.999 37.5s-37 14 -59 14c-20.667 0 -39.167 -5 -55.5 -15
s-30.333 -22.833 -42 -38.5s-20.5 -33.167 -26.5 -52.5s-9 -38.333 -9 -57c0 -19.333 3 -38.333 9 -57s14.833 -35.667 26.5 -51s25.667 -27.666 42 -36.999s34.833 -14 55.5 -14c22 0 41.5 4.5 58.5 13.5s31.333 21 43 36s20.5 32 26.5 51s9 38.5 9 58.5z" />
    <glyph glyph-name="c" unicode="c" horiz-adv-x="411" 
d="M333 252c-9.33301 26.667 -24.334 46.998 -45.001 60.998s-45 21 -73 21c-21.333 0 -40.5 -4.5 -57.5 -13.5s-31.333 -20.833 -43 -35.5s-20.667 -31.334 -27 -50.001s-9.5 -37.667 -9.5 -57c0 -20.667 2.83301 -40.667 8.5 -60s14.334 -36.666 26.001 -51.999
s26 -27.666 43 -36.999s36.833 -14 59.5 -14c28 0 52.5 6.83301 73.5 20.5s36.167 33.834 45.5 60.501h57c-5.33301 -19.333 -14 -35.833 -26 -49.5s-25.833 -24.667 -41.5 -33s-32.667 -14.5 -51 -18.5s-36.166 -6 -53.499 -6c-26.667 0 -52 4.5 -76 13.5
s-45.167 21.667 -63.5 38s-32.833 35.833 -43.5 58.5s-16 47.667 -16 75s5.33301 52.333 16 75s25.167 42.167 43.5 58.5s39.5 29 63.5 38s49.333 13.5 76 13.5c17.333 0 35.166 -2 53.499 -6s35.333 -10.167 51 -18.5s29.5 -19.333 41.5 -33s20.667 -30.167 26 -49.5h-58z
" />
    <glyph glyph-name="d" unicode="d" horiz-adv-x="436" 
d="M345 0l-0.000976562 63.001c-15.333 -25.333 -35.833 -44 -61.5 -56s-53.5 -18 -83.5 -18c-26 0 -50 5 -72 15s-41 23.5 -57 40.5s-28.5 36.667 -37.5 59s-13.5 46.166 -13.5 71.499c0 26.667 4.33301 51.167 13 73.5s20.834 41.833 36.501 58.5s34.5 29.667 56.5 39
s46.667 14 74 14c32 0 60.833 -6.66699 86.5 -20s45.167 -34.333 58.5 -63v207h46v-484h-46zM344.999 173.001c0 18.667 -3 37.833 -9 57.5s-14.667 37.167 -26 52.5s-25.333 28 -42 38s-35.334 15 -56.001 15c-22 0 -41.5 -4.66699 -58.5 -14s-31.333 -21.833 -43 -37.5
s-20.334 -33.167 -26.001 -52.5s-8.5 -39 -8.5 -59s3 -39.5 9 -58.5s14.833 -36 26.5 -51s25.834 -27 42.501 -36s36 -13.5 58 -13.5c20.667 0 39.334 4.66699 56.001 14s30.667 21.5 42 36.5s20 32 26 51s9 38.167 9 57.5z" />
    <glyph glyph-name="e" unicode="e" horiz-adv-x="429" 
d="M88 217c-2.66699 -7.33301 -3.8291 -14.999 -3.49609 -22.999s0.5 -15.667 0.5 -23c0 -21.333 3.16699 -41.5 9.5 -60.5s15.666 -35.667 27.999 -50s27.5 -25.666 45.5 -33.999s38.333 -12.5 61 -12.5c14.667 0 29.167 2.83301 43.5 8.5s27.166 13.5 38.499 23.5
s20.666 21.667 27.999 35s11.666 27.666 12.999 42.999h49c-1.33301 -22 -7.5 -41.5 -18.5 -58.5s-24.667 -31.167 -41 -42.5s-34.333 -19.833 -54 -25.5s-39.5 -8.5 -59.5 -8.5c-26 0 -51.167 4.33301 -75.5 13s-46 20.834 -65 36.501s-34.167 34.667 -45.5 57
s-17 47.166 -17 74.499c0 28 5 53.5 15 76.5s23.667 42.833 41 59.5s37.833 29.667 61.5 39s49.5 14 77.5 14c22 0 43.5 -2.83301 64.5 -8.5s40 -14.334 57 -26.001s31.167 -26.5 42.5 -44.5s18 -39 20 -63h-316zM344.005 242.001
c-9.33301 28 -25.499 50.499 -48.499 67.499s-49.5 25.5 -79.5 25.5c-28.667 0 -53.834 -8.66699 -75.501 -26s-36.167 -39.666 -43.5 -66.999h247z" />
    <glyph glyph-name="f" unicode="f" horiz-adv-x="208" 
d="M223 436c-14 6 -26.667 9.00098 -38 9.00098c-18 0 -33.333 -5.33301 -46 -16s-19 -25.334 -19 -44.001v-54h67l-11 -26h-56v-305h-47v305h-58l11 26h47c0 20 2.83301 39.5 8.5 58.5s14.167 35.667 25.5 50s25.333 25.5 42 33.5s36.667 11.667 60 11l14 -1v-47v0z" />
    <glyph glyph-name="g" unicode="g" horiz-adv-x="430" 
d="M405 -21c0 -24 -7.83105 -43.3311 -23.498 -57.998s-34.5 -26 -56.5 -34s-45 -13.333 -69 -16s-44.667 -4 -62 -4c-14 0 -31.5 1.5 -52.5 4.5s-41.333 8.16699 -61 15.5s-36.5 17.166 -50.5 29.499s-21 28.166 -21 47.499c0 12.667 3.66699 23.334 11 32.001
s16.333 16 27 22s22.167 10.833 34.5 14.5s23.5 6.5 33.5 8.5c-10 3.33301 -19.333 8.16602 -28 14.499s-13 15.166 -13 26.499c0 12.667 6.33301 22.334 19 29.001s25 10.667 37 12c-11.333 4 -22.666 9.83301 -33.999 17.5s-21.5 16.5 -30.5 26.5s-16.333 20.833 -22 32.5
s-8.5 23.5 -8.5 35.5c0 20.667 5.66699 38.667 17 54s25.5 28 42.5 38s35.333 17.5 55 22.5s38.167 7.5 55.5 7.5c10.667 0 21.167 -0.666992 31.5 -2s20.5 -3.66602 30.5 -6.99902c15.333 21.333 32.5 36.333 51.5 45s41.167 12.667 66.5 12h12v-53
c-8.66699 2.66699 -16.834 4.83398 -24.501 6.50098s-15.167 2.5 -22.5 2.5c-10 0 -20.333 -1.66699 -31 -5s-20 -8.33301 -28 -15c10.667 -4.66699 21 -10.5 31 -17.5s19 -14.833 27 -23.5s14.333 -18.5 19 -29.5s7 -22.833 7 -35.5c0 -26 -6.16699 -46.833 -18.5 -62.5
s-27.833 -27.667 -46.5 -36s-39 -14 -61 -17s-42.667 -4.83301 -62 -5.5c-2.66699 0 -6.33398 -0.166992 -11.001 -0.5s-9.5 -0.833008 -14.5 -1.5s-9.66699 -1.33398 -14 -2.00098s-7.5 -1.33398 -9.5 -2.00098c-6 -2 -9 -6 -9 -12c0 -8.66699 14 -15 42 -19
c12.667 -2 27.167 -3.5 43.5 -4.5s33.166 -2.5 50.499 -4.5s34.333 -4.83301 51 -8.5s31.667 -8.66699 45 -15s24 -14.833 32 -25.5s12 -24 12 -40zM320.002 234.002c0 35.333 -10.667 60.5 -32 75.5s-48.666 22.5 -81.999 22.5c-32.667 0 -60 -7.5 -82 -22.5
s-33 -40.167 -33 -75.5c0 -17.333 2.83301 -32.166 8.5 -44.499s13.667 -22.333 24 -30s22.5 -13.334 36.5 -17.001s29.333 -5.5 46 -5.5c33.333 0 60.666 7.5 81.999 22.5s32 39.833 32 74.5zM357.002 -39.998c0 16 -5.33496 28.835 -16.002 38.502
s-23.667 16.834 -39 21.501s-31.333 7.66699 -48 9s-31.334 2 -44.001 2c-13.333 0 -28.5 -0.5 -45.5 -1.5s-33.167 -3.66699 -48.5 -8s-28.166 -11.333 -38.499 -21s-15.5 -23.167 -15.5 -40.5c0 -15.333 5.5 -27.5 16.5 -36.5s24.333 -16.167 40 -21.5
s32 -8.83301 49 -10.5s31.167 -2.5 42.5 -2.5c10.667 0 24.334 1.16699 41.001 3.5s32.834 6.16602 48.501 11.499s29.167 12.666 40.5 21.999s17 20.666 17 33.999z" />
    <glyph glyph-name="h" unicode="h" horiz-adv-x="419" 
d="M326 0v242.002c0 16 -3.16699 29.667 -9.5 41s-14.666 20.833 -24.999 28.5s-22.166 13.334 -35.499 17.001s-27.333 5.5 -42 5.5c-18.667 0 -35.667 -3.83301 -51 -11.5s-28.333 -17.834 -39 -30.501s-18.834 -27.334 -24.501 -44.001s-8.5 -33.667 -8.5 -51v-197h-46
v458h46v-174c6 10.667 13.333 20.667 22 30s18.5 17.333 29.5 24s22.5 11.834 34.5 15.501s24.333 5.5 37 5.5c19.333 0 38.666 -2.16699 57.999 -6.5s36.5 -11.333 51.5 -21s27.167 -22.334 36.5 -38.001s14 -34.834 14 -57.501v-236h-48z" />
    <glyph glyph-name="i" unicode="i" horiz-adv-x="178" 
d="M123 428c0 -9.33301 -3.33301 -17.333 -10 -24s-14.667 -10 -24 -10s-17.333 3.33301 -24 10s-10 14.667 -10 24s3.33301 17.166 10 23.499s14.667 9.5 24 9.5s17.333 -3.16699 24 -9.5s10 -14.166 10 -23.499zM65 0v349h46v-349h-46z" />
    <glyph glyph-name="j" unicode="j" horiz-adv-x="188" 
d="M138 426c0 -9.33301 -3.5 -17.5 -10.5 -24.5s-15.167 -10.5 -24.5 -10.5c-10 0 -18.5 3.5 -25.5 10.5s-10.5 15.167 -10.5 24.5s3.5 17.5 10.5 24.5s15.5 10.5 25.5 10.5c9.33301 0 17.5 -3.5 24.5 -10.5s10.5 -15.167 10.5 -24.5zM127 43
c0 -18 -1.66699 -36.834 -5 -56.501s-9.5 -37.667 -18.5 -54s-21.167 -29.666 -36.5 -39.999s-35 -15.5 -59 -15.5c-9.33301 0 -20 1.33301 -32 4s-22.667 7.33398 -32 14.001l21 36c6.66699 -8.66699 13.5 -14.5 20.5 -17.5s14.833 -4.5 23.5 -4.5c15.333 0 27.5 4 36.5 12
s15.833 18.167 20.5 30.5s7.66699 25.666 9 39.999s2 27.833 2 40.5v317h50v-306z" />
    <glyph glyph-name="k" unicode="k" horiz-adv-x="392" 
d="M329 0l-155 217l-73 -58v-159h-46v484h46v-293l195 158h43l-130 -104l173 -245h-53z" />
    <glyph glyph-name="l" unicode="l" horiz-adv-x="156" 
d="M55 0v484h46v-484h-46z" />
    <glyph glyph-name="m" unicode="m" horiz-adv-x="658" 
d="M565 0l0.00195312 234.998c0 30 -9.83301 53.833 -29.5 71.5s-44.5 26.5 -74.5 26.5c-22 0 -39.833 -4.66699 -53.5 -14s-24.334 -21.333 -32.001 -36s-12.667 -31.334 -15 -50.001s-3.5 -37 -3.5 -55v-178h-48v192c0 16.667 -1.5 33.334 -4.5 50.001
s-8.16699 31.667 -15.5 45s-17.5 24.333 -30.5 33s-29.5 13 -49.5 13c-19.333 0 -35.833 -3.66699 -49.5 -11s-25 -17.166 -34 -29.499s-16.167 -26.666 -21.5 -42.999s-9.33301 -33.833 -12 -52.5s-4.33398 -37.5 -5.00098 -56.5s-0.666992 -37.167 0 -54.5
s1.5 -33.333 2.5 -48s1.5 -27.334 1.5 -38.001h-46v348h46v-65c13.333 25.333 31 44.166 53 56.499s47.667 18.5 77 18.5c31.333 0 57.5 -7.66699 78.5 -23s36.167 -37 45.5 -65c10 28 24.5 49.667 43.5 65s44.5 23 76.5 23c20.667 0 40 -2.66699 58 -8
s33.667 -13.166 47 -23.499s23.833 -23.666 31.5 -39.999s11.5 -35.5 11.5 -57.5v-229h-48z" />
    <glyph glyph-name="n" unicode="n" horiz-adv-x="419" 
d="M326 0v241.002c0 16 -3.16699 29.667 -9.5 41s-14.666 20.833 -24.999 28.5s-22.166 13.334 -35.499 17.001s-27.333 5.5 -42 5.5c-18.667 0 -35.667 -3.83301 -51 -11.5s-28.333 -17.834 -39 -30.501s-18.834 -27.167 -24.501 -43.5s-8.5 -33.5 -8.5 -51.5v-196h-46v348
h46v-65c11.333 22 28.333 40 51 54s46.667 21 72 21c19.333 0 38.666 -2.16699 57.999 -6.5s36.5 -11.333 51.5 -21s27.167 -22.334 36.5 -38.001s14 -34.834 14 -57.501v-235h-48z" />
    <glyph glyph-name="o" unicode="o" horiz-adv-x="445" 
d="M420 173c0 -28 -5.16699 -53.332 -15.5 -75.999s-24.5 -41.834 -42.5 -57.501s-39 -27.834 -63 -36.501s-49.667 -13 -77 -13s-53 4.33301 -77 13s-44.833 20.834 -62.5 36.501s-31.667 34.834 -42 57.501s-15.5 48 -15.5 76s5.16699 53.333 15.5 76s24.5 42 42.5 58
s39 28.333 63 37s49.667 13 77 13c28 0 54 -4.16699 78 -12.5s44.833 -20.5 62.5 -36.5s31.5 -35.333 41.5 -58s15 -48.334 15 -77.001zM364 173.001c0 22.667 -2.66699 43.832 -8 63.499s-13.833 36.5 -25.5 50.5s-26.334 25 -44.001 33s-38.834 12 -63.501 12
c-25.333 0 -46.833 -4 -64.5 -12s-32.167 -19 -43.5 -33s-19.666 -30.667 -24.999 -50s-8 -40.333 -8 -63s2.66699 -43.667 8 -63s13.833 -36.166 25.5 -50.499s26.334 -25.5 44.001 -33.5s39.167 -12 64.5 -12c24.667 0 45.834 4 63.501 12s32.167 19 43.5 33
s19.666 30.667 24.999 50s8 40.333 8 63z" />
    <glyph glyph-name="p" unicode="p" horiz-adv-x="436" 
d="M416 172c0 -26.667 -4.33203 -51.335 -12.999 -74.002s-20.834 -42.167 -36.501 -58.5s-34.5 -29.166 -56.5 -38.499s-46.667 -14 -74 -14c-32 0 -60.833 6.66699 -86.5 20s-45.167 34.333 -58.5 63v-199h-46v476h37l8 -65c15.333 26 36 45 62 57s54 18 84 18
c26 0 50 -4.83301 72 -14.5s41 -23 57 -40s28.5 -36.667 37.5 -59s13.5 -46.166 13.5 -71.499zM361.001 173.999c0 20 -2.99805 39.3311 -8.99805 57.998s-14.833 35.5 -26.5 50.5s-26 27 -43 36s-36.5 13.5 -58.5 13.5c-20.667 0 -39.167 -4.66699 -55.5 -14
s-30.333 -21.5 -42 -36.5s-20.5 -32 -26.5 -51s-9 -37.833 -9 -56.5c0 -19.333 3 -38.666 9 -57.999s14.667 -36.666 26 -51.999s25.166 -28 41.499 -38s35.166 -15 56.499 -15c22 0 41.5 4.66699 58.5 14s31.333 21.833 43 37.5s20.5 33.167 26.5 52.5s9 39 9 59z" />
    <glyph glyph-name="q" unicode="q" horiz-adv-x="436" 
d="M345 -129l0.000976562 199.001c-13.333 -28.667 -32.833 -49.667 -58.5 -63s-54.5 -20 -86.5 -20c-27.333 0 -52 4.66699 -74 14s-40.833 22.166 -56.5 38.499s-27.834 35.833 -36.501 58.5s-13 47.334 -13 74.001c0 25.333 4.5 49.166 13.5 71.499s21.5 42 37.5 59
s35 30.333 57 40s46 14.5 72 14.5c30 0 58 -6 84 -18s46.667 -31 62 -57l8 65h37v-476h-46zM345.001 174.001c0 19.333 -2.99609 38.333 -8.99609 57s-14.667 35.5 -26 50.5s-25.333 27.167 -42 36.5s-35.334 14 -56.001 14c-22 0 -41.333 -4.5 -58 -13.5
s-30.834 -21 -42.501 -36s-20.5 -31.833 -26.5 -50.5s-9 -38 -9 -58s3 -39.667 9 -59s14.667 -36.833 26 -52.5s25.5 -28.167 42.5 -37.5s36.5 -14 58.5 -14c21.333 0 40.166 4.83301 56.499 14.5s30.166 22.334 41.499 38.001s20 33.167 26 52.5s9 38.666 9 57.999z" />
    <glyph glyph-name="r" unicode="r" horiz-adv-x="239" 
d="M222 308c-11.333 4 -21.001 6.00098 -29.001 6.00098c-19.333 0 -35.5 -3.83301 -48.5 -11.5s-23.5 -17.834 -31.5 -30.501s-13.667 -27 -17 -43s-5 -32.333 -5 -49v-180h-46v348h46v-77c4 12 10.333 23.333 19 34s18.667 20 30 28s23.333 14 36 18
s25.334 5.66699 38.001 5l15 -1z" />
    <glyph glyph-name="s" unicode="s" horiz-adv-x="386" 
d="M361 100c0 -22.667 -5.33301 -41.1699 -16 -55.5029s-24.334 -25.666 -41.001 -33.999s-34.834 -14.166 -54.501 -17.499s-38.5 -5 -56.5 -5c-17.333 0 -35 2.16699 -53 6.5s-35 11 -51 20s-29.667 20.5 -41 34.5s-19 30.667 -23 50h49c2 -14 7 -26.333 15 -37
s17.5 -19.667 28.5 -27s23 -12.833 36 -16.5s26.167 -5.5 39.5 -5.5c12.667 0 26 1 40 3s26.833 5.66699 38.5 11s21.334 12.833 29.001 22.5s11.5 22.167 11.5 37.5c0 13.333 -3.66699 24 -11 32s-17.333 14.667 -30 20c-6 2.66699 -12.667 4.83398 -20 6.50098
s-14.666 3.16699 -21.999 4.5c-8 1.33301 -16.167 2.83301 -24.5 4.5s-16.5 3.16699 -24.5 4.5c-16.667 2.66699 -33.167 6 -49.5 10s-30.833 9.66699 -43.5 17s-23 16.833 -31 28.5s-12 26.834 -12 45.501s5.16699 34.334 15.5 47.001s23 22.667 38 30s31.333 12.5 49 15.5
s34.167 4.5 49.5 4.5c17.333 0 34.833 -2 52.5 -6s34 -10.5 49 -19.5s28 -20.333 39 -34s18.167 -30.5 21.5 -50.5h-49c-5.33301 28 -19 49.167 -41 63.5s-46.333 21.5 -73 21.5c-10.667 0 -22 -0.833008 -34 -2.5s-23.167 -4.66699 -33.5 -9s-18.833 -10.666 -25.5 -18.999
s-10 -18.833 -10 -31.5c0 -14.667 3.66699 -26.334 11 -35.001s17.333 -15.667 30 -21c13.333 -6 28.333 -10.5 45 -13.5l47 -8.5l49 -10c16 -3.33301 30.5 -8.33301 43.5 -15s23.5 -15.334 31.5 -26.001s12 -24.334 12 -41.001z" />
    <glyph glyph-name="t" unicode="t" horiz-adv-x="219" 
d="M217 6c-18 -8 -36.335 -12 -55.002 -12c-17.333 0 -31.666 3 -42.999 9s-20.5 14.167 -27.5 24.5s-11.833 22.166 -14.5 35.499s-4 27.333 -4 42v200h-53v24h48l38 99h13v-99h68v-24h-68v-215c0 -8.66699 0.5 -17 1.5 -25s3.33301 -15.167 7 -21.5
s8.66699 -11.5 15 -15.5s14.5 -6 24.5 -6c8.66699 0 16.834 1.33301 24.501 4s16.167 6.33398 25.5 11.001v-31v0z" />
    <glyph glyph-name="u" unicode="u" horiz-adv-x="419" 
d="M328 0l-0.000976562 65c-11.333 -21.333 -28.666 -39.333 -51.999 -54s-47 -22 -71 -22c-19.333 0 -38.666 2.16699 -57.999 6.5s-36.5 11.333 -51.5 21s-27.167 22.334 -36.5 38.001s-14 34.834 -14 57.501v236h48v-242c0 -15.333 3.16699 -28.833 9.5 -40.5
s14.666 -21.334 24.999 -29.001s22.166 -13.334 35.499 -17.001s27.333 -5.5 42 -5.5c18.667 0 35.667 3.83301 51 11.5s28.333 18 39 31s18.834 27.833 24.501 44.5s8.5 33.667 8.5 51v196h46v-348h-46z" />
    <glyph glyph-name="v" unicode="v" horiz-adv-x="378" 
d="M194 -11h-7l-184 359h52l148 -286l145 286h27z" />
    <glyph glyph-name="w" unicode="w" horiz-adv-x="586" 
d="M420 -11h-7l-120 279l-118 -279h-7l-165 359h50l130 -287l116 291h7l124 -289l126 285h27z" />
    <glyph glyph-name="x" unicode="x" horiz-adv-x="355" 
d="M298 0l-133 156l-132 -156h-30l147 174l-147 174h54l120 -143l121 143h30l-136 -160l160 -188h-54z" />
    <glyph glyph-name="y" unicode="y" horiz-adv-x="381" 
d="M69 -132c-9.33301 0 -19.6699 1.33301 -31.0029 4s-21.666 7.33398 -30.999 14.001l21 36c6.66699 -8.66699 13.5 -14.5 20.5 -17.5s14.833 -4.5 23.5 -4.5c11.333 0 22.833 3.33301 34.5 10s22.334 15.167 32.001 25.5s17.5 21.666 23.5 33.999s9 23.833 9 34.5
c0 7.33301 -1.16699 14.333 -3.5 21s-5.16602 13.667 -8.49902 21l-156 302h52l150 -289l145 289h28l-180 -358c-8 -15.333 -16.5 -30.333 -25.5 -45s-19 -27.667 -30 -39s-22.5 -20.5 -34.5 -27.5s-25 -10.5 -39 -10.5z" />
    <glyph glyph-name="z" unicode="z" horiz-adv-x="355" 
d="M85 26h249l-11 -26h-313l261 323h-229l8 25h295z" />
    <glyph glyph-name="braceleft" unicode="{" horiz-adv-x="253" 
d="M205 -136c-36 0 -61.499 6.66602 -76.499 19.999s-24.667 30.333 -29 51s-5.16602 43.334 -2.49902 68.001s4.16699 48.5 4.5 71.5s-2.83398 43.333 -9.50098 61s-21.334 30.167 -44.001 37.5c16.667 5.33301 28.834 13.833 36.501 25.5s12.667 25.167 15 40.5
s2.83301 32.166 1.5 50.499l-4 54.5c-1.33301 18 -1.33301 35.333 0 52s5.5 31.5 12.5 44.5s18 23.333 33 31s35.833 11.5 62.5 11.5v-13c-20.667 0 -34.667 -6.5 -42 -19.5s-11.5 -29.5 -12.5 -49.5s-0.5 -42 1.5 -66s2 -47 0 -69s-7.5 -41.5 -16.5 -58.5
s-25.167 -28.167 -48.5 -33.5c22.667 -5.33301 38.667 -16.5 48 -33.5s14.833 -36.5 16.5 -58.5s1.5 -45.167 -0.5 -69.5s-2.33301 -46.666 -1 -66.999s5.66602 -37 12.999 -50s21.333 -19.5 42 -19.5v-12v0z" />
    <glyph glyph-name="bar" unicode="|" horiz-adv-x="172" 
d="M65 -182v729h42v-729h-42z" />
    <glyph glyph-name="braceright" unicode="}" horiz-adv-x="253" 
d="M205 173c-22.667 -7.33301 -37.5 -20.001 -44.5 -38.001s-10.333 -38.5 -10 -61.5s1.83301 -46.833 4.5 -71.5s2 -47.167 -2 -67.5s-13.667 -37.166 -29 -50.499s-40.666 -20 -75.999 -20v12c20 0 33.667 6.5 41 19.5s11.5 29.667 12.5 50s0.666992 42.5 -1 66.5
s-1.66699 47 0 69s7 41.5 16 58.5s25.167 28.5 48.5 34.5c-23.333 5.33301 -39.5 16.5 -48.5 33.5s-14.333 36.5 -16 58.5s-1.66699 45 0 69s2 46 1 66s-5.16699 36.5 -12.5 49.5s-21 19.5 -41 19.5v13c35.333 0 60.666 -6.66699 75.999 -20s25 -30.333 29 -51
s4.66699 -43.5 2 -68.5s-4.16699 -48.833 -4.5 -71.5s3 -43.167 10 -61.5s21.833 -30.833 44.5 -37.5z" />
    <glyph glyph-name="asciitilde" unicode="~" horiz-adv-x="448" 
d="M393 207c-12 -16.667 -24.834 -31.168 -38.501 -43.501s-31.5 -18.5 -53.5 -18.5c-14 0 -27.333 2.5 -40 7.5s-25 10.667 -37 17s-24.5 12 -37.5 17s-27.167 7.5 -42.5 7.5c-17.333 0 -30.166 -5.5 -38.499 -16.5s-16.5 -22.833 -24.5 -35.5l-26 31l18.5 24.5
c5.66699 7.66699 12 14.334 19 20.001s15 10 24 13s19.5 4.5 31.5 4.5c13.333 0 26.833 -2.66699 40.5 -8s27.167 -11 40.5 -17l38.5 -17c12.333 -5.33301 23.833 -8 34.5 -8c15.333 0 28 5.83301 38 17.5s18.667 23.167 26 34.5l27 -30v0z" />
    <glyph glyph-name="nonbreakingspace" unicode="&#xa0;" horiz-adv-x="220" 
 />
    <glyph glyph-name="exclamdown" unicode="&#xa1;" horiz-adv-x="187" 
d="M89 300l8.99805 -0.000976562l31 -320c0.666992 -9.33301 0.833984 -18.666 0.500977 -27.999s-1.83301 -17.833 -4.5 -25.5s-6.5 -14 -11.5 -19s-11.833 -7.5 -20.5 -7.5s-15.334 2.33301 -20.001 7s-8.16699 10.667 -10.5 18s-3.66602 15.833 -3.99902 25.5
s-0.166016 19.5 0.500977 29.5zM58.998 358.999c0 9.33301 3.16699 17.166 9.5 23.499s14.166 9.5 23.499 9.5s17.333 -3.16699 24 -9.5s10 -14.166 10 -23.499s-3.33301 -17.333 -10 -24s-14.667 -10 -24 -10s-17.166 3.33301 -23.499 10s-9.5 14.667 -9.5 24z" />
    <glyph glyph-name="cent" unicode="&#xa2;" horiz-adv-x="392" 
d="M234 -12l-25.0029 0.00195312v74c-22 1.33301 -42.833 6.33301 -62.5 15s-36.667 20 -51 34s-25.833 30.5 -34.5 49.5s-13 39.833 -13 62.5s4.33301 43.5 13 62.5s20.167 35.5 34.5 49.5s31.333 25.333 51 34s40.5 13.667 62.5 15v77h25v-77
c32.667 -2 61.834 -10.5 87.501 -25.5s42.5 -37.167 50.5 -66.5h-49c-10 24.667 -24.5 43 -43.5 55s-39.167 18 -60.5 18c-17.333 0 -33.166 -3.66699 -47.499 -11s-26.833 -17.333 -37.5 -30s-19 -27.334 -25 -44.001s-9 -34.334 -9 -53.001c0 -21.333 3 -40.833 9 -58.5
s14.333 -32.834 25 -45.501s23.334 -22.5 38.001 -29.5s30.334 -10.5 47.001 -10.5c22 0 42.5 5.83301 61.5 17.5s33.167 29.834 42.5 54.501h49c-8 -30 -24.833 -52.5 -50.5 -67.5s-54.834 -23.5 -87.501 -25.5v-74z" />
    <glyph glyph-name="sterling" unicode="&#xa3;" horiz-adv-x="467" 
d="M172 97c-9.33301 4 -19.334 6.83301 -30.001 8.5s-22 2.5 -34 2.5c-19.333 0 -36 -5 -50 -15s-21 -24 -21 -42c0 -12.667 5 -21.5 15 -26.5s22.333 -7.5 37 -7.5c18.667 0 35.834 7.66699 51.501 23s26.167 34.333 31.5 57zM154.999 249
c-3.33301 10 -6.00195 20.332 -8.00195 30.999s-3 22.667 -3 36c0 42 11.5 75.167 34.5 99.5s54.5 36.5 94.5 36.5c30.667 0 57.834 -5.5 81.501 -16.5s42.834 -30.5 57.501 -58.5l-52 -20c-2.66699 25.333 -14.5 44.333 -35.5 57s-43.833 19 -68.5 19
c-20 0 -37.5 -7.16699 -52.5 -21.5s-22.5 -30.5 -22.5 -48.5c0 -23.333 3.83301 -43.833 11.5 -61.5l22.5 -52.5h123l-10 -22h-104c2.66699 -9.33301 4.83398 -18.833 6.50098 -28.5s2.5 -20.167 2.5 -31.5c0 -20 -5 -40 -15 -60c16 -6 30.667 -12.833 44 -20.5l37.5 -21
c11.667 -6.33301 23 -11.666 34 -15.999s22.167 -6.5 33.5 -6.5c24 0 43 7 57 21s25.333 30.667 34 50l11 -4c-4 -15.333 -9.66699 -30.333 -17 -45s-16.333 -27.667 -27 -39s-23 -20.5 -37 -27.5s-29.667 -10.5 -47 -10.5c-14 0 -26.5 3 -37.5 9s-21.833 13.667 -32.5 23
s-21.5 19.333 -32.5 30s-22.833 20.667 -35.5 30c-17.333 -24.667 -38.833 -45.834 -64.5 -63.501s-51.834 -26.5 -78.501 -26.5c-8 0 -16.167 1.33301 -24.5 4s-15.833 6.5 -22.5 11.5s-12 10.667 -16 17s-6 13.5 -6 21.5c0 12.667 3.5 24.167 10.5 34.5s16 18.833 27 25.5
s23.5 11.834 37.5 15.501s28 5.5 42 5.5c12.667 0 24.667 -0.666992 36 -2s22 -3 32 -5c0.666992 4 1 8 1 12v12c0 17.333 -1.66699 32.833 -5 46.5s-7 26.5 -11 38.5h-69l10 22h53z" />
    <glyph glyph-name="currency" unicode="&#xa4;" horiz-adv-x="467" 
d="M232 369c-20 0 -38.833 -3.83301 -56.5 -11.5s-33 -18.167 -46 -31.5s-23.333 -28.666 -31 -45.999s-11.5 -36 -11.5 -56s3.83301 -38.833 11.5 -56.5s18 -33 31 -46s28.333 -23.333 46 -31s36.5 -11.5 56.5 -11.5s38.833 3.83301 56.5 11.5s33 18 46 31
s23.333 28.333 31 46s11.5 36.5 11.5 56.5s-3.83301 38.667 -11.5 56s-18 32.666 -31 45.999s-28.333 23.833 -46 31.5s-36.5 11.5 -56.5 11.5zM346 86c-15.333 -13.333 -32.665 -23.499 -51.998 -30.499s-40 -10.5 -62 -10.5c-21.333 0 -41.5 3.5 -60.5 10.5
s-36.167 16.5 -51.5 28.5l-39 -39l-26 26l39 39c-12.667 15.333 -22.5 32.666 -29.5 51.999s-10.5 40 -10.5 62c0 21.333 3.5 41.833 10.5 61.5s17.167 37.167 30.5 52.5l-40 39l26 26l40 -39c15.333 12 32.333 21.333 51 28s38.667 10 60 10s41.666 -3.5 60.999 -10.5
s36.666 -16.833 51.999 -29.5l41 41l26 -26l-41 -41c12.667 -15.333 22.5 -32.5 29.5 -51.5s10.5 -39.167 10.5 -60.5s-3.5 -41.5 -10.5 -60.5s-16.5 -36.167 -28.5 -51.5l41 -41l-26 -26z" />
    <glyph glyph-name="yen" unicode="&#xa5;" horiz-adv-x="458" 
d="M252 216h109v-19h-111v-60h111v-19h-111v-117h-53v117h-109v19h109v60h-109v19h97l-180 239h58l171 -227l188 227h31z" />
    <glyph glyph-name="brokenbar" unicode="&#xa6;" horiz-adv-x="161" 
d="M62 492h37v-251h-37v251zM62 124h37v-252h-37v252z" />
    <glyph glyph-name="section" unicode="&#xa7;" horiz-adv-x="400" 
d="M117 295c-11.333 8.66699 -20.166 19.3311 -26.499 31.998s-9.5 28.667 -9.5 48c0 18.667 3.83301 34.834 11.5 48.501s17.834 24.834 30.501 33.501s26.834 15 42.501 19s31.5 6 47.5 6c28.667 0 55.667 -6.5 81 -19.5s43.666 -37.833 54.999 -74.5h-47
c-6.66699 28 -17.834 47.5 -33.501 58.5s-34.167 16.5 -55.5 16.5c-25.333 0 -45.833 -5.83301 -61.5 -17.5s-23.5 -30.834 -23.5 -57.501c0 -19.333 5.66699 -34.666 17 -45.999s25.333 -20.666 42 -27.999s35 -13.833 55 -19.5s38.333 -12.667 55 -21
s30.667 -19.333 42 -33s17 -31.834 17 -54.501s-4.83301 -41 -14.5 -55s-21.167 -24.667 -34.5 -32c15.333 -8 27.666 -19.333 36.999 -34s14 -32 14 -52c0 -20.667 -4.83301 -39 -14.5 -55s-22.5 -29.333 -38.5 -40s-34.333 -18.667 -55 -24s-42 -8 -64 -8
c-18 0 -36.167 2.66699 -54.5 8s-35 13.333 -50 24s-27.5 23.5 -37.5 38.5s-16 32.5 -18 52.5h54c0.666992 -17.333 4 -32.166 10 -44.499s13.833 -22.833 23.5 -31.5s20.834 -15 33.501 -19s25.667 -6 39 -6c16 0 31.167 1.5 45.5 4.5s26.666 8 36.999 15
s18.666 16.167 24.999 27.5s9.5 25.666 9.5 42.999c0 19.333 -6.33301 34.166 -19 44.499s-28.667 18.666 -48 24.999s-40 11.833 -62 16.5s-42.667 11 -62 19s-35.333 19.333 -48 34s-19 35 -19 61c0 24.667 6.83301 44.834 20.5 60.501s30.834 27.834 51.501 36.501z
M308 171.997c0 20 -5.99707 35.167 -17.9971 45.5s-26.833 18.833 -44.5 25.5s-36.834 12.667 -57.501 18s-39.334 12.666 -56.001 21.999c-12 -7.33301 -20.5 -17 -25.5 -29s-7.5 -26.667 -7.5 -44c0 -19.333 6 -34.166 18 -44.499s27.167 -18.5 45.5 -24.5
s38.333 -11 60 -15s42.167 -9.66699 61.5 -17c9.33301 6 15.666 14 18.999 24s5 23 5 39z" />
    <glyph glyph-name="dieresis" unicode="&#xa8;" horiz-adv-x="256" 
d="M29 475c0 10 3.66699 18.667 11 26s16 11 26 11s18.5 -3.66699 25.5 -11s10.5 -16 10.5 -26s-3.5 -18.5 -10.5 -25.5s-15.5 -10.5 -25.5 -10.5s-18.667 3.5 -26 10.5s-11 15.5 -11 25.5zM154 475c0 10 3.5 18.667 10.5 26s15.833 11 26.5 11c10 0 18.5 -3.66699 25.5 -11
s10.5 -16 10.5 -26s-3.5 -18.5 -10.5 -25.5s-15.5 -10.5 -25.5 -10.5c-10.667 0 -19.5 3.5 -26.5 10.5s-10.5 15.5 -10.5 25.5z" />
    <glyph glyph-name="copyright" unicode="&#xa9;" horiz-adv-x="585" 
d="M546 233c0 -34.667 -6.83301 -66.999 -20.5 -96.999s-32 -56.167 -55 -78.5s-49.833 -40 -80.5 -53s-63 -19.5 -97 -19.5s-66.5 6.5 -97.5 19.5s-58.167 30.667 -81.5 53s-41.833 48.5 -55.5 78.5s-20.5 62.333 -20.5 97s6.83301 67.167 20.5 97.5
s32.167 56.666 55.5 78.999s50.5 40 81.5 53s63.5 19.5 97.5 19.5s66.333 -6.5 97 -19.5s57.5 -30.833 80.5 -53.5s41.333 -49 55 -79s20.5 -62.333 20.5 -97zM511 234.001c0 29.333 -5.83301 57.166 -17.5 83.499s-27.5 49.5 -47.5 69.5s-43.167 35.833 -69.5 47.5
s-54.166 17.5 -83.499 17.5s-57.333 -5.83301 -84 -17.5s-50 -27.5 -70 -47.5s-35.833 -43.167 -47.5 -69.5s-17.5 -54.166 -17.5 -83.499s6 -57.166 18 -83.499s28 -49.5 48 -69.5s43.167 -35.833 69.5 -47.5s54.166 -17.5 83.499 -17.5c28.667 0 56.167 5.83301 82.5 17.5
s49.5 27.5 69.5 47.5s36 43.167 48 69.5s18 54.166 18 83.499zM433 180.001c-9.33301 -30.667 -26.832 -52.501 -52.499 -65.501s-53.5 -19.5 -83.5 -19.5c-20 0 -39.333 3.33301 -58 10s-35.334 16.167 -50.001 28.5s-26.334 27.166 -35.001 44.499s-13 36.333 -13 57
s4.33301 39.667 13 57s20.334 32.333 35.001 45s31.334 22.334 50.001 29.001s38 10 58 10c30 0 57.833 -6.5 83.5 -19.5s43.167 -34.833 52.5 -65.5h-47c-7.33301 19.333 -19.166 35 -35.499 47s-35.166 18 -56.499 18c-15.333 0 -29.333 -3.5 -42 -10.5
s-23.334 -16.167 -32.001 -27.5s-15.334 -24 -20.001 -38s-7 -28 -7 -42c0 -15.333 2.16699 -30.333 6.5 -45s10.666 -27.667 18.999 -39s18.833 -20.666 31.5 -27.999s27.334 -11 44.001 -11c21.333 0 40.166 6 56.499 18s28.5 27.667 36.5 47h46z" />
    <glyph glyph-name="ordfeminine" unicode="&#xaa;" horiz-adv-x="262" 
d="M211 226c-4.66699 11.333 -6.99805 21.6641 -6.99805 30.9971c-12.667 -14.667 -27 -24.5 -43 -29.5s-33.333 -7.5 -52 -7.5c-12.667 0 -24.834 1.5 -36.501 4.5s-22.167 7.5 -31.5 13.5s-16.833 13.5 -22.5 22.5s-8.5 19.5 -8.5 31.5c0 16 4.83301 29 14.5 39
s22 18 37 24s31.333 10 49 12s34.167 3 49.5 3h14c4 0 8.33301 0.166992 13 0.5s8.66699 0.5 12 0.5v4c0 18.667 -5.33301 34.834 -16 48.501s-28.334 20.5 -53.001 20.5c-18.667 0 -34.167 -6.16699 -46.5 -18.5s-18.5 -25.166 -18.5 -38.499h-44
c6.66699 28 20 47.333 40 58s43 16 69 16c37.333 0 64.5 -7.66699 81.5 -23s25.5 -36.666 25.5 -63.999v-88c0 -22.667 4.33301 -42.667 13 -60h-39zM160.002 352.998c-13.333 0 -26.168 -1.16699 -38.501 -3.5s-23.5 -6 -33.5 -11s-18 -11.5 -24 -19.5s-9 -17.333 -9 -28
c0 -14.667 6.5 -27.5 19.5 -38.5s28.5 -16.5 46.5 -16.5c22.667 0 41.334 8.33301 56.001 25s22 39.667 22 69v23h-39z" />
    <glyph glyph-name="guillemotleft" unicode="&#xab;" horiz-adv-x="366" 
d="M180 308l-96 -118l96 -118l-38 -23l-94 141l94 141zM299 308l-96 -118l96 -118l-38 -23l-93 141l93 141z" />
    <glyph glyph-name="logicalnot" unicode="&#xac;" horiz-adv-x="420" 
d="M350 245h-336v37h373v-198h-37v161z" />
    <glyph glyph-name="registered" unicode="&#xae;" horiz-adv-x="585" 
d="M546 233c0 -34.667 -6.83301 -67 -20.5 -97s-32 -56.167 -55 -78.5s-49.833 -40 -80.5 -53s-63 -19.5 -97 -19.5s-66.5 6.5 -97.5 19.5s-58.167 30.667 -81.5 53s-41.833 48.5 -55.5 78.5s-20.5 62.333 -20.5 97s6.83301 67.167 20.5 97.5s32.167 56.666 55.5 78.999
s50.5 40 81.5 53s63.5 19.5 97.5 19.5s66.333 -6.5 97 -19.5s57.5 -30.667 80.5 -53s41.333 -48.666 55 -78.999s20.5 -62.833 20.5 -97.5zM511 234c0 29.333 -5.83301 57.166 -17.5 83.499s-27.5 49.5 -47.5 69.5s-43.167 35.833 -69.5 47.5s-54.166 17.5 -83.499 17.5
s-57.333 -5.83301 -84 -17.5s-50 -27.5 -70 -47.5s-35.833 -43.167 -47.5 -69.5s-17.5 -54.166 -17.5 -83.499s6 -57.166 18 -83.499s28 -49.5 48 -69.5s43.167 -35.833 69.5 -47.5s54.166 -17.5 83.499 -17.5c28.667 0 56.167 5.83301 82.5 17.5s49.5 27.5 69.5 47.5
s36 43.167 48 69.5s18 54.166 18 83.499zM381 101c-6.66699 8 -12.332 19 -16.999 33s-9.83398 27.5 -15.501 40.5s-12.5 24.333 -20.5 34s-18.333 14.5 -31 14.5h-65v-122h-40v266h83c11.333 0 24.666 -0.666992 39.999 -2s29.833 -4.33301 43.5 -9
s25.334 -11.5 35.001 -20.5s14.5 -21.5 14.5 -37.5c0 -9.33301 -2.16699 -17.833 -6.5 -25.5s-10 -14.334 -17 -20.001s-14.667 -10.5 -23 -14.5s-16.5 -6.66699 -24.5 -8c16 -2 27.667 -8.16699 35 -18.5s13.5 -22.166 18.5 -35.499l15 -41c5 -14 12.5 -25.333 22.5 -34
h-47zM360.002 298c0 12.667 -3.5 22.5 -10.5 29.5s-15.667 12 -26 15s-21.5 4.66699 -33.5 5s-22.667 0.5 -32 0.5h-26v-106h30c10.667 0 21.667 0.333008 33 1s21.833 2.66699 31.5 6s17.667 8.83301 24 16.5s9.5 18.5 9.5 32.5z" />
    <glyph glyph-name="macron" unicode="&#xaf;" horiz-adv-x="222" 
d="M0 494h222v-39h-222v39z" />
    <glyph glyph-name="degree" unicode="&#xb0;" horiz-adv-x="250" 
d="M125 461c14.667 0 28.334 -2.83301 41.001 -8.5s23.667 -13.334 33 -23.001s16.833 -21 22.5 -34s8.5 -26.833 8.5 -41.5s-2.83301 -28.334 -8.5 -41.001s-13.167 -23.834 -22.5 -33.501s-20.333 -17.167 -33 -22.5s-26.334 -8 -41.001 -8s-28.5 2.66699 -41.5 8
s-24.167 12.833 -33.5 22.5s-16.833 20.834 -22.5 33.501s-8.5 26.334 -8.5 41.001s2.83301 28.5 8.5 41.5s13.167 24.333 22.5 34s20.5 17.334 33.5 23.001s26.833 8.5 41.5 8.5zM125 432c-10.667 0 -20.667 -2 -30 -6s-17.5 -9.5 -24.5 -16.5s-12.5 -15.333 -16.5 -25
s-6 -19.834 -6 -30.501c0 -21.333 7.5 -39.5 22.5 -54.5s33.167 -22.5 54.5 -22.5s39.5 7.5 54.5 22.5s22.5 33.167 22.5 54.5c0 10.667 -2 20.834 -6 30.501s-9.5 18 -16.5 25s-15.167 12.5 -24.5 16.5s-19.333 6 -30 6z" />
    <glyph glyph-name="plusminus" unicode="&#xb1;" horiz-adv-x="432" 
d="M234 216v-133h-36v133h-168v31h168v132h36v-132h168v-31h-168zM30 0v32h372v-32h-372z" />
    <glyph glyph-name="twosuperior" unicode="&#xb2;" horiz-adv-x="277" 
d="M15 184c2.66699 18 8.83398 33 18.501 45s21 22.333 34 31s26.833 16.334 41.5 23.001s28.667 13.667 42 21c14 8 26.333 17.167 37 27.5s16 24.166 16 41.499c0 18 -6.33301 33.667 -19 47s-31.667 20 -57 20c-22 0 -40.667 -6 -56 -18s-23.333 -29.667 -24 -53h-38
c4 30 17.167 52.5 39.5 67.5s48.5 22.5 78.5 22.5c15.333 0 30 -1.83301 44 -5.5s26.167 -9 36.5 -16s18.666 -16 24.999 -27s9.5 -23.5 9.5 -37.5c0 -24.667 -8.83301 -44 -26.5 -58s-37.5 -25.833 -59.5 -35.5l-62 -28c-19.333 -9 -31 -20.833 -35 -35.5h190v-32h-235v0z
" />
    <glyph glyph-name="threesuperior" unicode="&#xb3;" horiz-adv-x="277" 
d="M139 178c-30 0 -56.002 7.33398 -78.002 22.001s-35.333 37 -40 67h39c0 -23.333 7.83301 -41.166 23.5 -53.499s34.167 -18.5 55.5 -18.5c22.667 0 43 6 61 18s27 28.333 27 49c0 12 -3.66699 22 -11 30s-16.666 14 -27.999 18s-24 6.16699 -38 6.5
s-28 -0.833984 -42 -3.50098v24c14.667 -2.66699 28.5 -3 41.5 -1s24 5.66699 33 11s16.167 11.833 21.5 19.5s8 16.167 8 25.5c0 14.667 -6.16699 27.167 -18.5 37.5s-29.833 15.5 -52.5 15.5c-19.333 0 -34.666 -5.83301 -45.999 -17.5s-17.666 -27.167 -18.999 -46.5h-39
c2 25.333 12.833 45 32.5 59s43.5 21 71.5 21c30 0 55.833 -5.5 77.5 -16.5s32.5 -28.5 32.5 -52.5c0 -16 -5.33301 -29.5 -16 -40.5s-22.667 -18.833 -36 -23.5c17.333 -3.33301 32.666 -10.5 45.999 -21.5s20 -26.167 20 -45.5c0 -14 -3.5 -26.333 -10.5 -37
s-16.5 -19.334 -28.5 -26.001s-25.5 -11.667 -40.5 -15s-30.5 -5 -46.5 -5z" />
    <glyph glyph-name="acute" unicode="&#xb4;" horiz-adv-x="183" 
d="M43 425l109.999 114c6 7.33301 14.333 11 25 11c6 0 10.833 -2.16699 14.5 -6.5s5.5 -9.5 5.5 -15.5s-2.16699 -11 -6.5 -15s-11.166 -9.66699 -20.499 -17l-107 -72z" />
    <glyph glyph-name="mu" unicode="&#xb5;" horiz-adv-x="443" 
d="M355 0l-9 79.002c-13.333 -30 -33.5 -52.667 -60.5 -68s-56.5 -23 -88.5 -23c-39.333 0 -71.666 13.667 -96.999 41v-166h-52v516h53v-226c0 -18.667 1.66699 -36.5 5 -53.5s9.16602 -32 17.499 -45s19.5 -23.333 33.5 -31s31.333 -11.5 52 -11.5
c22 0 41.5 4.16699 58.5 12.5s31.333 19.666 43 33.999s20.5 30.666 26.5 48.999s9 37.5 9 57.5v214h49v-379h-40z" />
    <glyph glyph-name="paragraph" unicode="&#xb6;" horiz-adv-x="366" 
d="M287 442v-540h-36v540h-51v-540h-37v269c-48 0 -84 14.167 -108 42.5s-36 65.5 -36 111.5c0 21.333 3.66699 40.833 11 58.5s17.5 32.667 30.5 45s28.333 22 46 29s37.167 10.5 58.5 10.5h182v-26h-60z" />
    <glyph glyph-name="periodcentered" unicode="&#xb7;" horiz-adv-x="169" 
d="M48 190c0 10 3.5 18.667 10.5 26s15.5 11 25.5 11c10.667 0 19.5 -3.66699 26.5 -11s10.5 -16 10.5 -26s-3.5 -18.5 -10.5 -25.5s-15.833 -10.5 -26.5 -10.5c-10 0 -18.5 3.5 -25.5 10.5s-10.5 15.5 -10.5 25.5z" />
    <glyph glyph-name="cedilla" unicode="&#xb8;" horiz-adv-x="147" 
d="M63 0l18.999 0.000976562l-21 -50c6.66699 2 12.334 3 17.001 3h16c13.333 0 25.5 -4.66699 36.5 -14s16.5 -21.333 16.5 -36c0 -10 -2.5 -18.833 -7.5 -26.5s-11.667 -14 -20 -19s-17.5 -8.66699 -27.5 -11s-20 -3.5 -30 -3.5c-12 0 -23.167 0.5 -33.5 1.5
s-19.5 3.83301 -27.5 8.5l7 20c12 -6 26.667 -9 44 -9c10.667 0 21 2.66699 31 8s15 14.333 15 27c0 9.33301 -4 17.166 -12 23.499s-15.667 9.5 -23 9.5c-6 0 -12 -0.5 -18 -1.5s-10 -1.83301 -12 -2.5z" />
    <glyph glyph-name="onesuperior" unicode="&#xb9;" horiz-adv-x="211" 
d="M117 406l-67 0.00195312v17c14 0 25.333 0.5 34 1.5s16 3.16699 22 6.5s11 7.66602 15 12.999s8 12.666 12 21.999h25v-283h-41v223z" />
    <glyph glyph-name="ordmasculine" unicode="&#xba;" horiz-adv-x="306" 
d="M153 218c-19.333 0 -37.167 3.16699 -53.5 9.5s-30.5 15 -42.5 26s-21.333 23.833 -28 38.5s-10 30.334 -10 47.001s3.5 32.167 10.5 46.5s16.5 27 28.5 38s26.167 19.667 42.5 26s33.833 9.5 52.5 9.5c18 0 35.167 -3.16699 51.5 -9.5s30.666 -15 42.999 -26
s22 -23.667 29 -38s10.5 -29.833 10.5 -46.5s-3.33301 -32.334 -10 -47.001s-16 -27.5 -28 -38.5s-26.167 -19.667 -42.5 -26s-34.166 -9.5 -53.499 -9.5zM152.999 440c-25.333 0 -46.167 -9 -62.5 -27s-24.5 -43 -24.5 -75c0 -30 7.5 -54.333 22.5 -73s36.5 -28 64.5 -28
c27.333 0 48.5 9.33301 63.5 28s22.5 43 22.5 73c0 32 -8 57 -24 75s-36.667 27 -62 27z" />
    <glyph glyph-name="guillemotright" unicode="&#xbb;" horiz-adv-x="366" 
d="M224 331l94 -141l-94 -141l-37 23l95 118l-95 118zM105 331l94 -141l-94 -141l-38 23l96 118l-96 118z" />
    <glyph glyph-name="onequarter" unicode="&#xbc;" horiz-adv-x="704" 
d="M126 -11l322 471h30l-322 -471h-30zM496 65v-65h-38v65h-143l-9 12l182 199h8v-189h64l-11 -22h-53zM344 87h114v126zM126 406l-58 0.00195312v17c14 0 24.833 0.5 32.5 1.5s14 3.16699 19 6.5s9 7.66602 12 12.999s6.5 12.666 10.5 21.999h21v-280h-37v220z" />
    <glyph glyph-name="onehalf" unicode="&#xbd;" horiz-adv-x="704" 
d="M144 -11h-29l325 471h29zM369 0c2.66699 18 8.66602 32.998 17.999 44.998s20.333 22.333 33 31s26.5 16.334 41.5 23.001s29.167 13.667 42.5 21c14 7.33301 26.5 16.333 37.5 27s16.5 24.667 16.5 42c0 18.667 -6.66699 34.334 -20 47.001s-32.666 19 -57.999 19
c-21.333 0 -39.833 -6 -55.5 -18s-23.5 -29.667 -23.5 -53h-39c4.66699 30.667 18 53.5 40 68.5s48 22.5 78 22.5c15.333 0 30 -1.83301 44 -5.5s26.333 -9 37 -16s19.167 -16 25.5 -27s9.5 -23.5 9.5 -37.5c0 -16.667 -4.16699 -30.834 -12.5 -42.501s-19 -21.667 -32 -30
s-27 -15.666 -42 -21.999l-43 -18.5c-13.667 -6 -25.5 -12.5 -35.5 -19.5s-16.333 -15.167 -19 -24.5h190v-32h-233zM123.999 405.998l-58 0.00195312v17c14 0 24.833 0.5 32.5 1.5s14 3.16699 19 6.5s9 7.66602 12 12.999s6.5 12.666 10.5 21.999h21v-280h-37v220z" />
    </font>
</defs>
</svg>
